<svg width="275" height="271" viewBox="0 0 275 271" fill="none" xmlns="http://www.w3.org/2000/svg">
<path d="M106.786 269.506C106.747 269.506 106.704 269.501 106.665 269.494C106.325 269.431 106.096 269.114 106.138 268.771L107.379 258.786C107.412 258.519 107.605 258.299 107.867 258.233C108.111 258.17 108.401 258.268 108.557 258.488L109.512 259.822C109.627 259.977 109.663 260.176 109.615 260.363L107.418 269.013C107.343 269.307 107.081 269.506 106.786 269.506Z" fill="black"/>
<path d="M206.099 25.8644C205.837 25.8644 205.593 25.7063 205.491 25.4502L205.174 24.6474C205.105 24.4711 205.117 24.2738 205.204 24.1066C205.289 23.9379 205.445 23.8174 205.629 23.7722L214.414 21.6545C214.754 21.5852 215.097 21.7734 215.194 22.1063C215.293 22.4422 215.11 22.7947 214.781 22.9077L206.313 25.8283C206.241 25.8524 206.168 25.8644 206.099 25.8644Z" fill="black"/>
<path d="M159.748 4.49221C159.486 4.49221 159.242 4.33405 159.14 4.07949L157.884 0.902782C157.763 0.595503 157.89 0.246055 158.179 0.0878971C158.474 -0.0702613 158.833 0.0125959 159.022 0.282209L161.095 3.17872C161.216 3.34592 161.252 3.5613 161.188 3.75713C161.125 3.95443 160.972 4.1096 160.776 4.17586L159.959 4.45602C159.89 4.48011 159.818 4.49221 159.748 4.49221Z" fill="black"/>
<path d="M15.5399 165.107C15.4224 165.107 15.305 165.074 15.1995 165.012L0.314691 155.967C0.0254903 155.791 -0.0799534 155.422 0.070678 155.119C0.218286 154.815 0.570762 154.678 0.893094 154.8L17.0371 161.102C17.2059 161.167 17.3384 161.299 17.4047 161.465C17.474 161.632 17.468 161.819 17.3926 161.983L16.1334 164.726C16.0551 164.896 15.9104 165.024 15.7327 165.079C15.6695 165.098 15.6032 165.107 15.5399 165.107ZM7.40313 158.745L15.2507 163.514L15.9165 162.068L7.40313 158.745Z" fill="black"/>
<path d="M201.927 240.256C201.849 240.256 201.77 240.242 201.692 240.212L201.147 240.003C200.978 239.938 200.843 239.804 200.776 239.635C200.707 239.467 200.713 239.277 200.791 239.111L200.806 239.08C200.957 238.76 201.343 238.619 201.668 238.766L202.198 239.007C202.521 239.153 202.665 239.528 202.53 239.855C202.424 240.104 202.183 240.256 201.927 240.256Z" fill="black"/>
<path d="M13.8948 139.438H13.8767C13.6719 139.432 13.4821 139.331 13.3616 139.164L0.121606 120.631C-0.0410563 120.402 -0.0380544 120.093 0.127631 119.865C0.290293 119.636 0.582522 119.542 0.853646 119.629L11.7198 123.108C11.8554 123.151 11.9698 123.236 12.0542 123.351L18.8444 132.864C19.0131 133.102 19.0041 133.423 18.8233 133.651L14.4069 139.191C14.2804 139.347 14.0937 139.438 13.8948 139.438ZM2.33279 121.474L13.9219 137.7L17.4918 133.223L11.1143 124.286L2.33279 121.474Z" fill="black"/>
<path d="M106.785 269.506C106.578 269.506 106.379 269.406 106.252 269.232L95.0878 253.595C94.9703 253.428 94.9372 253.213 94.9974 253.017C95.0607 252.821 95.2113 252.666 95.4071 252.598L102.119 250.276C102.384 250.182 102.694 250.276 102.866 250.514L108.56 258.488C108.653 258.62 108.695 258.786 108.674 258.949L107.433 268.934C107.4 269.2 107.207 269.42 106.945 269.486C106.894 269.5 106.84 269.506 106.785 269.506ZM96.6603 253.547L106.343 267.109L107.346 259.039L102.086 251.67L96.6603 253.547Z" fill="black"/>
<path d="M260.165 131.964H260.147C259.942 131.958 259.752 131.857 259.632 131.69L256.297 127.016C256.089 126.723 256.155 126.317 256.447 126.106L273.019 114.155C273.281 113.961 273.652 113.999 273.875 114.235C274.101 114.47 274.116 114.838 273.914 115.092L260.677 131.717C260.55 131.873 260.364 131.964 260.165 131.964ZM257.74 126.785L260.192 130.225L269.934 117.993L257.74 126.785Z" fill="black"/>
<path d="M106.786 269.506C106.575 269.506 106.373 269.403 106.247 269.223C106.081 268.98 106.096 268.658 106.286 268.432L110.805 263.046C110.934 262.892 111.127 262.811 111.329 262.812C111.531 262.821 111.718 262.921 111.835 263.085L114.034 266.151C114.155 266.319 114.188 266.534 114.128 266.731C114.064 266.927 113.914 267.082 113.718 267.15L107 269.47C106.931 269.494 106.858 269.506 106.786 269.506ZM111.266 264.531L108.804 267.465L112.462 266.201L111.266 264.531Z" fill="black"/>
<path d="M9.43652 178.368C9.31902 178.368 9.20155 178.337 9.09309 178.27C8.81293 178.097 8.70445 177.742 8.84305 177.442L16.2056 161.438C16.3472 161.126 16.7148 160.98 17.0371 161.102L21.1431 162.706C21.3359 162.782 21.4836 162.944 21.5348 163.145C21.589 163.345 21.5468 163.56 21.4173 163.721L9.94864 178.121C9.81911 178.282 9.62932 178.368 9.43652 178.368ZM17.1365 162.544L12.2833 173.09L19.8417 163.601L17.1365 162.544Z" fill="black"/>
<path d="M72.1298 256.139C71.922 256.139 71.7201 256.039 71.5966 255.864C71.443 255.647 71.4369 255.356 71.5816 255.132L79.7816 242.419C79.872 242.277 80.0136 242.178 80.1763 242.137L80.7577 241.996C81.077 241.923 81.4023 242.088 81.5198 242.392L85.3789 252.193C85.4482 252.369 85.4361 252.567 85.3487 252.734C85.2644 252.901 85.1078 253.023 84.924 253.068L72.2835 256.121C72.2323 256.133 72.181 256.139 72.1298 256.139ZM80.5829 243.585L73.5638 254.468L83.8877 251.973L80.5829 243.585Z" fill="black"/>
<path d="M222.442 219.866C222.298 219.866 222.153 219.818 222.039 219.726C221.882 219.602 221.789 219.412 221.789 219.212V208.486C221.789 208.185 221.997 207.921 222.289 207.85L228.076 206.45C228.22 206.419 228.362 206.43 228.495 206.489L244.123 213.448C244.38 213.561 244.533 213.824 244.509 214.103C244.485 214.382 244.283 214.613 244.012 214.68L222.596 219.848C222.545 219.86 222.494 219.866 222.442 219.866ZM223.096 209V218.382L241.837 213.859L228.166 207.772L223.096 209Z" fill="black"/>
<path d="M86.3337 257.075C86.0716 257.075 85.8246 256.915 85.7251 256.659L80.3026 242.871C80.2333 242.695 80.2454 242.497 80.3327 242.33C80.4171 242.163 80.5737 242.041 80.7575 241.996L84.1677 241.172C84.3484 241.131 84.5382 241.164 84.6888 241.268C84.8425 241.372 84.9449 241.535 84.969 241.718L86.9814 256.332C87.0265 256.661 86.8187 256.969 86.4994 257.054C86.4421 257.067 86.3879 257.075 86.3337 257.075ZM81.7938 243.091L84.9389 251.074L83.773 242.612L81.7938 243.091Z" fill="black"/>
<path d="M196.556 250.541C196.511 250.541 196.462 250.536 196.417 250.526C196.116 250.459 195.902 250.194 195.902 249.887V237.171C195.902 236.95 196.014 236.742 196.2 236.621C196.39 236.502 196.628 236.487 196.824 236.576L201.665 238.766C201.828 238.839 201.951 238.971 202.012 239.137C202.072 239.301 202.063 239.483 201.987 239.643L197.149 250.16C197.041 250.396 196.806 250.541 196.556 250.541ZM197.21 238.183V246.902L200.529 239.685L197.21 238.183Z" fill="black"/>
<path d="M169.244 20.7131C169.121 20.7131 169 20.6784 168.892 20.6107C168.726 20.5037 168.615 20.326 168.593 20.1271L166.623 1.30648C166.593 1.01126 166.765 0.732582 167.042 0.627174C167.316 0.524758 167.632 0.616624 167.807 0.859152L178.978 16.5016C179.095 16.6688 179.128 16.8842 179.068 17.08C179.005 17.2758 178.854 17.431 178.658 17.4988L169.458 20.6769C169.389 20.701 169.316 20.7131 169.244 20.7131ZM168.181 3.63514L169.807 19.1737L177.405 16.5498L168.181 3.63514Z" fill="black"/>
<path d="M243.858 214.698C243.638 214.698 243.431 214.586 243.31 214.399L230.67 194.951C230.6 194.845 230.564 194.722 230.564 194.595V191.214C230.564 191.066 230.615 190.923 230.706 190.807L263.654 149.436L243.828 137.388C243.545 137.214 243.437 136.856 243.575 136.555L244.31 134.966C244.358 134.863 244.431 134.776 244.521 134.709L256.448 126.106C256.589 126.003 256.764 125.96 256.936 125.991C257.107 126.02 257.261 126.115 257.363 126.256L273.935 149.466C274.071 149.658 274.095 149.906 273.996 150.119L244.452 214.317C244.352 214.534 244.145 214.678 243.907 214.696C243.888 214.696 243.873 214.698 243.858 214.698ZM231.872 194.401L243.759 212.694L272.649 149.917L256.68 127.55L245.425 135.669L245.006 136.573L264.967 148.704C265.127 148.802 265.238 148.963 265.271 149.148C265.301 149.334 265.256 149.524 265.139 149.67L231.872 191.443V194.401Z" fill="black"/>
<path d="M108.813 37.7217C108.681 37.7217 108.548 37.681 108.44 37.6027C108.289 37.4987 108.19 37.3361 108.166 37.1553L106.138 22.2193C106.09 21.8638 106.337 21.5369 106.693 21.4857C107.078 21.436 107.379 21.68 107.431 22.0325L109.708 36.9143C109.762 37.2563 109.539 37.5786 109.202 37.6524L108.952 37.7066C108.907 37.7172 108.859 37.7217 108.813 37.7217Z" fill="black"/>
<path d="M93.5515 39.4042C93.4732 39.4042 93.3919 39.3892 93.3166 39.3605L72.4368 31.3021C72.2681 31.2373 72.1356 31.1048 72.0663 30.9376C71.997 30.7704 72.003 30.5836 72.0784 30.4194L76.9044 19.9283C76.9887 19.7461 77.1514 19.612 77.3442 19.5653L158.339 0.0261833C158.586 -0.03104 158.851 0.0578025 159.007 0.261153C159.167 0.464504 159.191 0.740133 159.071 0.967576L156.733 5.38543C156.655 5.53152 156.525 5.64301 156.368 5.69721L107.177 22.6878L94.0637 39.1572C93.9371 39.3169 93.7474 39.4042 93.5515 39.4042ZM73.5575 30.3335L93.3407 37.9688L106.273 21.7253C106.352 21.6274 106.454 21.5551 106.572 21.5144L155.697 4.54645L157.236 1.63636L77.9588 20.7613L73.5575 30.3335Z" fill="black"/>
<path d="M51.6179 51.5265C51.4733 51.5265 51.3287 51.4783 51.2142 51.3864C51.0576 51.2629 50.9642 51.0731 50.9642 50.8728V29.1466C50.9642 28.9658 51.0395 28.7926 51.172 28.6691C51.3046 28.5456 51.4733 28.4793 51.6601 28.4944L72.1723 29.8364C72.5217 29.859 72.7898 30.1512 72.7838 30.4992L72.5398 45.994C72.5338 46.2923 72.3289 46.5483 72.0397 46.6191L51.7715 51.5084C51.7203 51.5205 51.6691 51.5265 51.6179 51.5265ZM52.2716 29.844V50.0428L71.2414 45.4668L71.4673 31.1002L52.2716 29.844Z" fill="black"/>
<path d="M59.489 248.454C59.2812 248.454 59.0823 248.355 58.9558 248.18L8.9029 178.094C8.77336 177.912 8.74626 177.675 8.8306 177.468C8.91493 177.261 9.0987 177.111 9.32163 177.071L40.6578 171.447C40.8054 171.412 40.9771 171.45 41.1127 171.531L50.4424 177.206C50.5177 177.252 50.581 177.313 50.6352 177.385L57.1031 186.439C57.2206 186.603 57.2537 186.812 57.1965 187.005L52.3072 203.327L68.885 245.443C68.9543 245.62 68.9423 245.817 68.8549 245.984C68.7675 246.153 68.6139 246.273 68.4301 246.319L59.6426 248.436C59.5914 248.448 59.5402 248.454 59.489 248.454ZM10.5688 178.176L59.7631 247.063L67.3938 245.224L51.0088 203.595C50.9545 203.458 50.9485 203.309 50.9907 203.169L55.8529 186.937L49.6471 178.254L40.6427 172.777L10.5688 178.176Z" fill="black"/>
<path d="M222.442 209.14C222.298 209.14 222.153 209.091 222.039 209C221.882 208.876 221.789 208.686 221.789 208.486V205.793C221.789 205.612 221.864 205.44 221.997 205.317C222.129 205.192 222.301 205.127 222.485 205.141L225.853 205.356C225.931 205.36 226.006 205.38 226.076 205.412L228.495 206.489C228.751 206.602 228.904 206.865 228.88 207.144C228.856 207.422 228.654 207.654 228.383 207.721L222.596 209.122C222.545 209.134 222.494 209.14 222.442 209.14ZM223.096 206.489V207.656L226.211 206.901L225.651 206.653L223.096 206.489Z" fill="black"/>
<path d="M80.3299 243.427C80.1221 243.427 79.9232 243.327 79.7967 243.151C79.6431 242.934 79.637 242.643 79.7816 242.419L83.1828 237.15C83.3304 236.918 83.6075 236.811 83.8726 236.865C84.1407 236.926 84.3426 237.144 84.3787 237.415L84.9692 241.718C85.0144 242.051 84.8005 242.363 84.4751 242.443L80.4835 243.408C80.4323 243.421 80.3811 243.427 80.3299 243.427ZM83.3243 239.34L81.7669 241.752L83.5925 241.31L83.3243 239.34Z" fill="black"/>
<path d="M225.81 206.662C225.795 206.662 225.783 206.662 225.768 206.66L222.4 206.445C222.057 206.422 221.789 206.138 221.789 205.793V204.509C221.789 204.288 221.9 204.082 222.087 203.961C222.277 203.842 222.509 203.826 222.708 203.913L226.076 205.412C226.365 205.54 226.521 205.857 226.446 206.165C226.374 206.458 226.109 206.662 225.81 206.662Z" fill="black"/>
<path d="M0.654821 156.062C0.42889 156.062 0.214987 155.945 0.0944939 155.746C-0.047099 155.513 -0.0259835 155.216 0.142694 155.002L17.799 132.837C17.9316 132.676 18.1394 132.626 18.3292 132.59C18.5341 132.596 18.7239 132.697 18.8444 132.864L28.6953 146.669C28.7947 146.811 28.8369 146.989 28.8067 147.16C28.7766 147.332 28.6802 147.484 28.5356 147.585L22.3901 151.879C22.3148 151.932 22.2304 151.968 22.1401 151.985L0.778334 156.05C0.736165 156.058 0.693998 156.062 0.654821 156.062ZM18.281 134.329L2.2635 154.437L21.7575 150.727L27.2463 146.891L18.281 134.329Z" fill="black"/>
<path d="M96.7481 40.6408C96.6667 40.6408 96.5884 40.6257 96.5131 40.5971L93.3168 39.3605C93.121 39.2852 92.9764 39.1225 92.9222 38.9206C92.868 38.7203 92.9101 38.5064 93.0397 38.3438L106.274 21.7252C106.439 21.5219 106.71 21.43 106.961 21.5023C107.211 21.5716 107.397 21.7839 107.433 22.0445L109.461 36.9806C109.506 37.3119 109.292 37.6238 108.967 37.7036L96.9017 40.6227C96.8505 40.6348 96.7993 40.6408 96.7481 40.6408ZM94.6182 38.4613L96.7933 39.3032L108.087 36.5709L106.343 23.7361L94.6182 38.4613Z" fill="black"/>
<path d="M86.2828 43.1608C86.2677 43.1608 86.2557 43.1608 86.2406 43.1593L79.8089 42.7406C79.604 42.7271 79.4203 42.6201 79.3058 42.4499L71.5847 30.8502C71.4281 30.6153 71.4431 30.305 71.6179 30.082C71.7926 29.8576 72.0908 29.7763 72.3589 29.8772L72.9012 30.0805L96.9832 39.3771C97.2513 39.4811 97.42 39.7447 97.3989 40.0308C97.3809 40.3155 97.179 40.555 96.9019 40.6228L86.4364 43.1427C86.3852 43.1548 86.334 43.1608 86.2828 43.1608ZM80.2156 41.4573L86.2255 41.8489L94.5612 39.841L73.808 31.8308L80.2156 41.4573Z" fill="black"/>
<path d="M54.3076 65.128C54.2926 65.128 54.2805 65.128 54.2655 65.1265L50.7981 64.9006C50.7288 64.8961 50.6625 64.881 50.5992 64.8554L29.9605 56.6478C29.6954 56.5424 29.5297 56.2788 29.5508 55.9941C29.5689 55.7109 29.7707 55.4729 30.0479 55.4052L71.732 45.3479C71.9338 45.3027 72.1357 45.3479 72.2953 45.4729C72.452 45.5995 72.5424 45.7923 72.5394 45.9941L72.4158 53.7348C72.4098 54.0089 72.2351 54.2514 71.976 54.3418L59.8808 58.5216L54.8198 64.8811C54.6932 65.0377 54.5065 65.128 54.3076 65.128ZM50.9848 63.6037L54.0094 63.7995L58.977 57.5591C59.0554 57.4612 59.1578 57.3889 59.2753 57.3482L71.1175 53.2557L71.2199 46.8165L32.3555 56.1929L50.9848 63.6037Z" fill="black"/>
<path d="M193.916 30.0744C193.654 30.0744 193.41 29.9163 193.308 29.6602L188.678 17.8918C188.608 17.7156 188.62 17.5183 188.708 17.3511C188.795 17.1824 188.949 17.0619 189.133 17.0167L201.773 13.9696C202.095 13.9033 202.418 14.0629 202.535 14.3657L206.708 24.9713C206.774 25.137 206.768 25.3222 206.693 25.4834C206.617 25.6461 206.482 25.7696 206.313 25.8284L194.13 30.0383C194.058 30.0624 193.989 30.0744 193.916 30.0744ZM190.169 18.1118L194.296 28.5983L205.24 24.8161L201.526 15.3734L190.169 18.1118Z" fill="black"/>
<path d="M101.372 44.1519C101.357 44.1519 101.345 44.1519 101.33 44.1504L86.2401 43.1593C85.9177 43.1382 85.6587 42.8851 85.6316 42.5628C85.6044 42.2405 85.8153 41.9467 86.1286 41.8714L108.924 36.3751C109.102 36.3359 109.289 36.3721 109.433 36.476C109.581 36.5784 109.683 36.7381 109.708 36.9158L110.259 40.555C110.307 40.8667 110.126 41.168 109.828 41.2704L101.586 44.1157C101.517 44.1398 101.444 44.1519 101.372 44.1519ZM90.6112 42.1365L101.285 42.8369L108.885 40.213L108.524 37.8106L90.6112 42.1365Z" fill="black"/>
<path d="M222.442 241.598C222.244 241.598 222.048 241.506 221.924 241.34L205.59 219.941C205.443 219.75 205.413 219.492 205.515 219.272L207.976 213.92C208.052 213.758 208.187 213.633 208.356 213.576L214.176 211.569L220.593 203.511C220.78 203.279 221.099 203.202 221.37 203.319L222.708 203.911C222.943 204.017 223.096 204.25 223.096 204.509V240.944C223.096 241.224 222.918 241.473 222.65 241.563C222.584 241.586 222.512 241.598 222.442 241.598ZM206.868 219.46L221.789 239.01V204.934L221.301 204.719L215.08 212.532C215.002 212.63 214.899 212.702 214.782 212.743L209.046 214.72L206.868 219.46Z" fill="black"/>
<path d="M108.982 260.856C108.774 260.856 108.575 260.756 108.451 260.581L101.8 251.273C101.682 251.105 101.649 250.89 101.709 250.694C101.773 250.498 101.926 250.343 102.119 250.276L111.997 246.864C112.217 246.784 112.473 246.837 112.654 247.001C112.832 247.164 112.904 247.409 112.844 247.643L109.614 260.363C109.551 260.608 109.352 260.797 109.102 260.843C109.063 260.851 109.021 260.856 108.982 260.856ZM103.372 251.226L108.695 258.677L111.28 248.495L103.372 251.226Z" fill="black"/>
<path d="M115.567 270.083C115.359 270.083 115.161 269.983 115.034 269.809L110.774 263.847C110.6 263.604 110.612 263.274 110.804 263.045L115.802 257.102C115.983 256.886 116.278 256.813 116.546 256.915C116.805 257.02 116.971 257.281 116.956 257.563L116.221 269.47C116.203 269.745 116.013 269.982 115.748 270.057C115.688 270.074 115.627 270.083 115.567 270.083ZM112.133 263.497L115.028 267.546L115.528 259.459L112.133 263.497Z" fill="black"/>
<path d="M56.5699 187.472C56.3621 187.472 56.1632 187.371 56.0367 187.198L49.5688 178.144C49.3911 177.892 49.4122 177.547 49.6231 177.32C49.8339 177.09 50.1774 177.046 50.4425 177.206L58.2117 181.925C58.4648 182.08 58.5823 182.386 58.4979 182.672L57.1965 187.007C57.1242 187.245 56.9224 187.423 56.6754 187.463C56.6422 187.469 56.6061 187.472 56.5699 187.472ZM52.485 179.977L56.3259 185.354L57.1001 182.78L52.485 179.977Z" fill="black"/>
<path d="M28.1621 147.703C27.9572 147.703 27.7584 147.608 27.6289 147.428L10.9878 124.11C10.8251 123.881 10.8281 123.572 10.9938 123.345C11.1564 123.117 11.4456 123.023 11.7198 123.108L44.2911 133.572C44.4959 133.639 44.6556 133.8 44.7189 134.006C44.7791 134.211 44.7369 134.434 44.6044 134.603L41.4985 138.495C41.4593 138.543 41.4111 138.587 41.3599 138.623L28.5356 147.585C28.4212 147.663 28.2916 147.703 28.1621 147.703ZM13.1989 124.955L28.3187 146.142L40.5345 137.605L42.9897 134.527L13.1989 124.955Z" fill="black"/>
<path d="M64.0139 65.7667C63.9988 65.7667 63.9868 65.7667 63.9717 65.7651L54.2654 65.1265C54.0214 65.1099 53.8075 64.9608 53.7111 64.7379C53.6117 64.5164 53.6448 64.2574 53.7954 64.0676L58.977 57.559C59.1125 57.3934 59.3174 57.3015 59.5252 57.3135C59.7361 57.3241 59.9289 57.437 60.0404 57.6163L64.5652 64.7634C64.6977 64.9713 64.7007 65.2349 64.5772 65.4473C64.4567 65.6461 64.2428 65.7667 64.0139 65.7667ZM55.5969 63.9049L62.7727 64.3764L59.4288 59.0909L55.5969 63.9049Z" fill="black"/>
<path d="M172.693 37.4009C172.431 37.4009 172.187 37.2427 172.085 36.9867L169.768 31.1078C169.747 31.0535 169.732 30.9948 169.726 30.9361L168.593 20.1272C168.563 19.8259 168.744 19.5412 169.03 19.4418L187.512 13.0598C187.75 12.9784 188.027 13.0417 188.205 13.233C188.382 13.4243 188.428 13.6999 188.325 13.9379L179.161 34.9848C179.089 35.1535 178.947 35.2831 178.776 35.3418L172.907 37.3647C172.835 37.3888 172.763 37.4009 172.693 37.4009ZM171.018 30.7116L173.073 35.9248L178.077 34.2001L186.533 14.7799L169.949 20.5082L171.018 30.7116Z" fill="black"/>
<path d="M110.139 44.7273C110.124 44.7273 110.112 44.7273 110.097 44.7258L101.33 44.1504C101.02 44.1293 100.767 43.8928 100.725 43.5856C100.683 43.2768 100.866 42.9816 101.159 42.8806L109.401 40.0353C109.582 39.9691 109.783 39.9886 109.952 40.094C110.118 40.1935 110.232 40.3621 110.259 40.5535L110.784 43.9742C110.814 44.17 110.753 44.3688 110.621 44.5149C110.497 44.6505 110.323 44.7273 110.139 44.7273ZM104.65 43.0584L109.371 43.3687L109.088 41.5265L104.65 43.0584Z" fill="black"/>
<path d="M71.6203 63.2949C71.542 63.2949 71.4607 63.2799 71.3854 63.2512L59.254 58.5758C58.9979 58.4764 58.8292 58.2294 58.8352 57.9538C58.8413 57.6796 59.016 57.4371 59.2751 57.3482L71.548 53.1066C71.7439 53.0343 71.9728 53.0674 72.1445 53.1955C72.3192 53.3205 72.4187 53.5209 72.4156 53.7347L72.2741 62.6517C72.271 62.8656 72.1626 63.0629 71.9849 63.1834C71.8764 63.2573 71.7499 63.2949 71.6203 63.2949ZM61.3929 57.9989L70.9817 61.6953L71.0932 54.646L61.3929 57.9989Z" fill="black"/>
<path d="M231.217 195.249C231.001 195.249 230.793 195.141 230.669 194.951L229.458 193.087C229.305 192.853 229.32 192.545 229.494 192.324L230.705 190.806C230.88 190.589 231.166 190.507 231.434 190.596C231.696 190.688 231.871 190.937 231.871 191.214V194.595C231.871 194.884 231.681 195.139 231.404 195.222C231.341 195.24 231.281 195.249 231.217 195.249Z" fill="black"/>
<path d="M71.5781 66.2637C71.563 66.2637 71.5509 66.2637 71.5359 66.2622L63.9715 65.7651C63.7636 65.7516 63.5738 65.6386 63.4624 65.4624L58.9376 58.3152C58.7869 58.0772 58.805 57.7684 58.9828 57.5516C59.1605 57.3331 59.4617 57.2563 59.7238 57.3557L71.8552 62.0311C72.1113 62.129 72.277 62.3776 72.274 62.6502L72.2318 65.619C72.2288 65.7983 72.1535 65.9685 72.0209 66.0905C71.9004 66.2019 71.7407 66.2637 71.5781 66.2637ZM64.3872 64.4833L70.9334 64.9126L70.9605 63.087L61.0975 59.2867L64.3872 64.4833Z" fill="black"/>
<path d="M178.562 35.378C178.384 35.378 178.209 35.3042 178.083 35.1686C177.905 34.9773 177.86 34.7017 177.962 34.4637L187.126 13.4168C187.232 13.1758 187.545 12.986 187.738 13.0236C188.003 13.0281 188.238 13.1923 188.334 13.4379L194.525 29.1813C194.591 29.347 194.585 29.5322 194.51 29.6949C194.435 29.8561 194.299 29.9796 194.131 30.0383L178.776 35.3419C178.707 35.3659 178.634 35.378 178.562 35.378ZM187.696 15.3854L179.755 33.6202L193.058 29.0261L187.696 15.3854Z" fill="black"/>
<path d="M94.3018 64.4803C94.0879 64.4803 93.88 64.3749 93.7565 64.1881L79.3055 42.4498C79.1699 42.2435 79.1609 41.9768 79.2844 41.7615C79.4109 41.5446 79.6429 41.418 79.8929 41.4361L110.181 43.4213C110.488 43.4409 110.738 43.6714 110.783 43.9741L111.708 49.9931C111.738 50.1739 111.687 50.3576 111.576 50.4992L102.845 61.4572C102.767 61.5552 102.665 61.6275 102.547 61.6681L94.5157 64.4441C94.4464 64.4682 94.3741 64.4803 94.3018 64.4803ZM81.125 42.8264L94.5669 63.0434L101.941 60.4948L110.374 49.9088L109.572 44.6911L81.125 42.8264Z" fill="black"/>
<path d="M235.368 99.9211C235.251 99.9211 235.133 99.888 235.028 99.8262L206.752 82.6443C206.581 82.5404 206.469 82.3627 206.445 82.1639C206.421 81.965 206.49 81.7647 206.632 81.6231L220.459 67.7896L190.108 73.7815C189.982 73.7996 189.861 73.7921 189.747 73.7499L186.243 72.3958C186.071 72.3295 185.936 72.1955 185.87 72.0252L172.084 36.9867C172.018 36.821 172.024 36.6357 172.099 36.4731C172.175 36.3119 172.31 36.1869 172.479 36.1297L214.353 21.6726C214.618 21.5807 214.931 21.6726 215.1 21.9106L265.159 91.9997C265.282 92.1744 265.313 92.4004 265.24 92.6022C265.165 92.8056 264.996 92.9577 264.788 93.0119L245.198 98.0744C245.026 98.1151 244.849 98.091 244.695 98.0006L243.767 97.4357L235.555 99.894C235.495 99.912 235.431 99.9211 235.368 99.9211ZM208.144 81.959L235.459 98.5579L243.671 96.0997C243.845 96.0485 244.035 96.0756 244.198 96.1675L245.138 96.7399L263.541 91.9846L214.32 23.0674L194.13 30.0384L173.551 37.1434L186.981 71.2796L190.042 72.4621L222.315 66.0906C222.586 66.0364 222.881 66.1704 223.017 66.425C223.152 66.678 223.107 66.9913 222.902 67.1947L208.144 81.959Z" fill="black"/>
<path d="M96.9528 68.4629C96.9437 68.4629 96.9347 68.4629 96.9257 68.4614C96.7178 68.4539 96.525 68.3454 96.4075 68.1707L93.7565 64.1881C93.645 64.0209 93.6179 63.8101 93.6812 63.6173C93.7474 63.426 93.8981 63.2753 94.0879 63.2091L102.119 60.433C102.384 60.3427 102.698 60.4361 102.866 60.6726C103.035 60.9105 103.026 61.2299 102.845 61.4573L97.4649 68.2159C97.3384 68.3725 97.1516 68.4629 96.9528 68.4629ZM95.314 64.1686L97.001 66.7006L100.42 62.4032L95.314 64.1686Z" fill="black"/>
<path d="M9.43625 178.368C9.21032 178.368 8.99343 178.249 8.87593 178.049C8.73433 177.816 8.75545 177.52 8.92413 177.308L20.3928 162.908C20.5705 162.682 20.8718 162.602 21.1429 162.706L36.35 168.647L41.1128 171.532C41.3448 171.673 41.4653 171.943 41.4141 172.211C41.3659 172.477 41.155 172.685 40.8869 172.733L9.55073 178.358C9.51458 178.365 9.47543 178.368 9.43625 178.368ZM21.1158 164.098L11.0269 176.766L38.9589 171.751L35.7716 169.814L21.1158 164.098Z" fill="black"/>
<path d="M40.9861 138.74C40.8114 138.74 40.6367 138.669 40.5102 138.534C40.2872 138.297 40.2722 137.933 40.474 137.678L43.5799 133.786C43.7486 133.574 44.0258 133.491 44.2909 133.571L45.9899 134.11C46.2249 134.185 46.3996 134.389 46.4358 134.636C46.4749 134.881 46.3695 135.127 46.1646 135.27L41.3597 138.623C41.2482 138.701 41.1157 138.74 40.9861 138.74ZM44.324 134.953L44.3089 134.972L44.33 134.955L44.324 134.953Z" fill="black"/>
<path d="M187.226 74.3328C186.961 74.3328 186.717 74.1716 186.617 73.9186L185.87 72.0252C185.777 71.7842 185.831 71.5101 186.015 71.3248C186.199 71.1425 186.473 71.0838 186.714 71.1757L190.217 72.5298C190.488 72.6352 190.66 72.9079 190.633 73.1971C190.609 73.4878 190.392 73.7258 190.109 73.7815L187.352 74.3207C187.31 74.3282 187.268 74.3328 187.226 74.3328Z" fill="black"/>
<path d="M115.576 82.3189C115.474 82.3189 115.372 82.2948 115.275 82.2466L100.951 74.8524C100.854 74.8012 100.77 74.7259 100.707 74.6325L96.4078 68.1707C96.2511 67.9342 96.2662 67.6239 96.4409 67.4025L110.552 49.6859C110.714 49.4826 110.985 49.3997 111.232 49.4615C111.482 49.5278 111.669 49.7372 111.708 49.9947L116.456 81.123C116.477 81.2616 116.456 81.4031 116.39 81.5267L116.155 81.971C116.037 82.1924 115.811 82.3189 115.576 82.3189ZM101.701 73.7679L115.064 80.6666L110.642 51.6697L97.7604 67.8438L101.701 73.7679Z" fill="black"/>
<path d="M115.567 270.083C115.416 270.083 115.266 270.03 115.148 269.929C114.989 269.797 114.901 269.596 114.913 269.388L115.648 257.481C115.657 257.343 115.712 257.209 115.802 257.102L129.34 240.971C129.416 240.881 129.515 240.813 129.627 240.774L172.748 225.88C172.907 225.826 173.079 225.834 173.23 225.903L196.824 236.576C197.059 236.682 197.209 236.915 197.209 237.171V249.887C197.209 250.188 197.001 250.452 196.709 250.523L115.721 270.065C115.67 270.077 115.618 270.083 115.567 270.083ZM116.941 257.777L116.275 268.586L195.902 249.372V237.593L172.928 227.2L130.226 241.95L116.941 257.777Z" fill="black"/>
<path d="M201.05 109.463C200.788 109.463 200.541 109.304 200.442 109.049L194.601 94.2108C194.507 93.9683 194.564 93.6927 194.748 93.5089L206.632 81.623C206.843 81.4137 207.181 81.3745 207.434 81.5266L235.709 98.7085C235.929 98.8425 236.05 99.0941 236.017 99.3501C235.983 99.6062 235.803 99.8186 235.556 99.8939L219.134 104.812L201.213 109.442C201.159 109.456 201.104 109.463 201.05 109.463ZM195.974 94.131L201.448 108.032L218.785 103.553L233.775 99.0625L207.193 82.9109L195.974 94.131Z" fill="black"/>
<path d="M208.569 214.847C208.388 214.847 208.21 214.772 208.084 214.631C207.909 214.439 207.867 214.158 207.976 213.92L210.322 208.814C210.407 208.629 210.572 208.495 210.771 208.45C210.97 208.409 211.178 208.456 211.334 208.584L214.986 211.622C215.166 211.774 215.251 212.011 215.209 212.243C215.166 212.474 215.004 212.666 214.781 212.743L208.783 214.811C208.714 214.835 208.641 214.847 208.569 214.847ZM211.154 210.135L209.801 213.077L213.256 211.886L211.154 210.135Z" fill="black"/>
<path d="M86.3339 257.075C86.1712 257.075 86.0145 257.015 85.891 256.902C85.7133 256.739 85.641 256.493 85.7012 256.26L95.3202 218.39C95.3383 218.322 95.3654 218.256 95.4045 218.197L104.319 204.38C104.403 204.249 104.529 204.152 104.68 204.107L116.748 200.516C116.899 200.471 117.061 200.482 117.203 200.548L123.517 203.405C123.806 203.535 123.96 203.854 123.882 204.162L112.844 247.643C112.79 247.855 112.633 248.027 112.425 248.099L86.5477 257.039C86.4785 257.063 86.4062 257.075 86.3339 257.075ZM96.5613 218.816L87.2647 255.409L111.666 246.978L122.481 204.369L116.887 201.839L105.286 205.291L96.5613 218.816Z" fill="black"/>
<path d="M129.841 242.045C129.63 242.045 129.428 241.943 129.302 241.762C129.136 241.52 129.151 241.196 129.341 240.971L150.278 216.043C150.464 215.82 150.784 215.745 151.046 215.868L173.23 225.903C173.474 226.013 173.628 226.26 173.616 226.528C173.604 226.796 173.429 227.028 173.176 227.115L130.055 242.009C129.985 242.033 129.913 242.045 129.841 242.045ZM150.959 217.263L131.862 240.003L171.197 226.416L150.959 217.263Z" fill="black"/>
<path d="M104.867 205.388C104.665 205.388 104.469 205.294 104.343 205.125C104.18 204.907 104.168 204.61 104.318 204.38L107.714 199.111C107.753 199.046 107.807 198.99 107.867 198.944L109.06 198.04C109.196 197.938 109.364 197.888 109.539 197.913L112.015 198.234C112.079 198.242 112.142 198.26 112.199 198.287L117.203 200.548C117.453 200.659 117.607 200.915 117.586 201.187C117.567 201.459 117.384 201.691 117.122 201.769L105.053 205.36C104.99 205.378 104.93 205.388 104.867 205.388ZM108.75 199.915L106.373 203.604L115.067 201.016L111.75 199.518L109.635 199.243L108.75 199.915Z" fill="black"/>
<path d="M241.81 98.9314C241.563 98.9314 241.334 98.7913 241.222 98.5623C241.087 98.2822 241.168 97.9448 241.415 97.7565L243.463 96.2051C243.677 96.0424 243.967 96.0273 244.198 96.1674L245.376 96.8829C245.599 97.0199 245.72 97.2775 245.684 97.5366C245.644 97.7971 245.455 98.008 245.199 98.0743L241.972 98.9103C241.918 98.9238 241.864 98.9314 241.81 98.9314Z" fill="black"/>
<path d="M244.903 135.893C244.756 135.893 244.608 135.844 244.487 135.744C244.258 135.556 244.186 135.237 244.31 134.967L257.932 105.365C258.011 105.194 258.155 105.066 258.336 105.012C258.508 104.958 258.706 104.985 258.866 105.078L273.742 114.126C273.929 114.241 274.046 114.441 274.055 114.66C274.064 114.878 273.962 115.087 273.784 115.216L245.286 135.77C245.171 135.853 245.036 135.893 244.903 135.893ZM258.812 106.577L246.536 133.256L272.221 114.732L258.812 106.577Z" fill="black"/>
<path d="M86.334 257.075C86.3219 257.075 86.3099 257.075 86.2978 257.073C85.9845 257.057 85.7284 256.82 85.6863 256.51L83.0835 237.593C83.0624 237.438 83.0985 237.281 83.1829 237.15L95.4046 218.197C95.5794 217.929 95.9228 217.831 96.215 217.951C96.5072 218.079 96.6639 218.402 96.5855 218.712L86.9666 256.582C86.8943 256.873 86.6322 257.075 86.334 257.075ZM84.412 237.655L86.5238 253.015L94.3352 222.265L84.412 237.655Z" fill="black"/>
<path d="M77.558 66.6554C77.5429 66.6554 77.5308 66.6554 77.5158 66.6539L71.536 66.2623C71.1895 66.2397 70.9184 65.949 70.9244 65.601L71.4757 30.4781C71.4817 30.1392 71.7468 29.8591 72.0842 29.8365C72.4156 29.7883 72.7229 30.0518 72.7741 30.3892L78.2026 65.9023C78.2328 66.0981 78.1725 66.2969 78.04 66.443C77.9165 66.5786 77.7417 66.6554 77.558 66.6554ZM72.2409 64.9985L76.7898 65.2967L72.6596 38.2866L72.5391 45.9941L72.2409 64.9985Z" fill="black"/>
<path d="M101.252 74.9247C101.149 74.9247 101.047 74.9006 100.954 74.8524L86.1561 67.2217L77.5162 66.6539C77.2089 66.6343 76.9589 66.4039 76.9137 66.1011L71.4852 30.5881C71.437 30.2838 71.6087 29.9901 71.8949 29.8786C72.1781 29.7732 72.5004 29.8726 72.6751 30.1272L101.797 73.9095C101.96 74.1565 101.939 74.4849 101.74 74.7063C101.61 74.8494 101.433 74.9247 101.252 74.9247ZM78.1248 65.3841L86.376 65.9264C86.4664 65.9324 86.5538 65.9565 86.6321 65.9972L99.3118 72.5358L73.2234 33.3084L78.1248 65.3841Z" fill="black"/>
<path d="M108.262 200.119C108.102 200.119 107.943 200.06 107.819 199.946C107.587 199.732 107.542 199.381 107.711 199.114L108.337 198.131C108.473 197.914 108.726 197.81 108.979 197.834L109.545 197.914C109.807 197.951 110.021 198.141 110.088 198.397C110.154 198.653 110.06 198.923 109.85 199.083L108.657 199.986C108.539 200.075 108.401 200.119 108.262 200.119Z" fill="black"/>
<path d="M218.947 104.839C218.661 104.839 218.399 104.649 218.318 104.361C218.221 104.018 218.42 103.661 218.761 103.559L243.671 96.0996C243.963 96.0123 244.298 96.1478 244.439 96.431C244.584 96.7127 244.506 97.0561 244.252 97.2474L242.204 98.7989C242.135 98.8516 242.056 98.8892 241.972 98.9103L219.11 104.818C219.056 104.831 219.002 104.839 218.947 104.839Z" fill="black"/>
<path d="M57.8718 183.137C57.7543 183.137 57.6368 183.106 57.5313 183.042L35.772 169.814C35.4828 169.638 35.3773 169.269 35.528 168.966C35.6726 168.662 36.028 168.52 36.3504 168.647L59.375 177.642C59.6913 177.766 59.86 178.112 59.7636 178.438L58.4984 182.67C58.4411 182.865 58.2965 183.021 58.1067 183.093C58.0314 183.122 57.9501 183.137 57.8718 183.137ZM42.8544 172.59L57.4892 181.486L58.3387 178.641L42.8544 172.59Z" fill="black"/>
<path d="M111.931 199.536C111.904 199.536 111.877 199.534 111.847 199.53L108.798 199.129C108.575 199.098 108.386 198.956 108.295 198.753C108.202 198.549 108.22 198.313 108.34 198.126L108.75 197.493C108.919 197.233 109.25 197.132 109.536 197.24L112.169 198.274C112.477 198.394 112.645 198.725 112.564 199.045C112.489 199.337 112.227 199.536 111.931 199.536Z" fill="black"/>
<path d="M222.442 241.598C222.427 241.598 222.415 241.598 222.4 241.596L201.885 240.254C201.806 240.25 201.728 240.23 201.656 240.197L150.509 217.058C150.322 216.974 150.187 216.808 150.139 216.608C150.093 216.409 150.145 216.199 150.277 216.043L153.431 212.282C153.603 212.075 153.889 211.995 154.136 212.081L173.516 218.459C173.537 218.465 173.558 218.474 173.576 218.483L222.707 240.348C222.996 240.476 223.153 240.794 223.078 241.101C223.005 241.395 222.74 241.598 222.442 241.598ZM202.089 238.957L218.833 240.053L173.076 219.689L154.148 213.461L151.832 216.222L202.089 238.957Z" fill="black"/>
<path d="M123.249 204.654C123.159 204.654 123.065 204.634 122.981 204.595L111.663 199.477C111.346 199.334 111.196 198.969 111.322 198.646C111.449 198.323 111.792 198.149 112.136 198.262L123.782 202.09C124.108 202.197 124.294 202.539 124.21 202.872L123.882 204.162C123.833 204.348 123.707 204.505 123.532 204.589C123.442 204.633 123.345 204.654 123.249 204.654Z" fill="black"/>
<path d="M22.0166 151.997C21.7575 151.997 21.5165 151.843 21.4141 151.598C21.2936 151.313 21.39 150.985 21.643 150.807L45.4178 134.197C45.5834 134.081 45.7973 134.045 45.9901 134.112L69.6384 141.703C69.9245 141.795 70.1113 142.068 70.0933 142.366C70.0722 142.664 69.8553 142.911 69.5631 142.967L22.1401 151.985C22.0979 151.992 22.0557 151.997 22.0166 151.997ZM45.8998 135.455L24.8935 150.131L66.7946 142.162L45.8998 135.455Z" fill="black"/>
<path d="M193.209 89.5323C193.149 89.5323 193.091 89.5248 193.031 89.5082C192.835 89.4525 192.676 89.3079 192.6 89.1181L186.617 73.9185C186.548 73.7377 186.56 73.5344 186.654 73.3642C186.747 73.1955 186.91 73.075 187.099 73.0373L222.316 66.0905C222.611 66.0332 222.912 66.1869 223.039 66.464C223.162 66.7426 223.081 67.0695 222.837 67.2533L193.603 89.3998C193.489 89.4871 193.35 89.5323 193.209 89.5323ZM188.121 74.17L193.501 87.8378L219.788 67.9221L188.121 74.17Z" fill="black"/>
<path d="M195.209 94.6251C195.164 94.6251 195.119 94.6206 195.077 94.6115C194.86 94.5663 194.682 94.4157 194.601 94.2109L192.6 89.1182C192.495 88.8456 192.582 88.5353 192.814 88.3576L222.048 66.2111C222.322 66.0032 222.707 66.0454 222.936 66.303C223.159 66.562 223.147 66.9507 222.903 67.1947L207.554 82.5479L195.67 94.4338C195.547 94.5573 195.381 94.6251 195.209 94.6251ZM193.998 89.1001L195.453 92.804L215.257 72.9967L193.998 89.1001Z" fill="black"/>
<path d="M222.442 241.598C222.352 241.598 222.261 241.58 222.177 241.541L173.046 219.676C172.726 219.534 172.576 219.168 172.702 218.845C172.826 218.521 173.175 218.35 173.516 218.459L201.628 227.712L205.515 219.272C205.611 219.063 205.807 218.92 206.036 218.896C206.268 218.87 206.488 218.967 206.626 219.149L222.96 240.548C223.144 240.785 223.141 241.114 222.954 241.349C222.828 241.511 222.638 241.598 222.442 241.598ZM185.418 223.752L220.369 239.307L206.247 220.804L202.571 228.787C202.433 229.092 202.098 229.241 201.773 229.135L185.418 223.752Z" fill="black"/>
<path d="M129.952 178.263H129.931C129.623 178.252 129.364 178.029 129.31 177.727L127.638 168.54C127.608 168.376 127.641 168.207 127.732 168.069L128.424 166.996C128.569 166.769 128.843 166.647 129.108 166.711C129.376 166.767 129.578 166.983 129.617 167.251L130.964 176.055C130.979 176.142 130.973 176.229 130.952 176.314L130.584 177.769C130.512 178.06 130.25 178.263 129.952 178.263Z" fill="black"/>
<path d="M230.007 193.386C229.998 193.386 229.986 193.386 229.974 193.384C229.766 193.375 229.573 193.264 229.458 193.088L222.689 182.67C222.569 182.484 222.551 182.246 222.644 182.042L243.575 136.556C243.653 136.386 243.798 136.258 243.979 136.204C244.153 136.15 244.346 136.177 244.509 136.27L264.967 148.704C265.127 148.802 265.238 148.963 265.271 149.149C265.301 149.334 265.256 149.524 265.139 149.67L230.519 193.14C230.392 193.295 230.206 193.386 230.007 193.386ZM223.982 182.261L230.061 191.616L263.653 149.436L244.455 137.769L223.982 182.261Z" fill="black"/>
<path d="M214.567 212.779C214.417 212.779 214.266 212.726 214.149 212.628L210.497 209.59C210.271 209.4 210.199 209.082 210.323 208.813L214.037 200.759C214.188 200.432 214.576 200.29 214.896 200.436L221.37 203.321C221.556 203.402 221.692 203.567 221.74 203.762C221.788 203.958 221.743 204.166 221.617 204.324L215.079 212.532C214.968 212.67 214.808 212.758 214.634 212.776C214.612 212.777 214.588 212.779 214.567 212.779ZM211.72 208.905L214.471 211.196L220.068 204.171L214.953 201.893L211.72 208.905Z" fill="black"/>
<path d="M59.1368 178.905C59.0555 178.905 58.9742 178.89 58.8988 178.859L0.416946 156.017C0.0885674 155.889 -0.0801111 155.523 0.0403817 155.19C0.157882 154.856 0.516374 154.679 0.85376 154.786L60.4533 173.914C60.7937 174.023 60.9835 174.384 60.8811 174.725L59.7634 178.439C59.7092 178.614 59.5857 178.758 59.423 178.838C59.3326 178.882 59.2362 178.905 59.1368 178.905ZM21.143 162.706L58.7151 177.385L59.4441 174.963L20.6279 162.504L21.143 162.706Z" fill="black"/>
<path d="M201.978 229.168C201.912 229.168 201.842 229.158 201.773 229.135L153.727 213.323C153.522 213.255 153.362 213.089 153.302 212.881C153.245 212.672 153.293 212.447 153.431 212.282L156.841 208.216C157.028 207.993 157.348 207.92 157.607 208.04L202.243 227.918C202.562 228.06 202.713 228.426 202.586 228.75C202.487 229.009 202.24 229.168 201.978 229.168ZM155.052 212.383L189.901 223.851L157.525 209.433L155.052 212.383Z" fill="black"/>
<path d="M123.578 203.365C123.508 203.365 123.439 203.354 123.373 203.332L111.727 199.503L109.06 198.457C108.877 198.385 108.735 198.236 108.678 198.049C108.618 197.862 108.642 197.659 108.75 197.495L112.802 191.224C112.965 190.976 113.269 190.87 113.549 190.956L125.617 194.83C125.946 194.936 126.135 195.279 126.051 195.614L124.21 202.872C124.165 203.047 124.051 203.196 123.891 203.283C123.795 203.338 123.686 203.365 123.578 203.365ZM110.281 197.532L112.169 198.274L123.117 201.872L124.635 195.886L113.627 192.354L110.281 197.532Z" fill="black"/>
<path d="M223.237 182.968C223.017 182.968 222.809 182.857 222.689 182.67L193.205 137.296C193.1 137.132 193.073 136.928 193.13 136.741L201.285 111.207L200.441 109.047C200.372 108.873 200.384 108.678 200.468 108.511C200.553 108.346 200.706 108.224 200.887 108.177L264.463 91.7466C264.704 91.6818 264.966 91.7662 265.126 91.9605C265.289 92.1533 265.325 92.4229 265.219 92.6519L223.83 182.587C223.731 182.804 223.523 182.949 223.285 182.967C223.267 182.967 223.252 182.968 223.237 182.968ZM194.47 136.844L223.138 180.965L263.457 93.3568L241.972 98.9103L201.926 109.258L202.586 110.947C202.64 111.087 202.646 111.241 202.601 111.384L194.47 136.844Z" fill="black"/>
<path d="M201.978 229.168C201.888 229.168 201.797 229.15 201.713 229.111L157.077 209.233C156.89 209.15 156.751 208.983 156.706 208.783C156.658 208.584 156.709 208.373 156.842 208.216L177.077 184.121C177.26 183.895 177.58 183.826 177.842 183.945L214.896 200.437C215.055 200.507 215.182 200.64 215.242 200.803C215.302 200.967 215.296 201.148 215.224 201.307L202.572 228.787C202.463 229.027 202.225 229.168 201.978 229.168ZM158.399 208.393L201.656 227.655L213.76 201.361L177.761 185.338L158.399 208.393Z" fill="black"/>
<path d="M170.376 31.5219C170.114 31.5219 169.867 31.3623 169.768 31.1077L159.14 4.07793C159.073 3.91224 159.079 3.72546 159.155 3.56431C159.23 3.40315 159.369 3.27813 159.537 3.22087L167.06 0.621087C167.246 0.551802 167.454 0.578916 167.623 0.687347C167.792 0.794298 167.903 0.972045 167.924 1.17086L171.027 30.8004C171.06 31.1258 170.849 31.4255 170.53 31.5023C170.479 31.5159 170.428 31.5219 170.376 31.5219ZM160.607 4.2346L169.226 26.1552L166.71 2.12586L160.607 4.2346Z" fill="black"/>
<path d="M115.811 81.8746C115.775 81.8746 115.739 81.8716 115.703 81.8656C115.422 81.8174 115.209 81.5975 115.166 81.3188L108.97 40.7523L106.141 22.2314C106.093 21.9181 106.273 21.6168 106.572 21.5144L155.941 4.46207C156.188 4.37773 156.477 4.44853 156.652 4.65487C156.826 4.85822 156.857 5.14893 156.733 5.38542L116.389 81.5267C116.275 81.7436 116.049 81.8746 115.811 81.8746ZM110.259 40.555L116.16 79.1679L154.802 6.23796L107.515 22.5718L110.259 40.555Z" fill="black"/>
<path d="M130.319 176.808C130.31 176.808 130.298 176.808 130.289 176.806C129.976 176.791 129.72 176.561 129.674 176.254L128.328 167.45C128.304 167.291 128.337 167.13 128.424 166.996L130.65 163.547C130.825 163.271 131.169 163.167 131.467 163.304L133.467 164.199C133.756 164.329 133.91 164.648 133.832 164.957L130.952 176.315C130.879 176.606 130.617 176.808 130.319 176.808ZM129.656 167.496L130.479 172.869L132.431 165.168L131.443 164.726L129.656 167.496Z" fill="black"/>
<path d="M60.2545 175.19C60.1882 175.19 60.1189 175.18 60.0556 175.159L0.456095 156.031C0.169917 155.939 -0.0168715 155.666 0.00120553 155.368C0.0223057 155.07 0.239183 154.823 0.531408 154.767L69.3161 141.684C69.4306 141.667 69.536 141.671 69.6415 141.705L70.0662 141.843C70.4036 141.953 70.5934 142.312 70.491 142.652L60.8811 174.725C60.8299 174.892 60.7154 175.034 60.5587 175.115C60.4654 175.165 60.3599 175.19 60.2545 175.19ZM3.29991 155.571L59.8207 173.711L68.9998 143.074L3.29991 155.571Z" fill="black"/>
<path d="M125.418 196.106C125.352 196.106 125.282 196.095 125.219 196.074L113.151 192.2C112.955 192.139 112.802 191.989 112.735 191.798C112.666 191.607 112.69 191.394 112.802 191.224L127.732 168.069C127.876 167.843 128.147 167.733 128.406 167.781C128.672 167.834 128.873 168.041 128.922 168.305L130.594 177.492C130.612 177.585 130.609 177.68 130.585 177.77L126.051 195.613C126.009 195.788 125.891 195.937 125.734 196.025C125.638 196.079 125.527 196.106 125.418 196.106ZM114.362 191.217L124.957 194.618L129.283 177.587L127.934 170.167L114.362 191.217Z" fill="black"/>
<path d="M88.2527 79.7809C88.1713 79.7809 88.09 79.7658 88.0117 79.7342L50.5993 64.8554C50.301 64.7364 50.1324 64.4186 50.2016 64.1053C50.2739 63.7905 50.5692 63.554 50.8825 63.5962L86.3759 65.9264C86.6832 65.946 86.9332 66.1764 86.9784 66.4792L88.8974 79.0278C88.9335 79.2598 88.8431 79.4932 88.6594 79.6393C88.5419 79.7327 88.3973 79.7809 88.2527 79.7809ZM54.9253 65.1702L87.4333 78.0984L85.7674 67.1961L54.9253 65.1702Z" fill="black"/>
<path d="M72.1299 256.139C71.8618 256.139 71.6208 255.975 71.5214 255.725L51.0092 203.595C50.955 203.458 50.9489 203.309 50.9911 203.169L69.2379 142.275C69.2891 142.108 69.4036 141.967 69.5602 141.885C69.7109 141.804 69.9006 141.786 70.0633 141.842L98.6943 151.031C99.0226 151.137 99.2124 151.48 99.1281 151.815L72.7625 255.647C72.6933 255.921 72.4553 256.12 72.1721 256.138C72.157 256.139 72.1419 256.139 72.1299 256.139ZM52.3076 203.327L71.9974 253.359L97.7122 152.087L70.2983 143.289L52.3076 203.327Z" fill="black"/>
<path d="M243.858 214.698C243.768 214.698 243.677 214.68 243.593 214.641L177.312 185.138C177.125 185.055 176.986 184.887 176.941 184.689C176.893 184.488 176.944 184.277 177.077 184.121L178.565 182.348L193.13 136.742C193.209 136.501 193.417 136.326 193.667 136.293C193.914 136.249 194.164 136.371 194.302 136.585L244.406 213.689C244.563 213.931 244.542 214.249 244.355 214.469C244.229 214.618 244.045 214.698 243.858 214.698ZM178.634 184.297L242.108 212.548L229.458 193.088L193.956 138.453L179.773 182.868C179.746 182.949 179.704 183.024 179.649 183.089L178.634 184.297Z" fill="black"/>
<path d="M111.931 89.201C111.849 89.201 111.768 89.186 111.69 89.1543L88.0113 79.7342C87.7944 79.6483 87.6407 79.4555 87.6076 79.2266L85.6886 66.678C85.6494 66.4339 85.7519 66.1914 85.9507 66.0483C86.1525 65.9052 86.4146 65.8842 86.6315 65.9971L115.877 81.0838C116.031 81.1651 116.148 81.3037 116.199 81.4694C116.251 81.6366 116.235 81.8173 116.154 81.971L112.509 88.8531C112.392 89.073 112.166 89.201 111.931 89.201ZM88.8427 78.6587L111.626 87.7234L114.69 81.9424L87.1738 67.7474L88.8427 78.6587Z" fill="black"/>
<path d="M133.199 165.449C133.109 165.449 133.018 165.43 132.931 165.392L130.931 164.497C130.759 164.419 130.627 164.27 130.572 164.088C130.518 163.905 130.545 163.71 130.648 163.548L131.575 162.098C131.738 161.849 132.048 161.741 132.329 161.828L133.871 162.325C134.199 162.431 134.386 162.774 134.302 163.109L133.832 164.957C133.784 165.144 133.657 165.3 133.482 165.385C133.395 165.427 133.296 165.449 133.199 165.449ZM132.157 163.615L132.756 163.881L132.886 163.381L132.407 163.228L132.157 163.615Z" fill="black"/>
<path d="M72.1298 256.139C72.0424 256.139 71.9521 256.121 71.8677 256.085C71.5755 255.957 71.4189 255.635 71.4972 255.325L97.8627 151.492C97.9049 151.318 98.0224 151.168 98.179 151.081C98.3356 150.994 98.5285 150.974 98.6941 151.031L132.326 161.828C132.519 161.89 132.672 162.038 132.742 162.229C132.811 162.42 132.787 162.631 132.678 162.803L128.828 168.777L84.2793 237.858L72.6781 255.84C72.5546 256.031 72.3467 256.139 72.1298 256.139ZM98.9562 152.488L73.7475 251.773L131.118 162.813L98.9562 152.488Z" fill="black"/>
<path d="M133.669 163.601C133.6 163.601 133.531 163.59 133.464 163.568C133.259 163.5 133.103 163.337 133.043 163.131L111.304 88.7311C111.256 88.5669 111.274 88.3922 111.352 88.2415L115.233 80.9151L157.914 0.356006C158.034 0.128563 158.263 -0.0431378 158.528 0.00958163C158.781 0.023124 159.007 0.184306 159.101 0.420788L202.586 110.947C202.692 111.219 202.604 111.53 202.372 111.706L134.064 163.468C133.949 163.556 133.811 163.601 133.669 163.601ZM112.633 88.6181L134.031 161.854L201.189 110.962L185.87 72.0252L158.405 2.22222L156.733 5.38536L112.633 88.6181Z" fill="black"/>
<path d="M133.669 163.601C133.603 163.601 133.534 163.59 133.468 163.569L43.8935 134.818L0.456104 120.873C0.278357 120.816 0.13074 120.686 0.0554395 120.515C-0.0198607 120.343 -0.0168588 120.147 0.0614646 119.978L29.6082 55.7682C29.7528 55.4488 30.1263 55.3057 30.4426 55.4338L112.172 87.9403C112.359 88.0141 112.5 88.1707 112.558 88.3635L134.296 162.764C134.365 162.997 134.299 163.247 134.124 163.416C134.001 163.536 133.838 163.601 133.669 163.601ZM44.2912 133.571L45.9902 134.11L132.696 161.947L111.392 89.0368L30.536 56.8768L1.55567 119.853L44.2912 133.571Z" fill="black"/>
<path d="M106.785 269.506C106.683 269.506 106.583 269.482 106.487 269.434C106.216 269.295 106.077 268.986 106.153 268.691L133.036 162.786C133.072 162.643 133.157 162.517 133.274 162.426L201.583 110.664C201.812 110.49 202.125 110.486 202.354 110.652C202.589 110.816 202.686 111.113 202.601 111.384L179.772 182.868C179.745 182.949 179.703 183.024 179.649 183.089L116.802 257.942L107.285 269.272C107.159 269.425 106.972 269.506 106.785 269.506ZM134.247 163.33L108.123 266.242L178.564 182.346L200.727 112.952L134.247 163.33Z" fill="black"/>
</svg>
