<svg width="275" height="272" viewBox="0 0 275 272" fill="none" xmlns="http://www.w3.org/2000/svg">
<path d="M274.067 129.014C273.811 129.014 273.573 128.857 273.477 128.607L247.073 58.7335C246.951 58.4107 247.111 58.0502 247.434 57.9222C247.742 57.8001 248.111 57.9484 248.248 58.2712L254.23 72.8715C254.232 72.8773 254.235 72.8832 254.235 72.8919L274.657 128.165C274.779 128.49 274.614 128.851 274.288 128.973C274.215 129.002 274.14 129.014 274.067 129.014Z" fill="black"/>
<path d="M253.644 73.7409C253.467 73.7409 253.29 73.6653 253.168 73.5229L201.722 13.9786C201.501 13.7227 201.521 13.336 201.768 13.1062C202.015 12.8736 202.399 12.8794 202.643 13.1179L248.108 58.0618C248.166 58.1199 248.215 58.1926 248.247 58.2711L254.229 72.8715C254.345 73.1565 254.238 73.4851 253.976 73.6479C253.871 73.709 253.758 73.7409 253.644 73.7409ZM213.164 25.2931L251.597 69.7746L247.128 58.8672L213.164 25.2931Z" fill="black"/>
<path d="M65.477 21.4082C65.1978 21.4082 64.9448 21.2221 64.8692 20.9459C64.7791 20.6202 64.9594 20.2858 65.2763 20.1782L125.771 0.0325443C125.917 -0.0139666 126.068 -0.0110894 126.202 0.0441758L137.583 4.48448C137.842 4.58626 138.005 4.84504 137.982 5.1213C137.961 5.39754 137.761 5.63018 137.487 5.68833L65.6107 21.3937C65.5671 21.4024 65.5206 21.4082 65.477 21.4082ZM125.955 1.30328L76.9223 17.6309L135.181 4.9003L125.955 1.30328Z" fill="black"/>
<path d="M202.199 14.1966C202.173 14.1966 202.144 14.1937 202.118 14.1908L137.272 5.69695L125.743 1.21885C125.44 1.10254 125.277 0.773969 125.365 0.462805C125.449 0.15167 125.76 -0.0431686 126.077 0.00917846L202.304 12.9433C202.644 13.0015 202.874 13.3185 202.824 13.6587C202.775 13.9727 202.507 14.1966 202.199 14.1966ZM131.945 2.28603L137.583 4.48438L169.462 8.65134L131.945 2.28603Z" fill="black"/>
<path d="M148.729 271.193C148.485 271.193 148.252 271.048 148.15 270.812C148.02 270.513 148.142 270.161 148.43 270.007L220.306 231.385C220.562 231.254 220.87 231.3 221.065 231.507C221.26 231.716 221.292 232.027 221.144 232.272L209.762 250.745C209.684 250.87 209.564 250.966 209.425 251.013L148.93 271.161C148.863 271.182 148.796 271.193 148.729 271.193ZM218.838 233.606L155.49 267.646L208.808 249.888L218.838 233.606Z" fill="black"/>
<path d="M209.224 251.045C209.084 251.045 208.948 250.998 208.831 250.908C208.581 250.71 208.52 250.356 208.686 250.082L220.067 231.609C220.105 231.548 220.155 231.495 220.21 231.449L259.242 199.925C259.504 199.712 259.882 199.747 260.109 199.994C260.333 200.244 260.321 200.628 260.083 200.864L209.669 250.862C209.547 250.984 209.384 251.045 209.224 251.045ZM221.085 232.362L212.536 246.241L250.408 208.68L221.085 232.362Z" fill="black"/>
<path d="M260.682 157.153C260.644 157.153 260.606 157.15 260.568 157.141C260.289 157.092 260.077 156.859 260.054 156.574L253.017 73.1623C252.99 72.8482 253.2 72.5633 253.508 72.4935C253.837 72.4324 254.127 72.5952 254.235 72.8919L274.657 128.164C274.718 128.324 274.709 128.499 274.637 128.653L261.252 156.792C261.144 157.016 260.923 157.153 260.682 157.153ZM254.665 77.6899L261.115 154.143L273.383 128.351L254.665 77.6899Z" fill="black"/>
<path d="M259.638 201.047C259.615 201.047 259.592 201.047 259.568 201.044C259.243 201.006 258.998 200.727 259.007 200.402L260.051 156.507C260.054 156.417 260.074 156.33 260.112 156.252L273.497 128.112C273.636 127.821 273.974 127.688 274.265 127.784C274.567 127.885 274.747 128.194 274.686 128.508L260.257 200.541C260.196 200.838 259.935 201.047 259.638 201.047ZM261.31 156.67L260.441 193.196L272.447 133.256L261.31 156.67Z" fill="black"/>
<path d="M220.605 232.571C220.463 232.571 220.32 232.522 220.204 232.426C219.971 232.237 219.907 231.908 220.047 231.644L260.123 156.225C260.263 155.969 260.562 155.836 260.841 155.911C261.124 155.987 261.318 156.246 261.313 156.536L260.269 200.431C260.263 200.617 260.178 200.791 260.033 200.908L221.001 232.432C220.887 232.525 220.745 232.571 220.605 232.571ZM259.987 159.171L222.612 229.509L259.015 200.108L259.987 159.171Z" fill="black"/>
<path d="M0.63166 143.439C0.558976 143.439 0.486275 143.428 0.416479 143.402C0.122793 143.294 -0.0487855 142.989 0.0122861 142.683L14.4527 70.6498C14.4963 70.4347 14.6505 70.2572 14.8569 70.1816C15.0605 70.1031 15.296 70.1468 15.4676 70.2835L32.8362 84.2848C33.0747 84.4767 33.1416 84.8111 32.9932 85.0787L1.18415 143.111C1.07074 143.317 0.85558 143.439 0.63166 143.439ZM15.485 71.9177L2.05942 138.889L31.6324 84.9362L15.485 71.9177Z" fill="black"/>
<path d="M32.4408 85.4073C32.2983 85.4073 32.1587 85.3579 32.0453 85.2677L14.6767 71.2664C14.5371 71.1529 14.4527 70.9872 14.4411 70.8069C14.4324 70.6295 14.4993 70.4522 14.6272 70.3271L65.0321 20.3293C65.2502 20.1083 65.6021 20.0851 65.8492 20.2683C66.0993 20.4514 66.1807 20.7917 66.0382 21.0679L33.002 85.067C32.9148 85.2328 32.7577 85.3549 32.5716 85.3927C32.528 85.4014 32.4844 85.4073 32.4408 85.4073ZM16.0172 70.7255L32.2343 83.7992L63.0809 24.0398L16.0172 70.7255Z" fill="black"/>
<path d="M72.5137 258.253C72.348 258.253 72.1881 258.189 72.0717 258.07L26.5957 213.129C26.3747 212.914 26.3456 212.574 26.5201 212.321C26.6975 212.068 27.0232 211.986 27.3052 212.109L84.1655 238.576C84.3284 238.652 84.4505 238.794 84.5029 238.969C84.5552 239.14 84.529 239.326 84.436 239.48L73.0517 257.954C72.9499 258.117 72.7813 258.224 72.5893 258.248C72.5632 258.251 72.5399 258.253 72.5137 258.253ZM30.0648 214.787L72.3916 256.616L82.9879 239.422L30.0648 214.787Z" fill="black"/>
<path d="M148.729 271.193C148.694 271.193 148.659 271.19 148.624 271.185L72.4094 258.245C72.2029 258.21 72.0255 258.073 71.9383 257.881C71.854 257.692 71.8656 257.471 71.9761 257.291L83.3604 238.817C83.5291 238.541 83.878 238.436 84.1746 238.582L149.005 269.995C149.287 270.132 149.427 270.455 149.331 270.754C149.244 271.019 149 271.193 148.729 271.193ZM73.5406 257.157L144.469 269.199L84.1368 239.966L73.5406 257.157Z" fill="black"/>
<path d="M253.645 73.7409C253.552 73.7409 253.459 73.7206 253.368 73.677L188.538 42.2721C188.227 42.1209 188.096 41.7457 188.244 41.4346L201.629 13.2952C201.722 13.1033 201.902 12.9695 202.115 12.9405C202.327 12.923 202.539 12.9928 202.676 13.1528L254.122 72.697C254.316 72.9238 254.328 73.2553 254.145 73.4938C254.023 73.6537 253.837 73.7409 253.645 73.7409ZM189.651 41.4113L251.17 71.2111L202.353 14.7085L189.651 41.4113Z" fill="black"/>
<path d="M188.814 42.336C188.683 42.336 188.555 42.2953 188.447 42.2197L136.987 5.58653C136.751 5.41788 136.661 5.10963 136.766 4.84212C136.87 4.57461 137.164 4.42628 137.435 4.44665L202.28 12.9405C202.481 12.9667 202.655 13.0859 202.754 13.2633C202.85 13.4407 202.856 13.6529 202.768 13.8361L189.384 41.9755C189.302 42.1442 189.154 42.2692 188.974 42.3157C188.921 42.3303 188.866 42.336 188.814 42.336ZM139.781 6.02557L188.566 40.7542L201.256 14.0775L139.781 6.02557Z" fill="black"/>
<path d="M39.4783 168.816C39.3591 168.816 39.2369 168.782 39.1323 168.715L0.28613 143.338C0.00989385 143.157 -0.0802573 142.794 0.0796723 142.506L31.8888 84.4739C32.0225 84.2297 32.3104 84.1046 32.5721 84.1599C32.8455 84.218 33.0461 84.4448 33.0694 84.724L40.1064 168.133C40.1268 168.372 40.0075 168.604 39.8011 168.726C39.7022 168.787 39.5888 168.816 39.4783 168.816ZM1.46672 142.599L38.7397 166.95L31.9876 86.9136L1.46672 142.599Z" fill="black"/>
<path d="M27.0378 213.312C26.7761 213.312 26.5405 213.15 26.4475 212.905L0.0412109 143.032C-0.0547588 142.776 0.0237609 142.489 0.236038 142.317C0.451232 142.143 0.744928 142.134 0.977542 142.279L39.8237 167.656C40.0534 167.807 40.1581 168.089 40.0854 168.354L27.6455 212.85C27.5729 213.115 27.3373 213.301 27.0669 213.312H27.0378ZM1.90515 144.393L26.9476 210.661L38.7448 168.462L1.90515 144.393Z" fill="black"/>
<path d="M83.8982 239.78C83.8081 239.78 83.7179 239.759 83.6307 239.722L26.7703 213.254C26.4912 213.123 26.3458 212.809 26.4301 212.513L38.87 168.017C38.9368 167.775 39.1404 167.598 39.3876 167.56C39.6318 167.543 39.8819 167.642 40.0127 167.851L84.4332 238.814C84.5815 239.05 84.5554 239.358 84.3722 239.568C84.2471 239.704 84.0756 239.78 83.8982 239.78ZM27.791 212.335L82.232 237.677L39.7016 169.729L27.791 212.335Z" fill="black"/>
<path d="M148.729 271.193C148.595 271.193 148.459 271.15 148.348 271.065C148.15 270.917 148.06 270.667 148.113 270.426L156.106 234.549C156.17 234.269 156.412 234.066 156.697 234.054L220.579 231.309C220.827 231.283 221.135 231.489 221.213 231.774C221.292 232.056 221.164 232.356 220.905 232.496L149.029 271.118C148.933 271.167 148.831 271.193 148.729 271.193ZM157.235 235.296L149.645 269.356L217.881 232.687L157.235 235.296Z" fill="black"/>
<path d="M148.729 271.193C148.636 271.193 148.54 271.173 148.453 271.129L83.6222 239.716C83.3663 239.591 83.2238 239.309 83.2791 239.027C83.3344 238.745 83.5728 238.538 83.8607 238.518L156.685 234.054C156.886 234.054 157.078 234.127 157.203 234.275C157.331 234.426 157.383 234.63 157.339 234.822L149.346 270.699C149.302 270.888 149.177 271.045 149.003 271.129C148.918 271.173 148.822 271.193 148.729 271.193ZM86.3411 239.632L148.287 269.646L155.926 235.366L86.3411 239.632Z" fill="black"/>
<path d="M104.317 46.7909C104.082 46.7909 103.864 46.66 103.756 46.4478C103.643 46.2268 103.669 45.9592 103.826 45.7644L136.862 4.67634C137.074 4.41463 137.452 4.36521 137.72 4.55712L189.18 41.1903C189.398 41.3474 189.494 41.6236 189.419 41.8824C189.346 42.1383 189.116 42.3215 188.846 42.336L104.349 46.7908L104.317 46.7909ZM137.473 5.92963L105.693 45.4562L186.976 41.17L137.473 5.92963Z" fill="black"/>
<path d="M32.4404 85.4073C32.2775 85.4073 32.1176 85.3462 31.9984 85.227C31.8006 85.0322 31.7541 84.7326 31.8791 84.4855L64.9154 20.4864C64.9968 20.3294 65.1422 20.213 65.3166 20.1665C65.4911 20.1171 65.6743 20.152 65.8226 20.2479L104.663 45.6307C104.849 45.7528 104.957 45.9651 104.948 46.1861C104.936 46.41 104.811 46.6106 104.616 46.7152L32.7399 85.3316C32.6439 85.3811 32.5421 85.4073 32.4404 85.4073ZM65.7179 21.6873L33.935 83.2584L103.084 46.1075L65.7179 21.6873Z" fill="black"/>
<path d="M104.317 46.7909C104.198 46.7909 104.079 46.756 103.971 46.6891L65.1308 21.3064C64.9186 21.1668 64.811 20.9138 64.8575 20.6638C64.9011 20.4137 65.093 20.216 65.3431 20.1607L137.22 4.45536C137.481 4.40301 137.749 4.51352 137.888 4.74033C138.031 4.96713 138.013 5.25793 137.845 5.46729L104.809 46.5554C104.684 46.7095 104.503 46.7909 104.317 46.7909ZM67.082 21.0709L104.183 45.3195L135.742 6.06917L67.082 21.0709Z" fill="black"/>
<path d="M260.682 157.153C260.481 157.153 260.289 157.057 260.167 156.888L224.38 106.742C224.211 106.507 224.226 106.184 224.418 105.963L253.168 72.697C253.334 72.508 253.595 72.4324 253.84 72.5109C254.081 72.5895 254.252 72.8046 254.273 73.0576L261.31 156.47C261.333 156.752 261.167 157.016 260.9 157.115C260.827 157.141 260.754 157.153 260.682 157.153ZM225.697 106.414L259.859 154.286L253.142 74.6569L225.697 106.414Z" fill="black"/>
<path d="M224.895 107.007C224.875 107.007 224.851 107.007 224.831 107.004C224.627 106.984 224.444 106.864 224.345 106.684L188.265 42.0133C188.128 41.7719 188.166 41.4724 188.355 41.2718C188.544 41.074 188.838 41.0159 189.091 41.1381L253.921 72.543C254.096 72.6273 254.224 72.7901 254.261 72.982C254.302 73.174 254.25 73.3746 254.122 73.5229L225.372 106.789C225.253 106.928 225.078 107.007 224.895 107.007ZM190.341 43.1444L225.006 105.283L252.63 73.3193L190.341 43.1444Z" fill="black"/>
<path d="M220.605 232.571C220.591 232.571 220.576 232.571 220.562 232.568C220.315 232.554 220.099 232.391 220.015 232.158L199.596 176.88C199.535 176.72 199.544 176.543 199.616 176.388C199.692 176.234 199.826 176.118 199.986 176.063L260.481 155.923C260.731 155.844 260.999 155.917 261.164 156.115C261.33 156.312 261.359 156.589 261.24 156.818L221.164 232.237C221.053 232.443 220.838 232.571 220.605 232.571ZM201.004 177.054L220.71 230.402L259.385 157.618L201.004 177.054Z" fill="black"/>
<path d="M156.723 235.316C156.49 235.316 156.275 235.188 156.165 234.979C156.051 234.764 156.072 234.502 156.217 234.307L199.681 176.284C199.82 176.101 200.044 176.008 200.277 176.037C200.507 176.072 200.698 176.226 200.777 176.444L221.196 231.722C221.269 231.911 221.242 232.121 221.132 232.289C221.019 232.458 220.835 232.563 220.632 232.571L156.749 235.316H156.723ZM199.998 177.967L158.026 233.999L219.713 231.347L199.998 177.967Z" fill="black"/>
<path d="M200.187 177.293C200.021 177.293 199.858 177.226 199.736 177.104C199.567 176.932 199.512 176.679 199.591 176.452L224.299 106.166C224.377 105.945 224.572 105.786 224.808 105.751C225.032 105.73 225.273 105.818 225.41 106.009L261.197 156.156C261.313 156.318 261.345 156.528 261.281 156.717C261.22 156.909 261.072 157.057 260.883 157.121L200.387 177.261C200.321 177.281 200.254 177.293 200.187 177.293ZM225.087 107.731L201.207 175.656L259.673 156.193L225.087 107.731Z" fill="black"/>
<path d="M39.478 168.816C39.4198 168.816 39.3588 168.808 39.3006 168.79C39.0505 168.717 38.8703 168.497 38.8499 168.238L31.8129 84.8286C31.7925 84.5931 31.9059 84.3663 32.1066 84.2412C32.3072 84.1133 32.5602 84.1103 32.7666 84.2354L81.4675 113.419C81.6245 113.512 81.7321 113.666 81.7641 113.84C81.799 114.018 81.7554 114.201 81.6449 114.343L39.9781 168.569C39.856 168.729 39.6699 168.816 39.478 168.816ZM33.1737 85.951L39.9694 166.51L80.2142 114.137L33.1737 85.951Z" fill="black"/>
<path d="M81.1448 114.591C81.0313 114.591 80.9209 114.561 80.8191 114.5L32.1182 85.3172C31.9234 85.2009 31.8042 84.9886 31.81 84.7618C31.8158 84.535 31.9437 84.3285 32.1415 84.2209L104.018 45.6045C104.251 45.4853 104.527 45.5144 104.725 45.6802C104.922 45.8459 104.998 46.1192 104.914 46.3635L81.7409 114.163C81.6798 114.343 81.5402 114.486 81.3628 114.553C81.2902 114.579 81.2174 114.591 81.1448 114.591ZM33.7175 84.8054L80.7987 113.017L103.201 47.4772L33.7175 84.8054Z" fill="black"/>
<path d="M156.723 235.316C156.528 235.316 156.342 235.226 156.223 235.069L115.201 181.5C115.059 181.314 115.03 181.064 115.129 180.852C115.228 180.64 115.434 180.5 115.67 180.486L200.155 176.031C200.335 176.019 200.629 176.15 200.742 176.365C200.858 176.58 200.838 176.845 200.693 177.04L157.229 235.063C157.11 235.22 156.921 235.316 156.723 235.316ZM116.932 181.684L156.717 233.641L198.872 177.363L116.932 181.684Z" fill="black"/>
<path d="M83.8982 239.78C83.683 239.78 83.4824 239.669 83.366 239.486C83.241 239.291 83.2352 239.047 83.3457 238.846L115.149 180.814C115.251 180.625 115.44 180.503 115.655 180.489C115.864 180.433 116.074 180.564 116.202 180.733L157.223 234.301C157.365 234.488 157.394 234.735 157.296 234.947C157.2 235.159 156.993 235.302 156.76 235.316L83.936 239.78H83.8982ZM115.789 182.268L85.0003 238.448L155.501 234.127L115.789 182.268Z" fill="black"/>
<path d="M83.8981 239.78C83.68 239.78 83.4794 239.669 83.363 239.483L38.9425 168.52C38.8117 168.31 38.8146 168.04 38.9542 167.833C39.0908 167.63 39.3409 167.522 39.5823 167.563L115.806 180.494C116.007 180.529 116.181 180.657 116.268 180.84C116.359 181.026 116.353 181.242 116.254 181.419L84.4506 239.451C84.343 239.649 84.1394 239.774 83.9155 239.78H83.8981ZM40.757 169.043L83.8632 237.901L114.721 181.591L40.757 169.043Z" fill="black"/>
<path d="M115.702 181.748C115.667 181.748 115.632 181.745 115.597 181.739L39.3731 168.808C39.155 168.77 38.9718 168.622 38.8904 168.415C38.809 168.209 38.8439 167.976 38.9776 167.802L80.6444 113.576C80.7752 113.404 80.9933 113.297 81.1998 113.331C81.415 113.352 81.6069 113.48 81.7057 113.672L116.263 180.829C116.37 181.041 116.353 181.297 116.21 181.489C116.091 181.652 115.899 181.748 115.702 181.748ZM40.6177 167.738L114.565 180.285L81.0398 115.131L40.6177 167.738Z" fill="black"/>
<path d="M115.702 181.748C115.466 181.745 115.248 181.614 115.141 181.404L80.5837 114.247C80.4878 114.064 80.4907 113.843 80.5896 113.66C80.6884 113.477 80.8687 113.355 81.0752 113.331L155.708 105.07C155.938 105.053 156.171 105.152 156.302 105.344C156.432 105.538 156.444 105.789 156.336 105.995L116.26 181.413C116.15 181.62 115.935 181.748 115.702 181.748ZM82.1249 114.486L115.711 179.756L154.662 106.457L82.1249 114.486Z" fill="black"/>
<path d="M115.701 181.748C115.486 181.748 115.286 181.637 115.169 181.457C115.047 181.265 115.038 181.021 115.143 180.82L155.219 105.402C155.327 105.204 155.53 105.076 155.754 105.067C156.001 105.096 156.193 105.172 156.313 105.364L200.721 176.327C200.841 176.516 200.849 176.755 200.745 176.953C200.643 177.15 200.442 177.281 200.218 177.293L115.733 181.748H115.701ZM155.821 106.957L116.78 180.427L199.084 176.089L155.821 106.957Z" fill="black"/>
<path d="M200.186 177.293C199.971 177.293 199.768 177.182 199.651 176.996L155.243 106.033C155.12 105.838 155.115 105.591 155.228 105.39C155.341 105.187 155.589 105.134 155.783 105.067L224.9 105.745C225.104 105.748 225.293 105.847 225.412 106.012C225.528 106.181 225.558 106.393 225.491 106.585L200.783 176.871C200.701 177.101 200.498 177.261 200.256 177.29C200.233 177.29 200.21 177.293 200.186 177.293ZM156.923 106.341L200.027 175.217L224.008 106.998L156.923 106.341Z" fill="black"/>
<path d="M224.895 107.007H224.889L155.772 106.329C155.554 106.326 155.35 106.21 155.237 106.024C155.123 105.835 155.118 105.602 155.217 105.408L188.253 41.4143C188.36 41.2078 188.573 41.077 188.802 41.074H188.814C189.044 41.074 189.253 41.1991 189.364 41.3968L225.444 106.068C225.555 106.265 225.552 106.504 225.438 106.699C225.322 106.891 225.119 107.007 224.895 107.007ZM156.807 105.079L223.816 105.733L188.834 43.0397L156.807 105.079Z" fill="black"/>
<path d="M155.778 106.329C155.594 106.329 155.42 106.251 155.301 106.111L103.84 46.5728C103.683 46.3896 103.643 46.1337 103.736 45.9127C103.832 45.6917 104.044 45.5434 104.285 45.5289L188.782 41.074C188.953 41.0886 189.221 41.1729 189.343 41.3619C189.465 41.5538 189.477 41.7923 189.375 41.9958L156.339 105.989C156.243 106.175 156.06 106.3 155.853 106.324C155.827 106.326 155.801 106.329 155.778 106.329ZM105.637 46.7211L155.644 104.579L187.75 42.3942L105.637 46.7211Z" fill="black"/>
<path d="M81.1446 114.591C80.9556 114.591 80.7724 114.503 80.6532 114.355C80.5165 114.186 80.4788 113.96 80.5485 113.756L103.721 45.9564C103.794 45.7412 103.974 45.5842 104.198 45.5405C104.408 45.494 104.646 45.5754 104.794 45.747L156.255 105.285C156.409 105.463 156.45 105.71 156.365 105.928C156.281 106.146 156.08 106.3 155.848 106.327L81.2144 114.588C81.1912 114.591 81.1679 114.591 81.1446 114.591ZM104.559 47.4045L82.0635 113.224L154.516 105.204L104.559 47.4045Z" fill="black"/>
</svg>
