<svg width="275" height="276" viewBox="0 0 275 276" fill="none" xmlns="http://www.w3.org/2000/svg">
<path d="M223.104 244.385H220.873C220.62 244.385 220.389 244.246 220.269 244.023C220.148 243.801 220.161 243.531 220.3 243.32L230.394 228.058L247.931 210.946C248.191 210.692 248.602 210.688 248.868 210.927C249.137 211.169 249.172 211.577 248.95 211.862L223.645 244.122C223.515 244.288 223.316 244.385 223.104 244.385ZM222.148 243.012H222.768L241.511 219.118L231.445 228.929L222.148 243.012Z" fill="black"/>
<path d="M144.369 275.092L127.006 272.891L103.197 270.364C102.821 270.325 102.549 269.988 102.586 269.611C102.628 269.236 102.963 268.966 103.34 268.999L123.196 271.024C123.202 271.026 123.209 271.026 123.212 271.027L127.079 271.518L146.881 273.621C147.239 273.658 147.505 273.965 147.495 274.325C147.482 274.684 147.198 274.973 146.837 274.988L144.369 275.092Z" fill="black"/>
<path d="M248.41 212.124C248.299 212.124 248.185 212.097 248.081 212.041C247.758 211.865 247.631 211.468 247.793 211.139L260.035 185.848C260.054 185.806 260.08 185.767 260.105 185.73L268.082 175.252C268.288 174.984 268.649 174.897 268.949 175.06C269.247 175.217 269.386 175.565 269.282 175.885L267.288 181.886L248.995 211.797C248.865 212.007 248.641 212.124 248.41 212.124ZM261.241 186.507L255.093 199.211L266.051 181.31L266.7 179.335L261.241 186.507Z" fill="black"/>
<path d="M144.34 275.093C143.983 275.093 143.685 274.82 143.657 274.461C143.628 274.094 143.894 273.768 144.261 273.725L148.261 273.26L188.657 263.525C189.015 263.436 189.382 263.653 189.48 264.012C189.578 264.37 189.372 264.741 189.018 264.849L162.311 272.996L148.419 274.62L146.97 274.97L144.369 275.092C144.359 275.094 144.35 275.093 144.34 275.093ZM166.852 270.186L159.52 271.95L162.032 271.657L166.852 270.186Z" fill="black"/>
<path d="M188.819 264.879C188.581 264.879 188.35 264.754 188.224 264.534C188.037 264.208 188.145 263.795 188.467 263.604L211.757 249.681L220.462 243.149C220.579 243.061 220.725 243.012 220.874 243.012H223.104C223.415 243.012 223.684 243.217 223.766 243.516C223.848 243.814 223.722 244.129 223.456 244.287L212.523 250.823L206.799 255.118C206.773 255.137 206.745 255.156 206.716 255.172L189.148 264.795C189.043 264.852 188.929 264.879 188.819 264.879Z" fill="black"/>
<path d="M170.832 6.72742C170.81 6.72742 170.784 6.72583 170.759 6.72269L127.211 2.10273C126.86 2.06634 126.591 1.76574 126.597 1.41131C126.604 1.05689 126.876 0.764192 127.23 0.73571L136.736 0L161.535 2.38276C161.583 2.38749 161.63 2.39698 161.677 2.41124L171.041 5.38574C171.376 5.49332 171.576 5.83666 171.503 6.18159C171.436 6.50277 171.155 6.72742 170.832 6.72742ZM134.755 1.52362L164.165 4.64368L161.329 3.74184L136.723 1.36857L134.755 1.52362Z" fill="black"/>
<path d="M273.411 114.468C273.113 114.468 272.838 114.273 272.753 113.972L267.971 97.5445L260.01 76.038C259.883 75.6978 260.041 75.3196 260.374 75.1725C260.696 75.0285 261.095 75.1583 261.26 75.481L266.649 85.7778L274.075 113.604C274.17 113.967 273.958 114.341 273.594 114.442C273.534 114.46 273.471 114.468 273.411 114.468ZM264.981 85.5168L265.677 87.4012L265.377 86.2731L264.981 85.5168Z" fill="black"/>
<path d="M188.819 264.879C188.581 264.879 188.35 264.755 188.224 264.536C188.037 264.211 188.145 263.795 188.467 263.604L222.753 243.11L233.332 235.787C233.626 235.583 234.044 235.645 234.265 235.936C234.49 236.227 234.442 236.642 234.164 236.878L224.519 244.978L189.154 264.792C189.046 264.85 188.933 264.879 188.819 264.879Z" fill="black"/>
<path d="M230.968 39.2443C230.791 39.2443 230.613 39.1747 230.48 39.0418L222.19 30.7101L220.006 28.9902L216.253 24.7421C216.01 24.4636 216.029 24.0396 216.301 23.7864C216.573 23.5317 216.991 23.5444 217.257 23.8038L223.158 29.7355L231.158 36.0214C231.3 36.1338 231.395 36.2999 231.414 36.4803L231.648 38.477C231.683 38.7681 231.531 39.0481 231.265 39.1763C231.17 39.2222 231.069 39.2443 230.968 39.2443Z" fill="black"/>
<path d="M224.075 245.14C223.889 245.14 223.705 245.065 223.569 244.918C223.322 244.648 223.329 244.231 223.588 243.97L244.989 222.351L249.624 217.016C249.865 216.743 250.28 216.7 250.564 216.926C250.852 217.149 250.916 217.561 250.707 217.86L249.175 220.061C249.153 220.092 249.128 220.124 249.099 220.151L245.97 223.312L234.239 236.803L224.518 244.978C224.389 245.086 224.231 245.14 224.075 245.14Z" fill="black"/>
<path d="M248.41 63.6146C248.194 63.6146 247.986 63.515 247.853 63.3283L230.411 38.9579C230.341 38.863 230.3 38.7522 230.287 38.6383L230.053 36.6416C230.015 36.3284 230.195 36.0325 230.49 35.9202C230.781 35.8062 231.116 35.9091 231.294 36.1654L239.059 47.2027L248.985 62.5545C249.188 62.8678 249.103 63.2855 248.796 63.4959C248.679 63.575 248.542 63.6146 248.41 63.6146Z" fill="black"/>
<path d="M260.652 76.4857C260.472 76.4857 260.288 76.413 260.156 76.2721L247.913 63.4011L237.923 47.9717C237.727 47.6679 237.799 47.266 238.087 47.0493C238.366 46.8373 238.777 46.8768 239.018 47.1474L251.137 61.0516L261.216 75.4051C261.421 75.6994 261.364 76.1028 261.086 76.3307C260.959 76.4335 260.807 76.4857 260.652 76.4857ZM244.27 55.2624L248.985 62.5547L254.811 68.6698L250.055 61.8965L244.27 55.2624Z" fill="black"/>
<path d="M103.27 270.369C103.2 270.369 103.131 270.358 103.058 270.336L74.8826 261.259L66.766 257.155C66.4654 257.001 66.3198 256.652 66.4243 256.33C66.5255 256.011 66.842 255.799 67.1837 255.865L76.4711 257.346C76.5281 257.354 76.585 257.37 76.6356 257.394L103.542 269.053C103.878 269.198 104.042 269.581 103.912 269.925C103.808 270.198 103.549 270.369 103.27 270.369ZM71.2942 257.909L75.4047 259.993L90.0905 264.719L76.1705 258.688L71.2942 257.909Z" fill="black"/>
<path d="M248.612 220.355C248.495 220.355 248.375 220.325 248.267 220.262C247.957 220.083 247.84 219.695 247.992 219.372L263.105 187.675C263.257 187.359 263.627 187.21 263.956 187.324C264.288 187.442 264.475 187.794 264.393 188.135L262.257 196.814C262.241 196.871 262.219 196.928 262.191 196.98L250.745 217.798L250.707 217.86L249.175 220.061C249.043 220.25 248.831 220.355 248.612 220.355ZM261.453 194.333L257.355 202.922L260.944 196.398L261.453 194.333Z" fill="black"/>
<path d="M137.306 275.731C136.955 275.731 136.657 275.465 136.622 275.112C136.584 274.741 136.853 274.408 137.224 274.363L150.197 272.788L188.657 263.525C189.015 263.433 189.398 263.661 189.486 264.029C189.575 264.396 189.35 264.768 188.983 264.858L152.583 273.877C152.558 273.883 152.53 273.889 152.501 273.893L150.375 274.15L146.97 274.97L137.36 275.729C137.341 275.729 137.322 275.731 137.306 275.731Z" fill="black"/>
<path d="M266.636 104.289C266.367 104.289 266.12 104.131 266.009 103.883L247.783 63.208C247.647 62.9042 247.748 62.5435 248.026 62.3584C248.305 62.1701 248.675 62.2128 248.906 62.4549L261.149 75.3259C261.212 75.394 261.263 75.4731 261.294 75.5601L269.272 97.1142C269.326 97.2581 269.329 97.4163 269.284 97.5619L267.291 103.812C267.202 104.082 266.959 104.272 266.674 104.288C266.661 104.289 266.649 104.289 266.636 104.289ZM250.675 66.3059L266.528 101.683L267.905 97.3689L260.057 76.1692L250.675 66.3059Z" fill="black"/>
<path d="M270.721 148.203C270.696 148.203 270.667 148.201 270.642 148.198C270.275 148.155 270.006 147.829 270.038 147.462L271.971 123.185L271.639 114.384C271.629 114.121 271.772 113.876 272.003 113.752L273.088 113.175C273.307 113.055 273.576 113.069 273.788 113.206C273.996 113.344 274.117 113.585 274.094 113.835L273.345 123.266L273.699 132.822L271.398 147.622C271.348 147.959 271.057 148.203 270.721 148.203Z" fill="black"/>
<path d="M273.411 159.78C273.098 159.78 272.816 159.563 272.744 159.248L270.054 147.671C270.032 147.586 270.029 147.497 270.044 147.41L272.335 132.742C272.389 132.384 272.674 132.147 273.082 132.164C273.446 132.202 273.715 132.515 273.699 132.881L273.013 147.309L274.095 159.03C274.126 159.389 273.876 159.713 273.522 159.77C273.484 159.776 273.446 159.78 273.411 159.78ZM271.421 147.491L271.81 149.169L271.642 147.339L271.728 145.521L271.421 147.491Z" fill="black"/>
<path d="M266.636 182.356C266.585 182.356 266.538 182.351 266.487 182.338C266.142 182.262 265.911 181.938 265.956 181.587L270.041 147.434C270.079 147.103 270.351 146.848 270.683 146.831C271.034 146.801 271.316 147.035 271.389 147.361L274.078 158.938C274.107 159.052 274.104 159.17 274.069 159.283L269.288 175.858L267.288 181.886C267.193 182.171 266.927 182.356 266.636 182.356ZM270.939 151.483L268.136 174.9L272.702 159.074L270.939 151.483Z" fill="black"/>
<path d="M261.589 197.336C261.526 197.336 261.462 197.326 261.396 197.309C261.045 197.206 260.836 196.842 260.921 196.484L263.054 187.83L270.044 147.399C270.107 147.033 270.462 146.798 270.819 146.837C271.19 146.891 271.446 147.228 271.402 147.598L267.316 181.751L262.241 196.869C262.143 197.154 261.877 197.336 261.589 197.336ZM266.952 173.334L265.089 184.11L265.984 181.449L266.952 173.334Z" fill="black"/>
<path d="M270.722 148.203C270.367 148.203 270.07 147.932 270.038 147.579L265.953 103.666C265.943 103.574 265.953 103.482 265.981 103.394L267.975 97.1442C268.067 96.8594 268.332 96.6664 268.63 96.6664H268.639C268.94 96.6711 269.206 96.8705 269.288 97.1616L274.069 113.589C274.095 113.668 274.101 113.752 274.095 113.835L271.405 147.57C271.377 147.926 271.079 148.2 270.722 148.203ZM267.333 103.679L270.668 139.539L272.718 113.852L268.598 99.7057L267.333 103.679Z" fill="black"/>
<path d="M25.6862 64.9722C25.6419 64.9722 25.5977 64.9674 25.5565 64.9595C25.3034 64.9104 25.0977 64.7238 25.0281 64.4754L23.2908 58.4488C23.2244 58.2257 23.2781 57.9837 23.4301 57.8081L39.8626 38.92L50.6087 31.4695C50.884 31.2765 51.2669 31.3176 51.4979 31.5645C51.7289 31.8113 51.7479 32.191 51.539 32.4584L26.2273 64.7095C26.0944 64.8772 25.8951 64.9722 25.6862 64.9722ZM24.7116 58.4267L25.9742 62.8061L47.6595 35.175L40.7707 39.9358L24.7116 58.4267Z" fill="black"/>
<path d="M7.45288 94.7409C7.3548 94.7409 7.25667 94.7203 7.16176 94.676C6.84531 94.5273 6.69027 94.1666 6.80102 93.8343L11.8545 78.8542L23.3475 57.9283C23.4804 57.6846 23.7493 57.5486 24.0246 57.5771C24.2999 57.6071 24.5309 57.8017 24.6069 58.0691L26.3441 64.0956C26.3979 64.2808 26.3726 64.4801 26.2713 64.6446L8.03829 94.4133C7.90855 94.6222 7.68385 94.7409 7.45288 94.7409ZM23.7493 60.0469L13.1076 79.4048L10.0413 88.5119L24.9423 64.1843L23.7493 60.0469Z" fill="black"/>
<path d="M112.617 273.34C112.548 273.34 112.478 273.329 112.408 273.307L103.061 270.336L76.0911 258.653C75.7431 258.503 75.5849 258.102 75.7304 257.754C75.8791 257.406 76.2873 257.248 76.6259 257.389L92.4699 263.983L112.867 272.015C113.212 272.151 113.389 272.535 113.263 272.883C113.165 273.165 112.899 273.34 112.617 273.34Z" fill="black"/>
<path d="M8.05748 190.314C7.75052 190.314 7.47523 190.107 7.39296 189.804L0.0231718 162.12C-0.0590995 161.811 0.0832865 161.488 0.361758 161.338L1.44397 160.757C1.61483 160.664 1.81103 160.648 1.99773 160.715C2.17809 160.778 2.32683 160.915 2.3996 161.093L9.08273 176.734C9.12388 176.826 9.14283 176.924 9.13969 177.025L8.74414 189.649C8.73147 189.99 8.47517 190.27 8.13659 190.309C8.1081 190.312 8.08278 190.314 8.05748 190.314ZM1.60852 162.729L7.51637 184.931L7.76319 177.133L1.60852 162.729Z" fill="black"/>
<path d="M23.4774 214.904C23.2591 214.904 23.0471 214.8 22.9142 214.611L12.8863 200.321C12.8705 200.298 12.8547 200.272 12.842 200.245L7.44997 189.945C7.28543 189.63 7.38668 189.243 7.68414 189.051C7.99109 188.861 8.37713 188.925 8.59864 189.205L26.8507 212.515C26.9804 212.68 27.0279 212.896 26.9772 213.102C26.9266 213.306 26.7842 213.477 26.5912 213.562L23.7591 214.842C23.6705 214.884 23.5724 214.904 23.4774 214.904ZM14.0382 199.57L23.7116 213.358L25.2305 212.672L12.1554 195.973L14.0382 199.57Z" fill="black"/>
<path d="M137.388 275.726L112.551 273.337C112.209 273.304 111.944 273.022 111.931 272.679C111.918 272.337 112.162 272.037 112.501 271.978L119.491 270.76L152.457 272.526C152.811 272.545 153.093 272.833 153.106 273.189C153.118 273.543 152.856 273.85 152.501 273.893L137.388 275.726ZM117.684 272.454L137.372 274.361L144.606 273.475L119.57 272.121L117.684 272.454Z" fill="black"/>
<path d="M91.7672 14.3709C91.6944 14.3709 91.6217 14.3583 91.552 14.3361L85.0651 12.178C84.7803 12.0831 84.5905 11.8157 84.5936 11.5167C84.5968 11.2192 84.793 10.9566 85.0809 10.8695L111.794 2.73082C112.067 2.64378 112.358 2.74031 112.529 2.95864C112.706 3.17856 112.728 3.48393 112.589 3.72757L109.703 8.78581C109.617 8.93927 109.475 9.05161 109.307 9.10226L91.9666 14.3409C91.9001 14.3614 91.8336 14.3709 91.7672 14.3709ZM87.5428 11.5546L91.7767 12.9644L108.646 7.86819L110.541 4.5472L87.5428 11.5546Z" fill="black"/>
<path d="M188.819 264.879C188.597 264.879 188.382 264.773 188.252 264.578C188.05 264.284 188.11 263.885 188.385 263.661L212.358 244.083L227.405 236.281C227.671 236.148 227.993 236.192 228.199 236.398C228.411 236.604 228.468 236.922 228.338 237.188L224.693 244.75C224.633 244.879 224.535 244.983 224.411 245.053L189.154 264.792C189.05 264.85 188.933 264.879 188.819 264.879ZM226.209 238.445L213.108 245.224L195.315 259.768L223.551 243.959L226.209 238.445Z" fill="black"/>
<path d="M248.612 220.355C248.561 220.355 248.51 220.349 248.46 220.337L241.906 218.863C241.688 218.814 241.508 218.662 241.422 218.453C241.337 218.246 241.359 218.01 241.482 217.822L255.019 196.812L263.209 187.517C263.437 187.26 263.816 187.213 264.104 187.398C264.389 187.586 264.49 187.957 264.345 188.267L249.232 219.964C249.115 220.206 248.871 220.355 248.612 220.355ZM243.166 217.739L248.229 218.879L260.994 192.103L256.111 197.638L243.166 217.739Z" fill="black"/>
<path d="M224.076 245.14C223.937 245.14 223.801 245.099 223.68 245.013C223.405 244.82 223.313 244.458 223.459 244.156L227.104 236.593L241.515 217.776C241.676 217.564 241.948 217.464 242.211 217.524L248.764 218.999C249.008 219.053 249.201 219.236 249.271 219.475C249.34 219.716 249.277 219.974 249.1 220.151L224.563 244.936C224.43 245.07 224.253 245.14 224.076 245.14ZM242.337 218.959L228.266 237.308L226.462 241.067L247.252 220.065L242.337 218.959Z" fill="black"/>
<path d="M26.3094 213.624C26.1037 213.624 25.9044 213.532 25.7683 213.36L7.51628 190.05C7.4182 189.923 7.36755 189.767 7.37072 189.605L7.76627 176.981C7.77576 176.674 7.99096 176.41 8.28839 176.337C8.59848 176.255 8.89912 176.399 9.051 176.668L20.3762 196.874L26.9423 212.675C27.0752 212.991 26.9518 213.357 26.6543 213.531C26.5467 213.594 26.4265 213.624 26.3094 213.624ZM8.75038 189.399L23.7431 208.545L19.1453 197.472L9.06049 179.492L8.75038 189.399Z" fill="black"/>
<path d="M76.9328 22.0413H76.917L67.6866 21.8467C67.3765 21.8403 67.1107 21.6252 67.0347 21.323C66.962 21.0208 67.1012 20.7075 67.3733 20.5588L84.9513 10.9249C85.1159 10.8315 85.3184 10.8126 85.4956 10.8743L91.9825 13.0324C92.2452 13.1194 92.4287 13.3552 92.4509 13.6305C92.473 13.9057 92.3274 14.1668 92.0838 14.2934L77.2493 21.9638C77.1512 22.0144 77.0436 22.0413 76.9328 22.0413ZM70.2845 20.5271L76.7715 20.6648L90.008 13.8218L85.3469 12.2713L70.2845 20.5271Z" fill="black"/>
<path d="M0.687816 117.312C0.577062 117.312 0.463147 117.285 0.361887 117.23C0.0770969 117.077 -0.0621359 116.746 0.0296295 116.436L4.81097 99.8656C4.83314 99.7833 4.87108 99.7074 4.92173 99.6394L12.9022 89.1606C13.1048 88.8964 13.4623 88.8093 13.7598 88.9644C14.0541 89.1131 14.2028 89.4517 14.1079 89.7697L8.71579 108.239C8.69049 108.332 8.64301 108.419 8.57973 108.493L1.20994 117.073C1.07387 117.228 0.883984 117.312 0.687816 117.312ZM6.09254 100.369L2.22253 113.787L7.44056 107.71L11.7536 92.9372L6.09254 100.369Z" fill="black"/>
<path d="M152.419 273.897C152.232 273.897 152.049 273.82 151.919 273.681L147.758 269.247C147.593 269.073 147.533 268.83 147.593 268.6C147.657 268.371 147.834 268.189 148.059 268.121L165.444 262.882C165.516 262.859 165.586 262.847 165.662 262.852L188.838 263.506C189.183 263.515 189.464 263.778 189.502 264.119C189.537 264.46 189.316 264.776 188.983 264.858L152.584 273.877C152.53 273.891 152.473 273.897 152.419 273.897ZM149.517 269.114L152.644 272.448L183.768 264.737L165.735 264.229L149.517 269.114Z" fill="black"/>
<path d="M137.141 6.54072L111.927 4.07093C111.576 4.03613 111.31 3.74343 111.307 3.39377C111.304 3.04252 111.567 2.74665 111.915 2.70553L129.676 0.63446L151.048 3.33525C151.393 3.37796 151.65 3.6691 151.65 4.014C151.65 4.3589 151.396 4.65004 151.055 4.69592L137.141 6.54072ZM118.373 3.32731L137.116 5.17688L145.663 4.03296L129.67 1.99668L118.373 3.32731Z" fill="black"/>
<path d="M112.618 273.34C112.532 273.34 112.447 273.325 112.368 273.293L91.9575 265.257C91.8215 265.203 91.7044 265.108 91.6253 264.983L87.692 258.745C87.5338 258.492 87.5559 258.164 87.7489 257.936C87.9388 257.705 88.2584 257.626 88.5369 257.746L119.87 270.803C120.152 270.92 120.323 271.208 120.291 271.511C120.256 271.815 120.025 272.059 119.725 272.111L112.735 273.329C112.697 273.337 112.656 273.34 112.618 273.34ZM92.6695 264.061L112.69 271.945L117.171 271.163L90.0114 259.846L92.6695 264.061Z" fill="black"/>
<path d="M255.595 197.871C255.507 197.871 255.421 197.853 255.336 197.82C255.067 197.709 254.896 197.442 254.909 197.149L255.636 182.558C255.643 182.481 255.659 182.405 255.687 182.332L270.085 147.255C270.218 146.931 270.572 146.76 270.911 146.856C271.246 146.953 271.458 147.288 271.398 147.633L264.402 188.088C264.38 188.213 264.323 188.33 264.24 188.425L256.111 197.638C255.978 197.788 255.788 197.871 255.595 197.871ZM257.003 182.745L256.38 195.258L263.082 187.662L268.977 153.573L257.003 182.745Z" fill="black"/>
<path d="M1.76988 129.13C1.41863 129.13 1.11804 128.862 1.08638 128.506L0.0041679 116.689C-0.0116448 116.504 0.0453349 116.319 0.16555 116.178L7.53534 107.598C7.72205 107.379 8.02266 107.3 8.28846 107.4C8.55743 107.495 8.73781 107.746 8.74412 108.031L9.13967 127.837C9.14599 128.198 8.87387 128.503 8.51313 128.535L1.83 129.126C1.81101 129.128 1.78884 129.13 1.76988 129.13ZM1.39649 116.852L2.39009 127.699L7.75368 127.225L7.4056 109.857L1.39649 116.852Z" fill="black"/>
<path d="M197.163 20.7487C197.147 20.7487 197.134 20.7487 197.118 20.7471L182.274 19.7757C182.094 19.763 181.923 19.6808 181.803 19.5447L170.316 6.49489C170.114 6.2623 170.088 5.92214 170.259 5.66424C170.427 5.40635 170.75 5.29242 171.044 5.38736L199.21 14.4675C199.387 14.5245 199.533 14.6526 199.615 14.8219C199.697 14.9896 199.707 15.1843 199.64 15.3599L197.805 20.301C197.707 20.5716 197.447 20.7487 197.163 20.7487ZM182.648 18.4245L196.697 19.3437L198.106 15.5544L172.996 7.45999L182.648 18.4245Z" fill="black"/>
<path d="M182.319 19.7773C182.24 19.7773 182.157 19.763 182.078 19.7346L164.753 13.2729L150.605 4.60101C150.33 4.43329 150.21 4.09944 150.314 3.79566C150.416 3.49347 150.722 3.32102 151.033 3.33207L170.902 5.35726C171.072 5.37466 171.234 5.45693 171.348 5.58668L182.834 18.6365C183.043 18.8738 183.062 19.2203 182.885 19.4798C182.752 19.6696 182.54 19.7773 182.319 19.7773ZM153.884 5.00287L165.351 12.0436L179.999 17.4958L170.493 6.6958L153.884 5.00287Z" fill="black"/>
<path d="M266.636 104.289C266.446 104.289 266.26 104.21 266.127 104.061L261.08 98.4431L249.539 77.0711C249.498 76.9967 249.473 76.9144 249.463 76.8306L247.729 63.0134C247.685 62.6764 247.897 62.3584 248.223 62.2666C248.565 62.1669 248.897 62.3378 249.036 62.6479L267.263 103.323C267.402 103.631 267.294 103.993 267.01 104.179C266.896 104.253 266.766 104.289 266.636 104.289ZM250.808 76.5331L262.193 97.6584L264.231 99.9161L249.663 67.4039L250.808 76.5331Z" fill="black"/>
<path d="M270.721 148.203C270.402 148.203 270.117 147.98 270.05 147.658L263.054 114.798L260.909 98.0714C260.871 97.7739 261.029 97.486 261.304 97.361C261.57 97.236 261.896 97.2993 262.098 97.5255L267.145 103.144C267.247 103.253 267.307 103.392 267.319 103.539L271.405 147.453C271.439 147.815 271.183 148.139 270.826 148.195C270.791 148.2 270.756 148.203 270.721 148.203ZM262.551 100.081L264.405 114.569L268.952 135.919L265.975 103.892L262.551 100.081Z" fill="black"/>
<path d="M230.967 39.2443C230.942 39.2443 230.917 39.2427 230.891 39.2396L220.797 38.1352C220.712 38.1257 220.626 38.1004 220.55 38.0593L206.064 30.3208C205.839 30.2006 205.7 29.9664 205.7 29.7117C205.7 29.457 205.842 29.2244 206.07 29.1057L216.452 23.6789C216.712 23.5365 217.041 23.5887 217.256 23.8038L231.455 38.0735C231.66 38.2792 231.711 38.5925 231.584 38.8551C231.47 39.094 231.23 39.2443 230.967 39.2443ZM221.079 36.7856L229.11 37.6637L216.639 25.1313L207.855 29.7212L221.079 36.7856Z" fill="black"/>
<path d="M206.387 30.4016C206.204 30.4016 206.023 30.3288 205.89 30.1896L196.666 20.5367C196.486 20.3469 196.429 20.07 196.521 19.8232L198.356 14.882C198.422 14.6985 198.568 14.5513 198.751 14.4802C198.929 14.4121 199.134 14.4216 199.312 14.5102L217.083 23.6774C217.31 23.796 217.456 24.0302 217.456 24.2865C217.456 24.5428 217.314 24.777 217.086 24.8972L206.704 30.3241C206.605 30.3763 206.495 30.4016 206.387 30.4016ZM197.957 19.8991L206.526 28.8669L215.279 24.2928L199.372 16.086L197.957 19.8991Z" fill="black"/>
<path d="M8.45317 177.69C8.18105 177.69 7.93107 177.527 7.82346 177.272L1.14033 161.631C1.10553 161.555 1.08655 161.471 1.08338 161.387L0.396709 142.901C0.387215 142.61 0.561249 142.344 0.830226 142.238C1.0992 142.129 1.40614 142.205 1.59917 142.425L14.0826 156.712C14.2313 156.881 14.2882 157.115 14.2313 157.333L9.11768 177.174C9.0449 177.459 8.79808 177.666 8.5038 177.688C8.48798 177.688 8.46898 177.69 8.45317 177.69ZM2.45038 161.21L8.29178 174.878L12.8105 157.341L1.84282 144.787L2.45038 161.21Z" fill="black"/>
<path d="M13.5669 157.849C13.3738 157.849 13.184 157.767 13.0511 157.614L0.567671 143.326C0.450599 143.194 0.390444 143.019 0.396795 142.842L1.08346 128.41C1.09927 128.068 1.36825 127.789 1.71 127.759L8.39313 127.168C8.76651 127.157 9.06714 127.383 9.13042 127.732L14.244 157.044C14.2946 157.348 14.1396 157.65 13.8611 157.783C13.7694 157.827 13.6681 157.849 13.5669 157.849ZM1.78278 142.632L12.4688 154.862L7.88683 128.59L2.42831 129.074L1.78278 142.632Z" fill="black"/>
<path d="M53.6814 247.959C53.5295 247.959 53.3808 247.908 53.2573 247.812L42.9384 239.702C42.8846 239.661 42.8403 239.612 42.8023 239.558L35.0275 228.514C34.8598 228.278 34.8598 227.964 35.0243 227.726C35.1857 227.49 35.4831 227.383 35.7616 227.454L56.4723 232.892C56.8204 232.984 57.0387 233.33 56.9723 233.685L54.3554 247.401C54.3111 247.636 54.1465 247.831 53.9219 247.915C53.8428 247.945 53.7636 247.959 53.6814 247.959ZM43.8655 238.684L53.2194 246.035L55.504 234.058L37.2299 229.259L43.8655 238.684Z" fill="black"/>
<path d="M56.2985 234.243C56.2415 234.243 56.1814 234.235 56.1244 234.221L35.4137 228.783C35.2808 228.748 35.1606 228.674 35.0688 228.57L22.9588 214.668C22.8164 214.506 22.7595 214.284 22.8069 214.072C22.8544 213.858 22.9967 213.681 23.1961 213.593L26.0282 212.313C26.2402 212.21 26.4997 212.235 26.6991 212.371L56.6877 232.99C56.963 233.18 57.061 233.539 56.9218 233.843C56.8079 234.091 56.5611 234.243 56.2985 234.243ZM35.9675 227.508L52.6689 231.894L26.2402 213.722L24.6011 214.463L35.9675 227.508Z" fill="black"/>
<path d="M92.2074 265.304C92.1188 265.304 92.0302 265.287 91.9447 265.252L76.1008 258.658C75.9964 258.613 75.9046 258.545 75.8318 258.458L55.7666 233.992C55.5451 233.721 55.5641 233.329 55.8078 233.077C56.0514 232.829 56.4438 232.8 56.7191 233.014L88.6949 257.837C88.7582 257.886 88.812 257.946 88.8563 258.014L92.7896 264.252C92.9478 264.505 92.9257 264.831 92.7327 265.061C92.5997 265.219 92.4036 265.304 92.2074 265.304ZM76.7843 257.455L90.4701 263.151L87.7583 258.848L60.703 237.844L76.7843 257.455Z" fill="black"/>
<path d="M76.3633 258.71C76.3285 258.71 76.2906 258.707 76.2558 258.7L66.9684 257.22C66.8671 257.204 66.769 257.166 66.6867 257.107L53.292 247.837C53.0673 247.682 52.9566 247.41 53.0072 247.144L55.6241 233.428C55.6747 233.166 55.871 232.957 56.1273 232.892C56.3931 232.821 56.6589 232.916 56.8298 233.121L76.895 257.588C77.0753 257.808 77.1007 258.118 76.9582 258.365C76.8348 258.58 76.607 258.71 76.3633 258.71ZM67.3386 255.889L74.6862 257.061L56.6969 235.126L54.4407 246.962L67.3386 255.889Z" fill="black"/>
<path d="M152.419 273.897C152.406 273.897 152.393 273.897 152.381 273.896L119.569 272.121C119.294 272.106 119.057 271.928 118.962 271.67C118.867 271.41 118.94 271.121 119.139 270.932L126.917 263.707C127.082 263.555 127.309 263.491 127.531 263.539L148.403 268.107C148.539 268.137 148.662 268.206 148.757 268.307L152.919 272.741C153.112 272.945 153.159 273.245 153.042 273.5C152.928 273.744 152.684 273.897 152.419 273.897ZM121.259 270.837L150.748 272.432L147.903 269.402L127.591 264.956L121.259 270.837Z" fill="black"/>
<path d="M188.818 264.879C188.692 264.879 188.568 264.844 188.455 264.774C188.208 264.619 188.084 264.324 188.151 264.037L190.049 255.818C190.081 255.674 190.16 255.542 190.277 255.447L203.045 244.735C203.156 244.641 203.292 244.586 203.438 244.575L212.744 243.929C213.026 243.887 213.32 244.083 213.431 244.361C213.538 244.64 213.456 244.958 213.225 245.146L189.252 264.724C189.129 264.827 188.974 264.879 188.818 264.879ZM191.334 256.351L189.939 262.39L210.684 245.448L203.754 245.929L191.334 256.351Z" fill="black"/>
<path d="M43.1283 47.9733C42.9511 47.9733 42.7771 47.9052 42.6442 47.7723C42.4132 47.5413 42.3752 47.1806 42.5556 46.9085L52.6562 31.6468C52.7005 31.5803 52.7543 31.5233 52.8176 31.4759L67.2914 20.6111C67.5572 20.4133 67.9211 20.4275 68.1679 20.6538C68.4084 20.8769 68.459 21.2424 68.285 21.5224L57.909 38.216C57.8584 38.2999 57.7888 38.371 57.7065 38.4248L43.508 47.8578C43.391 47.9353 43.2612 47.9733 43.1283 47.9733ZM53.7352 32.5027L45.5712 44.839L56.8237 37.3648L65.1871 23.9068L53.7352 32.5027Z" fill="black"/>
<path d="M56.2979 234.243C56.1618 234.243 56.0258 234.204 55.9087 234.123L25.92 213.504C25.8125 213.428 25.727 213.324 25.6764 213.2L19.1452 197.472C19.0471 197.241 19.0851 196.975 19.2433 196.779C19.3983 196.583 19.6546 196.486 19.8983 196.534L29.3376 198.203C29.5053 198.231 29.654 198.321 29.7584 198.456L56.839 233.134C57.0478 233.401 57.0289 233.78 56.7979 234.026C56.6649 234.169 56.4814 234.243 56.2979 234.243ZM26.8662 212.487L53.0133 230.465L28.8376 199.508L20.8919 198.103L26.8662 212.487Z" fill="black"/>
<path d="M29.2173 199.565C29.1762 199.565 29.1382 199.562 29.0971 199.554L19.6578 197.885C19.4553 197.85 19.2812 197.725 19.18 197.545L7.85472 177.339C7.76613 177.185 7.74397 177.003 7.78827 176.832L12.9019 156.992C12.9778 156.701 13.231 156.493 13.5284 156.477C13.8322 156.454 14.1043 156.64 14.2087 156.922L29.8597 198.638C29.9451 198.867 29.904 199.128 29.7457 199.317C29.6128 199.475 29.4198 199.565 29.2173 199.565ZM20.2179 196.59L28.1509 197.992L13.6866 159.441L9.18691 176.908L20.2179 196.59Z" fill="black"/>
<path d="M119.608 272.122C119.519 272.122 119.427 272.105 119.345 272.068L88.0115 259.012C87.7077 258.887 87.5369 258.566 87.6002 258.245C87.6634 257.925 87.9451 257.693 88.2742 257.693L103.156 257.67L127.547 263.542C127.794 263.602 127.987 263.792 128.05 264.036C128.113 264.281 128.037 264.54 127.854 264.713L120.076 271.939C119.946 272.059 119.779 272.122 119.608 272.122ZM91.6822 259.056L119.465 270.632L125.981 264.577L102.995 259.025L91.6822 259.056Z" fill="black"/>
<path d="M248.41 63.6147C248.296 63.6147 248.182 63.5862 248.077 63.5293L222.772 49.5823C222.595 49.4843 222.468 49.3118 222.43 49.1108L220.199 37.5831C220.158 37.3695 220.222 37.148 220.367 36.9882C220.519 36.8252 220.725 36.7335 220.949 36.7714L231.044 37.8758C231.237 37.8964 231.414 37.9992 231.525 38.1574L248.967 62.5277C249.153 62.7888 249.134 63.1448 248.922 63.3837C248.789 63.534 248.6 63.6147 248.41 63.6147ZM223.718 48.5349L246.09 60.8649L230.588 39.2064L221.725 38.2366L223.718 48.5349Z" fill="black"/>
<path d="M123.126 14.3171C123.047 14.3171 122.965 14.3029 122.889 14.2744L108.871 9.08958C108.681 9.01997 108.532 8.86966 108.463 8.67981C108.393 8.49151 108.412 8.28109 108.513 8.10546L111.399 3.04722C111.529 2.81149 111.782 2.68965 112.06 2.70388L137.116 5.17681C137.416 5.20688 137.66 5.4268 137.72 5.72109C137.784 6.01378 137.647 6.31283 137.385 6.45997L123.462 14.2301C123.357 14.287 123.243 14.3171 123.126 14.3171ZM110.105 8.0833L123.069 12.8773L134.803 6.32864L112.371 4.1136L110.105 8.0833Z" fill="black"/>
<path d="M188.819 264.879H188.8L165.624 264.226C165.326 264.216 165.07 264.02 164.985 263.735C164.899 263.452 165.007 263.145 165.25 262.976L175.687 255.701C175.797 255.623 175.93 255.58 176.066 255.577L190.705 255.286C190.932 255.243 191.116 255.376 191.249 255.541C191.385 255.704 191.432 255.921 191.385 256.128L189.486 264.347C189.417 264.659 189.138 264.879 188.819 264.879ZM167.744 262.911L188.277 263.49L189.85 256.677L176.3 256.946L167.744 262.911Z" fill="black"/>
<path d="M250.143 77.4318C249.985 77.4318 249.83 77.378 249.703 77.272L233.28 63.5513L222.556 49.3956C222.36 49.1361 222.373 48.7769 222.585 48.5317C222.794 48.2849 223.154 48.2279 223.436 48.3798L248.741 62.3267C248.934 62.4327 249.064 62.6242 249.09 62.8425L250.824 76.6597C250.858 76.9397 250.719 77.2118 250.472 77.3479C250.368 77.4033 250.257 77.4318 250.143 77.4318ZM225.594 51.1375L234.268 62.6099L249.245 75.1028L247.773 63.3599L225.594 51.1375Z" fill="black"/>
<path d="M57.3269 38.5403C57.1149 38.5403 56.9092 38.4406 56.7763 38.265C56.6086 38.0388 56.596 37.7318 56.7446 37.4913L67.1206 20.7977C67.2471 20.5905 67.5003 20.4956 67.7186 20.4734L76.9491 20.668C77.1453 20.6727 77.3319 20.7629 77.4585 20.9148C77.5883 21.0667 77.6421 21.2661 77.6104 21.4623L75.7719 33.0106C75.7308 33.2764 75.5377 33.4916 75.2783 33.5643L57.5104 38.515C57.4503 38.5324 57.387 38.5403 57.3269 38.5403ZM68.0794 21.8547L58.8395 36.7192L74.4872 32.3603L76.1327 22.024L68.0794 21.8547Z" fill="black"/>
<path d="M256.323 183.28C256.137 183.28 255.956 183.204 255.823 183.064L250.745 177.698C250.564 177.505 250.507 177.225 250.605 176.978L257.102 160.251C257.137 160.162 257.187 160.082 257.257 160.014L270.237 147.03C270.471 146.801 270.838 146.766 271.101 146.945C271.373 147.125 271.481 147.473 271.357 147.777L256.959 182.854C256.871 183.069 256.678 183.226 256.45 183.269C256.406 183.275 256.365 183.28 256.323 183.28ZM252.042 177.07L256.092 181.349L268.788 150.423L258.33 160.882L252.042 177.07Z" fill="black"/>
<path d="M242.059 218.88C241.976 218.88 241.897 218.866 241.818 218.836L228.541 213.849C228.329 213.77 228.167 213.589 228.113 213.369C228.06 213.15 228.12 212.915 228.272 212.748L255.814 182.134C256.01 181.917 256.317 181.848 256.586 181.959C256.855 182.069 257.023 182.337 257.01 182.628L256.283 197.219C256.276 197.339 256.238 197.454 256.172 197.556L242.635 218.565C242.505 218.766 242.287 218.88 242.059 218.88ZM229.965 212.917L241.78 217.357L254.919 196.967L255.542 184.488L229.965 212.917Z" fill="black"/>
<path d="M212.792 245.301C212.615 245.301 212.44 245.233 212.308 245.102C212.096 244.891 212.045 244.569 212.181 244.303L228.171 212.895C228.332 212.583 228.693 212.438 229.022 212.564L242.299 217.551C242.505 217.627 242.66 217.796 242.72 218.005C242.777 218.214 242.736 218.439 242.603 218.611L228.265 237.308C228.205 237.389 228.126 237.453 228.038 237.499L213.108 245.224C213.007 245.276 212.899 245.301 212.792 245.301ZM229.114 214.066L214.371 243.024L227.269 236.351L240.951 218.51L229.114 214.066Z" fill="black"/>
<path d="M270.722 148.203C270.554 148.203 270.389 148.141 270.26 148.022L255.862 134.854C255.726 134.73 255.647 134.558 255.637 134.374L254.909 115.885C254.897 115.535 255.15 115.23 255.495 115.18L263.624 113.977C264.004 113.92 264.323 114.161 264.396 114.513L271.392 147.374C271.456 147.665 271.323 147.964 271.063 148.113C270.956 148.173 270.839 148.203 270.722 148.203ZM256.998 134.034L269.605 145.564L263.187 115.429L256.305 116.447L256.998 134.034Z" fill="black"/>
<path d="M162.111 20.1617C161.997 20.1617 161.887 20.1332 161.782 20.0778L136.72 6.46319C136.461 6.32237 136.322 6.02809 136.376 5.73539C136.429 5.44269 136.663 5.2196 136.958 5.18003L150.871 3.3352C151.042 3.3083 151.188 3.34787 151.321 3.43014L165.352 12.0435C165.643 12.2207 165.76 12.583 165.627 12.8947L162.744 19.7408C162.668 19.9196 162.523 20.0588 162.339 20.1221C162.263 20.149 162.187 20.1617 162.111 20.1617ZM139.23 6.26385L161.773 18.5099L164.133 12.9059L150.811 4.72756L139.23 6.26385Z" fill="black"/>
<path d="M263.725 115.342C263.481 115.342 263.25 115.213 263.127 114.991L248.014 88.0024C247.941 87.8711 247.913 87.7208 247.932 87.5721L249.463 76.6503C249.504 76.356 249.729 76.1218 250.023 76.0696C250.318 76.0206 250.609 76.1582 250.748 76.4193L262.193 97.6585C262.235 97.7328 262.26 97.8135 262.269 97.8974L264.405 114.569C264.446 114.895 264.253 115.205 263.94 115.308C263.87 115.331 263.798 115.342 263.725 115.342ZM249.324 87.5341L262.595 111.232L260.924 98.198L250.533 78.9144L249.324 87.5341Z" fill="black"/>
<path d="M35.5875 78.6532C35.3692 78.6532 35.1603 78.5488 35.0306 78.3684L25.1293 64.6873C24.93 64.412 24.9648 64.0323 25.2084 63.7934L42.6504 46.7945C42.8466 46.6046 43.1377 46.5493 43.3908 46.6521C43.644 46.7565 43.8085 47.0017 43.8148 47.2754L44.049 61.4233C44.049 61.5277 44.0269 61.6321 43.9826 61.7271L36.2077 78.2592C36.1065 78.4792 35.8945 78.6279 35.6508 78.6501C35.6286 78.6516 35.6096 78.6532 35.5875 78.6532ZM26.5912 64.363L35.4609 76.6217L42.6725 61.2856L42.4668 48.8877L26.5912 64.363Z" fill="black"/>
<path d="M23.4772 90.4437H23.4645L13.4367 90.2633C13.2025 90.2586 12.9873 90.1352 12.8639 89.9358C12.7405 89.7365 12.7279 89.4881 12.8323 89.2777L25.0688 63.9865C25.1733 63.7698 25.3853 63.6226 25.6258 63.602C25.8663 63.5751 26.1004 63.6859 26.2428 63.8837L36.1441 77.5648C36.3434 77.8401 36.3086 78.2214 36.065 78.4587L23.955 90.2491C23.8284 90.3741 23.6544 90.4437 23.4772 90.4437ZM14.5347 88.909L23.2019 89.0656L34.6822 77.8891L25.803 65.6193L14.5347 88.909Z" fill="black"/>
<path d="M88.2742 259.066C88.1223 259.066 87.9736 259.015 87.8533 258.922L55.8775 234.099C55.6117 233.892 55.5357 233.523 55.6971 233.228C55.8522 232.933 56.2066 232.792 56.5262 232.909L95.4161 246.608C95.549 246.654 95.663 246.741 95.7452 246.855L103.713 257.957C103.865 258.166 103.884 258.441 103.767 258.671C103.65 258.9 103.416 259.044 103.156 259.044L88.2742 259.066ZM60.0639 235.61L88.5083 257.693L101.821 257.672L94.7579 247.831L60.0639 235.61Z" fill="black"/>
<path d="M144.34 20.4465C144.277 20.4465 144.211 20.437 144.151 20.4196L122.937 14.2903C122.671 14.2127 122.475 13.9833 122.443 13.708C122.415 13.4327 122.551 13.1653 122.791 13.0308L136.714 5.26076C136.923 5.14369 137.17 5.14683 137.379 5.25758L162.441 18.8722C162.713 19.021 162.852 19.3358 162.779 19.638C162.703 19.9418 162.434 20.157 162.121 20.1617L144.35 20.4465H144.34ZM124.899 13.4279L144.432 19.0716L159.488 18.8311L137.053 6.64356L124.899 13.4279Z" fill="black"/>
<path d="M8.05716 108.732C7.88312 108.732 7.71223 108.666 7.57934 108.539C7.39581 108.362 7.3262 108.098 7.39897 107.852L12.791 89.3836C12.8765 89.0909 13.1455 88.89 13.4492 88.89H13.4619L23.4897 89.0703C23.803 89.0767 24.0751 89.295 24.1448 89.6019L26.9769 101.824C27.0591 102.169 26.8629 102.519 26.5244 102.631L8.27234 108.697C8.20274 108.721 8.12994 108.732 8.05716 108.732ZM13.9619 90.2728L9.08241 106.981L25.4991 101.525L22.9296 90.4342L13.9619 90.2728Z" fill="black"/>
<path d="M8.45295 128.538C8.35801 128.538 8.26308 128.517 8.17132 128.478C7.93082 128.369 7.7726 128.131 7.76628 127.865L7.37074 108.06C7.36442 107.759 7.55426 107.489 7.84222 107.394L26.0942 101.328C26.3379 101.24 26.6227 101.312 26.8094 101.509C26.9929 101.704 27.0467 101.989 26.9455 102.237L20.4142 118.404C20.3731 118.505 20.3098 118.595 20.2244 118.667L8.89912 128.372C8.77255 128.481 8.61435 128.538 8.45295 128.538ZM8.75356 108.537L9.11113 126.384L19.2054 117.733L25.1165 103.1L8.75356 108.537Z" fill="black"/>
<path d="M75.0943 33.5897C74.9108 33.5897 74.7304 33.5153 74.6006 33.3808C74.4519 33.2258 74.3823 33.009 74.4171 32.7954L76.2556 21.2471C76.2904 21.0319 76.4233 20.8453 76.6163 20.7456L91.4509 13.0752C91.7546 12.9233 92.1217 13.0087 92.3211 13.2777L103.823 28.965C103.966 29.1612 103.998 29.4191 103.899 29.6437C103.804 29.8668 103.596 30.0219 103.355 30.0519L75.1797 33.5849C75.1512 33.5881 75.1228 33.5897 75.0943 33.5897ZM77.5562 21.8056L75.917 32.1088L102.026 28.8352L91.5616 14.564L77.5562 21.8056Z" fill="black"/>
<path d="M103.27 30.0582C103.238 30.0582 103.21 30.0566 103.178 30.0518C102.995 30.0265 102.827 29.9284 102.716 29.7781L91.2137 14.0908C91.0807 13.9105 91.0459 13.6779 91.1156 13.4675C91.1883 13.2554 91.3561 13.0909 91.5681 13.0276L108.909 7.78902C109.054 7.74473 109.206 7.75105 109.345 7.80169L123.364 12.9865C123.598 13.0719 123.765 13.2776 123.803 13.5229C123.845 13.7681 123.746 14.0149 123.553 14.1684L103.697 29.9095C103.574 30.006 103.425 30.0582 103.27 30.0582ZM92.8939 14.0608L103.403 28.3905L121.743 13.8503L109.086 9.16868L92.8939 14.0608Z" fill="black"/>
<path d="M203.485 245.947C203.292 245.947 203.108 245.866 202.978 245.722C202.836 245.567 202.773 245.355 202.808 245.149L205.206 230.58C205.235 230.406 205.326 230.251 205.466 230.145L228.363 212.661C228.619 212.469 228.977 212.477 229.22 212.68C229.467 212.884 229.537 213.232 229.391 213.518L213.402 244.926C213.294 245.141 213.079 245.282 212.839 245.299L203.532 245.945C203.516 245.947 203.501 245.947 203.485 245.947ZM206.516 231.071L204.304 244.515L212.354 243.956L226.8 215.581L206.516 231.071Z" fill="black"/>
<path d="M257.741 161.186C257.71 161.186 257.681 161.185 257.649 161.18C257.437 161.151 257.251 161.026 257.146 160.841L250.65 149.518C250.552 149.347 250.533 149.141 250.596 148.953L255.675 134.125C255.748 133.906 255.928 133.74 256.153 133.683C256.377 133.623 256.618 133.685 256.786 133.841L271.183 147.01C271.323 147.136 271.405 147.314 271.408 147.5C271.411 147.689 271.339 147.869 271.206 148.002L258.225 160.985C258.096 161.115 257.922 161.186 257.741 161.186ZM251.995 149.105L257.89 159.379L269.728 147.538L256.634 135.561L251.995 149.105Z" fill="black"/>
<path d="M148.257 269.464C148.207 269.464 148.159 269.459 148.112 269.448L127.24 264.881C127.009 264.83 126.819 264.665 126.74 264.442C126.661 264.221 126.699 263.974 126.844 263.787L138.549 248.771C138.752 248.507 139.125 248.427 139.416 248.589L165.968 262.934C166.212 263.067 166.354 263.333 166.326 263.608C166.297 263.884 166.108 264.116 165.842 264.195L148.457 269.434C148.39 269.455 148.324 269.464 148.257 269.464ZM128.597 263.771L148.229 268.069L163.864 263.358L139.274 250.073L128.597 263.771Z" fill="black"/>
<path d="M127.385 264.896C127.331 264.896 127.277 264.89 127.224 264.877L102.994 259.025C102.836 258.985 102.693 258.89 102.599 258.757L94.6307 247.655C94.4756 247.442 94.4598 247.16 94.5832 246.928C94.7098 246.698 94.906 246.56 95.2193 246.57L139.122 248.508C139.378 248.519 139.606 248.673 139.713 248.905C139.821 249.139 139.789 249.413 139.631 249.616L127.926 264.632C127.793 264.801 127.594 264.896 127.385 264.896ZM103.564 257.75L127.116 263.439L137.729 249.82L96.5704 248.003L103.564 257.75Z" fill="black"/>
<path d="M248.612 88.3536C248.441 88.3536 248.273 88.2903 248.144 88.1701L223.607 65.4168C223.42 65.2411 223.345 64.9738 223.414 64.7254C223.487 64.477 223.689 64.2902 223.943 64.2396L233.588 62.3505C233.79 62.3141 234.002 62.3647 234.16 62.4977L250.583 76.2183C250.767 76.3702 250.855 76.606 250.824 76.8401L249.292 87.7619C249.257 88.015 249.083 88.2286 248.843 88.3141C248.767 88.341 248.688 88.3536 248.612 88.3536ZM225.531 65.3282L248.115 86.2699L249.409 77.0268L233.531 63.7618L225.531 65.3282Z" fill="black"/>
<path d="M56.2985 234.243C56.0928 234.243 55.8903 234.151 55.7574 233.979L28.6768 199.301C28.5281 199.112 28.4901 198.859 28.5755 198.635L31.9836 189.626C32.069 189.401 32.2652 189.237 32.5025 189.194C32.743 189.151 32.9835 189.235 33.1417 189.417L44.5018 202.378C44.5524 202.437 44.5935 202.503 44.622 202.576L56.9345 233.302C57.0643 233.618 56.9377 233.981 56.6402 234.151C56.5327 234.213 56.4156 234.243 56.2985 234.243ZM29.9963 198.76L53.8619 229.321L43.3911 203.194L32.8633 191.181L29.9963 198.76Z" fill="black"/>
<path d="M29.2171 199.565C28.9292 199.565 28.676 199.388 28.5748 199.119L12.9239 157.403C12.8194 157.128 12.9049 156.816 13.1327 156.631C13.3637 156.446 13.6801 156.422 13.9333 156.582L27.9989 165.45C28.1539 165.55 28.2647 165.708 28.3026 165.89L33.296 189.729C33.3245 189.857 33.315 189.99 33.2675 190.113L29.8595 199.122C29.7582 199.388 29.5019 199.565 29.2171 199.565ZM14.9269 158.832L29.2203 196.931L31.9132 189.814L27.0211 166.456L14.9269 158.832Z" fill="black"/>
<path d="M190.717 256.66C190.634 256.66 190.549 256.644 190.47 256.614C190.236 256.523 190.071 256.315 190.036 256.068L187.875 240.504C187.837 240.224 187.973 239.949 188.22 239.811L205.548 230.093C205.782 229.959 206.061 229.982 206.279 230.13C206.494 230.28 206.605 230.543 206.561 230.802L204.162 245.371C204.137 245.534 204.051 245.681 203.925 245.785L191.156 256.498C191.033 256.604 190.875 256.66 190.717 256.66ZM189.299 240.779L191.226 254.65L202.849 244.898L204.975 231.989L189.299 240.779Z" fill="black"/>
<path d="M165.642 264.225C165.531 264.225 165.417 264.199 165.316 264.143L138.764 249.798C138.501 249.655 138.359 249.359 138.416 249.067C138.47 248.772 138.71 248.548 139.008 248.511L168.841 244.847C169.072 244.823 169.351 244.932 169.496 245.148L176.651 255.883C176.857 256.194 176.777 256.614 176.471 256.827L166.034 264.102C165.917 264.184 165.781 264.225 165.642 264.225ZM141.308 249.612L165.598 262.733L175.135 256.085L168.588 246.261L141.308 249.612Z" fill="black"/>
<path d="M176.078 256.951C175.851 256.951 175.635 256.835 175.506 256.645L168.351 245.91C168.231 245.725 168.202 245.492 168.282 245.285C168.361 245.076 168.535 244.921 168.75 244.864L188.382 239.744C188.571 239.694 188.771 239.73 188.935 239.838C189.1 239.947 189.207 240.121 189.236 240.314L191.397 255.878C191.422 256.072 191.366 256.269 191.239 256.419C191.112 256.568 190.926 256.655 190.729 256.659L176.091 256.951L176.078 256.951ZM170.028 245.95L176.442 255.569L189.932 255.302L187.983 241.268L170.028 245.95Z" fill="black"/>
<path d="M53.6817 63.6764C53.5709 63.6764 53.4602 63.6495 53.3589 63.5957C53.1026 63.4597 52.9602 63.178 53.0013 62.8916L56.6467 37.7556C56.6878 37.4866 56.8808 37.2651 57.1435 37.1923L74.9113 32.2417C75.1645 32.1673 75.4429 32.2527 75.6138 32.4553C75.7879 32.6578 75.829 32.941 75.7214 33.1847L67.7029 51.049C67.665 51.1345 67.608 51.2104 67.5384 51.2753L54.1437 63.496C54.0139 63.6147 53.8494 63.6764 53.6817 63.6764ZM57.9409 38.3947L54.6373 61.1892L66.51 50.356L73.8703 33.9567L57.9409 38.3947Z" fill="black"/>
<path d="M53.681 63.6764C53.6462 63.6764 53.6114 63.6732 53.5798 63.6685L43.2608 62.1132C42.9285 62.0626 42.6817 61.7809 42.6754 61.4455L42.4412 47.2977C42.4381 47.0635 42.552 46.8436 42.7482 46.7154L56.9466 37.2825C57.1682 37.1306 57.4656 37.1322 57.6934 37.273C57.9213 37.4186 58.0447 37.6844 58.0067 37.9518L54.3614 63.0878C54.3329 63.2698 54.2379 63.4328 54.0892 63.5403C53.9722 63.6289 53.8266 63.6764 53.681 63.6764ZM44.0392 60.8427L53.1019 62.2081L56.4277 39.276L43.8209 47.6505L44.0392 60.8427Z" fill="black"/>
<path d="M255.595 116.545C255.402 116.545 255.216 116.463 255.086 116.319L241.549 101.304C241.359 101.093 241.318 100.79 241.444 100.538L247.998 87.3616C248.112 87.1338 248.34 86.9867 248.596 86.9803H248.612C248.858 86.9803 249.089 87.1148 249.21 87.3316L264.323 114.32C264.433 114.518 264.44 114.755 264.342 114.958C264.24 115.161 264.047 115.301 263.826 115.335L255.697 116.537C255.662 116.542 255.63 116.545 255.595 116.545ZM242.881 100.731L255.858 115.126L262.639 114.123L248.646 89.1368L242.881 100.731Z" fill="black"/>
<path d="M228.781 213.893C228.667 213.893 228.557 213.866 228.452 213.809C228.174 213.656 228.034 213.332 228.12 213.025L234.914 188.218C234.955 188.066 235.047 187.933 235.176 187.841L250.846 176.668C251.125 176.468 251.501 176.503 251.745 176.755L256.824 182.122C257.067 182.381 257.074 182.786 256.833 183.052L229.291 213.665C229.158 213.814 228.971 213.893 228.781 213.893ZM236.173 188.817L230.208 210.594L255.39 182.604L251.156 178.131L236.173 188.817Z" fill="black"/>
<path d="M13.5668 157.849C13.532 157.849 13.4972 157.846 13.4624 157.841C13.1713 157.797 12.9403 157.571 12.8897 157.281L7.77605 127.97C7.7349 127.731 7.82352 127.487 8.00705 127.331L19.3323 117.625C19.6013 117.399 19.9873 117.41 20.2436 117.64L29.6829 126.285C29.9107 126.494 29.9709 126.831 29.8285 127.106L14.1775 157.477C14.0573 157.708 13.82 157.849 13.5668 157.849ZM9.19685 128.119L13.8928 155.033L28.3665 126.943L19.7626 119.064L9.19685 128.119Z" fill="black"/>
<path d="M146.809 32.0406C146.799 32.0406 146.787 32.0407 146.777 32.0391L103.239 30.0566C102.954 30.0439 102.704 29.8556 102.618 29.5819C102.53 29.3098 102.618 29.0108 102.843 28.8336L122.699 13.0925C122.873 12.95 123.098 12.9089 123.316 12.9706L144.53 19.1C144.774 19.1712 144.961 19.369 145.011 19.6174L147.48 31.2116C147.524 31.4188 147.47 31.6356 147.331 31.7985C147.201 31.952 147.011 32.0406 146.809 32.0406ZM105.134 28.7687L145.951 30.6277L143.755 20.3056L123.275 14.3883L105.134 28.7687Z" fill="black"/>
<path d="M188.818 45.4528C188.647 45.4528 188.476 45.3879 188.347 45.2645L161.639 19.9733C161.431 19.7771 161.367 19.4718 161.478 19.2091L164.361 12.3631C164.503 12.0229 164.886 11.8615 165.234 11.9849L182.559 18.4465C182.771 18.5256 182.929 18.7029 182.983 18.9228L189.483 44.5984C189.559 44.8943 189.429 45.2044 189.166 45.3578C189.059 45.4211 188.938 45.4528 188.818 45.4528ZM162.927 19.3041L187.571 42.6413L181.743 19.6079L165.37 13.5023L162.927 19.3041Z" fill="black"/>
<path d="M188.819 45.4528C188.749 45.4528 188.679 45.4417 188.61 45.4212C188.385 45.3484 188.211 45.1649 188.154 44.9339L181.654 19.2582C181.601 19.0462 181.651 18.82 181.791 18.6507C181.933 18.4814 182.135 18.3896 182.363 18.4055L197.207 19.3769C197.378 19.388 197.54 19.4639 197.66 19.5873L206.884 29.2402C207.014 29.3763 207.083 29.5614 207.074 29.7497C207.064 29.938 206.976 30.1136 206.833 30.2354L189.265 45.2867C189.138 45.3958 188.98 45.4528 188.819 45.4528ZM183.218 19.8374L189.211 43.5242L205.39 29.6658L196.853 20.7297L183.218 19.8374Z" fill="black"/>
<path d="M223.104 49.6677C223.075 49.6677 223.047 49.6661 223.021 49.663L188.736 45.4481C188.464 45.4149 188.239 45.225 188.16 44.9639C188.081 44.7044 188.166 44.4212 188.372 44.2456L205.94 29.1943C206.155 29.0124 206.462 28.9792 206.709 29.1089L221.196 36.8473C221.379 36.9454 221.509 37.1195 221.547 37.3236L223.778 48.8513C223.819 49.0665 223.756 49.2896 223.607 49.4494C223.474 49.5902 223.294 49.6677 223.104 49.6677ZM190.448 44.2741L222.249 48.1852L220.262 37.9042L206.478 30.5408L190.448 44.2741Z" fill="black"/>
<path d="M224.076 65.6002C223.955 65.6002 223.838 65.5686 223.734 65.5101L188.476 45.3626C188.195 45.1996 188.065 44.8595 188.166 44.5494C188.271 44.2377 188.616 44.0557 188.901 44.0842L223.186 48.2991C223.373 48.3228 223.541 48.4194 223.651 48.5665L234.268 62.6099C234.41 62.7998 234.445 63.0482 234.363 63.2697C234.277 63.4912 234.084 63.6526 233.853 63.6984L224.208 65.5876C224.164 65.5955 224.12 65.6002 224.076 65.6002ZM192.122 45.8641L224.196 64.1905L232.512 62.5625L222.731 49.6266L192.122 45.8641Z" fill="black"/>
<path d="M188.818 45.4528C188.748 45.4528 188.679 45.4417 188.609 45.4196L146.599 32.0075C146.365 31.9331 146.188 31.7385 146.137 31.4964L143.669 19.9022C143.625 19.7013 143.675 19.4925 143.802 19.3327C143.932 19.1713 144.125 19.0763 144.33 19.0732L162.101 18.7884C162.222 18.8153 162.453 18.8532 162.582 18.9767L189.289 44.2678C189.524 44.4877 189.571 44.839 189.41 45.1159C189.283 45.3295 189.055 45.4528 188.818 45.4528ZM147.397 30.8208L186.163 43.1982L161.842 20.1664L145.185 20.4322L147.397 30.8208Z" fill="black"/>
<path d="M95.188 247.942C95.1121 247.942 95.0361 247.929 94.9602 247.902L56.0702 234.204C55.7664 234.098 55.5797 233.794 55.6177 233.476C55.6557 233.156 55.9088 232.906 56.2284 232.873L82.2141 230.224C82.3344 230.22 82.4578 230.234 82.5685 230.283L99.0865 237.775C99.4219 237.927 99.577 238.317 99.4377 238.659L95.824 247.514C95.7165 247.779 95.4602 247.942 95.188 247.942ZM59.4213 233.928L94.7988 246.39L97.9157 238.752L82.1698 231.61L59.4213 233.928Z" fill="black"/>
<path d="M242.059 101.53C241.84 101.53 241.632 101.424 241.502 101.244L227.164 81.2987C227.11 81.2243 227.072 81.1405 227.05 81.0503L223.405 65.0655C223.338 64.7728 223.471 64.469 223.734 64.3187C223.987 64.1668 224.319 64.2064 224.544 64.4105L249.08 87.1638C249.302 87.3711 249.362 87.7002 249.226 87.9723L242.673 101.149C242.565 101.364 242.353 101.508 242.116 101.527C242.097 101.528 242.078 101.53 242.059 101.53ZM228.36 80.6105L241.951 99.5175L247.767 87.8204L225.24 66.9293L228.36 80.6105Z" fill="black"/>
<path d="M27.6324 166.717C27.5058 166.717 27.3761 166.681 27.2653 166.611L13.1997 157.743C12.8991 157.553 12.7947 157.164 12.9561 156.848L28.607 126.476C28.7431 126.218 29.031 126.066 29.3126 126.111C29.6006 126.152 29.8316 126.37 29.8917 126.655L33.2997 143.583C33.3187 143.678 33.3156 143.774 33.2966 143.869L28.3032 166.181C28.2526 166.398 28.1007 166.578 27.895 166.665C27.8127 166.7 27.721 166.717 27.6324 166.717ZM14.4655 156.917L27.1735 164.931L31.9232 143.711L28.9298 128.846L14.4655 156.917Z" fill="black"/>
<path d="M235.575 189.086C235.454 189.086 235.331 189.055 235.223 188.99C234.989 188.85 234.86 188.585 234.894 188.316L237.154 170.13C237.182 169.899 237.325 169.698 237.533 169.597L257.44 159.882C257.69 159.757 257.997 159.802 258.206 159.995C258.415 160.186 258.485 160.485 258.38 160.748L251.884 177.475C251.836 177.6 251.751 177.707 251.643 177.785L235.973 188.958C235.853 189.043 235.714 189.086 235.575 189.086ZM238.47 170.668L236.448 186.933L250.678 176.786L256.466 161.885L238.47 170.668Z" fill="black"/>
<path d="M56.2982 234.243H56.2918C56.0134 234.24 55.7634 234.069 55.6621 233.811L43.3496 203.085C43.223 202.774 43.3433 202.418 43.6312 202.244L53.6812 196.155C53.966 195.983 54.3363 196.037 54.5546 196.295L66.576 210.254C66.7468 210.452 66.7912 210.73 66.6899 210.971L56.931 233.825C56.8203 234.079 56.5734 234.243 56.2982 234.243ZM44.84 203.115L56.3171 231.761L65.2564 210.825L53.8932 197.63L44.84 203.115Z" fill="black"/>
<path d="M76.3635 60.3063C76.1862 60.3063 76.0185 60.2382 75.8888 60.1164L66.6014 51.2642C66.3926 51.0632 66.3293 50.7515 66.4495 50.4857L74.468 32.6214C74.5661 32.403 74.7718 32.2511 75.0091 32.2227L103.185 28.6896C103.463 28.6533 103.745 28.7988 103.878 29.052C104.01 29.3051 103.972 29.6137 103.783 29.8273L76.8761 60.0753C76.7527 60.2146 76.5786 60.2984 76.3919 60.3048C76.3824 60.3064 76.3729 60.3063 76.3635 60.3063ZM67.902 50.606L76.3223 58.6323L101.542 30.2797L75.5629 33.5358L67.902 50.606Z" fill="black"/>
<path d="M43.9855 203.517C43.7925 203.517 43.6026 203.435 43.4697 203.283L32.1097 190.322C32.0306 190.233 31.9767 190.126 31.9546 190.01L26.9612 166.172C26.9075 165.92 26.9992 165.659 27.1986 165.498C27.4043 165.335 27.6732 165.298 27.9074 165.403L40.1629 170.795C40.3845 170.891 40.5363 171.095 40.568 171.334L44.6658 202.742C44.7038 203.041 44.5424 203.332 44.2671 203.456C44.1785 203.497 44.0804 203.517 43.9855 203.517ZM33.2615 189.553L43.014 200.679L39.2579 171.896L28.5782 167.197L33.2615 189.553Z" fill="black"/>
<path d="M237.835 170.901C237.721 170.901 237.607 170.872 237.505 170.817C237.309 170.709 237.18 170.513 237.151 170.293L234.892 150.657C234.873 150.472 234.926 150.288 235.044 150.144C235.161 150 235.328 149.91 235.515 149.894L251.185 148.492C251.451 148.48 251.707 148.605 251.84 148.834L258.336 160.158C258.431 160.322 258.453 160.52 258.397 160.7C258.343 160.882 258.213 161.033 258.042 161.116L238.135 170.831C238.04 170.877 237.939 170.901 237.835 170.901ZM236.338 151.198L238.404 169.171L256.78 160.205L250.869 149.899L236.338 151.198Z" fill="black"/>
<path d="M139.09 249.88C139.081 249.88 139.071 249.88 139.059 249.878L95.1563 247.94C94.9348 247.931 94.7291 247.814 94.6088 247.625C94.4886 247.437 94.4664 247.203 94.5519 246.996L98.1656 238.14C98.2542 237.923 98.4472 237.765 98.6814 237.724L120.775 233.745C120.955 233.704 121.174 233.761 121.329 233.887L139.524 248.66C139.752 248.847 139.837 249.16 139.733 249.437C139.631 249.704 139.375 249.88 139.09 249.88ZM96.191 246.613L137.043 248.416L120.708 235.151L99.2953 239.009L96.191 246.613Z" fill="black"/>
<path d="M227.721 81.5851C227.702 81.5851 227.686 81.5835 227.667 81.5835L212.738 80.4174C212.532 80.4 212.342 80.2924 212.225 80.12L188.252 45.1538C188.072 44.8912 188.097 44.5367 188.312 44.301C188.534 44.0621 188.882 44.0114 189.16 44.1697L224.418 64.3171C224.582 64.4137 224.702 64.5734 224.747 64.7617L228.392 80.7465C228.44 80.9585 228.383 81.1816 228.24 81.3477C228.11 81.4981 227.921 81.5851 227.721 81.5851ZM213.172 79.0741L226.845 80.1421L223.475 65.3598L191.078 46.8483L213.172 79.0741Z" fill="black"/>
<path d="M56.2984 234.243C56.08 234.243 55.8743 234.14 55.7446 233.963C55.6022 233.767 55.5706 233.511 55.6655 233.288L65.4244 210.433C65.5731 210.09 65.9655 209.922 66.3167 210.066L82.1259 216.507C82.3758 216.61 82.5436 216.85 82.553 217.122L82.9707 230.887C82.9802 231.247 82.7113 231.555 82.3537 231.591L56.368 234.24C56.3458 234.242 56.3205 234.243 56.2984 234.243ZM66.4243 211.593L57.3869 232.756L81.5784 230.289L81.1924 217.61L66.4243 211.593Z" fill="black"/>
<path d="M112.617 45.6411C112.38 45.6411 112.155 45.5161 112.029 45.3072L102.681 29.7243C102.551 29.5076 102.551 29.237 102.681 29.0202C102.808 28.8051 103.042 28.669 103.301 28.6864L146.84 30.6689C147.112 30.68 147.352 30.8524 147.45 31.1071C147.545 31.3619 147.485 31.6514 147.289 31.8428L137.786 41.2204C137.688 41.3185 137.559 41.385 137.423 41.4087L112.734 45.6315C112.693 45.6378 112.655 45.6411 112.617 45.6411ZM104.516 30.1151L112.965 44.1981L136.976 40.0908L145.207 31.9679L104.516 30.1151Z" fill="black"/>
<path d="M228.781 122.102C228.759 122.102 228.734 122.1 228.712 122.098C228.452 122.071 228.234 121.902 228.139 121.66L212.149 79.9776C212.067 79.7577 212.102 79.5109 212.241 79.321C212.383 79.1327 212.605 79.0457 212.845 79.0473L227.775 80.2133C227.977 80.2292 228.161 80.3336 228.278 80.4981L242.616 100.443C242.78 100.672 242.79 100.978 242.635 101.215L229.357 121.787C229.231 121.984 229.012 122.102 228.781 122.102ZM213.823 80.5013L228.936 119.907L241.23 100.864L227.351 81.5582L213.823 80.5013Z" fill="black"/>
<path d="M256.324 135.034C256.226 135.034 256.124 135.012 256.033 134.969L228.49 122.037C228.31 121.953 228.177 121.795 228.12 121.605C228.066 121.413 228.098 121.209 228.205 121.043L241.483 100.472C241.597 100.291 241.79 100.176 242.005 100.16C242.182 100.136 242.426 100.225 242.568 100.383L256.105 115.398C256.213 115.518 256.276 115.672 256.283 115.831L257.01 134.321C257.02 134.56 256.903 134.787 256.703 134.92C256.589 134.996 256.457 135.034 256.324 135.034ZM229.784 121.127L255.593 133.246L254.919 116.134L242.151 101.968L229.784 121.127Z" fill="black"/>
<path d="M235.575 151.264C235.258 151.264 234.98 151.046 234.907 150.733L228.113 121.57C228.053 121.315 228.145 121.046 228.35 120.882C228.553 120.717 228.834 120.681 229.072 120.793L256.614 133.726C256.931 133.875 257.086 134.238 256.972 134.571L251.893 149.399C251.805 149.655 251.577 149.836 251.305 149.859L235.635 151.261C235.616 151.263 235.594 151.264 235.575 151.264ZM229.771 122.638L236.106 149.84L250.738 148.532L255.475 134.707L229.771 122.638Z" fill="black"/>
<path d="M205.883 231.378C205.842 231.378 205.801 231.375 205.763 231.367C205.573 231.334 205.405 231.221 205.304 231.058L196.821 217.657C196.707 217.478 196.681 217.257 196.754 217.059L202.621 200.688C202.687 200.505 202.827 200.358 203.007 200.285C203.181 200.211 203.383 200.215 203.564 200.301L229.078 212.588C229.293 212.692 229.439 212.9 229.464 213.137C229.486 213.374 229.388 213.607 229.198 213.752L206.301 231.237C206.181 231.329 206.032 231.378 205.883 231.378ZM198.159 217.206L206.064 229.691L227.474 213.339L203.656 201.869L198.159 217.206Z" fill="black"/>
<path d="M228.781 213.893C228.679 213.893 228.578 213.871 228.483 213.825L202.969 201.538C202.76 201.437 202.615 201.237 202.586 201.008C202.555 200.777 202.643 200.548 202.82 200.397L216.826 188.441C216.946 188.339 217.095 188.281 217.25 188.276L235.552 187.713H235.575C235.783 187.713 235.983 187.809 236.113 187.976C236.249 188.146 236.293 188.371 236.236 188.581L229.442 213.388C229.388 213.585 229.252 213.746 229.066 213.831C228.974 213.873 228.879 213.893 228.781 213.893ZM204.513 200.758L228.338 212.23L234.666 189.115L217.535 189.642L204.513 200.758Z" fill="black"/>
<path d="M39.8876 172.109C39.7926 172.109 39.7008 172.09 39.6123 172.051L27.3567 166.659C27.0561 166.528 26.8916 166.202 26.9612 165.88L31.9545 143.569C31.9988 143.382 32.1159 143.22 32.2836 143.124L43.6436 136.585C43.8652 136.45 44.1404 136.463 44.3651 136.607C44.5803 136.749 44.6974 137.004 44.6657 137.262L40.5679 171.505C40.5426 171.72 40.416 171.912 40.2293 172.019C40.1217 172.079 40.0046 172.109 39.8876 172.109ZM28.4263 165.63L39.3148 170.421L43.1405 138.458L33.2297 144.163L28.4263 165.63Z" fill="black"/>
<path d="M26.3096 102.666C25.9932 102.666 25.7147 102.449 25.642 102.134L22.8099 89.9121C22.7561 89.6779 22.8257 89.4327 22.9997 89.265L35.1097 77.4746C35.3755 77.2198 35.7996 77.2151 36.0654 77.473L56.7761 97.4591C56.9659 97.641 57.0324 97.9163 56.9501 98.1663C56.8679 98.4163 56.6495 98.5982 56.39 98.633L26.4014 102.66C26.3698 102.664 26.3381 102.666 26.3096 102.666ZM24.2338 89.9785L26.8381 101.215L54.8015 97.4606L35.5907 78.9222L24.2338 89.9785Z" fill="black"/>
<path d="M56.2981 98.6393C56.1241 98.6393 55.9532 98.5729 55.8203 98.4463L35.1096 78.4602C34.9008 78.2561 34.8406 77.9397 34.9672 77.6738L42.742 61.1417C42.8718 60.8679 43.1566 60.7034 43.4635 60.7556L53.7825 62.3109C54.0989 62.3584 54.3426 62.6194 54.3647 62.939L56.9816 97.902C57.0038 98.1852 56.8487 98.4526 56.5893 98.5744C56.4975 98.6171 56.3962 98.6393 56.2981 98.6393ZM36.4165 77.8147L55.4786 96.2091L53.0389 63.5861L43.7673 62.1891L36.4165 77.8147Z" fill="black"/>
<path d="M56.2982 98.6394C56.2539 98.6394 56.2065 98.6347 56.159 98.6252C55.8584 98.5635 55.6369 98.3103 55.6147 98.0034L52.9978 63.0404C52.982 62.83 53.0643 62.6243 53.2193 62.4834L66.614 50.2611C66.8767 50.0159 67.2881 50.0206 67.5507 50.2706L76.8381 59.1229C77.0596 59.3349 77.1134 59.6672 76.971 59.9377L56.9058 98.2707C56.7855 98.5002 56.5514 98.6394 56.2982 98.6394ZM54.3901 63.2714L56.8045 95.5067L75.5154 59.7589L67.0665 51.7056L54.3901 63.2714Z" fill="black"/>
<path d="M32.6254 144.405C32.5304 144.405 32.4323 144.385 32.3437 144.344C32.1412 144.254 31.9957 144.07 31.9514 143.855L28.5433 126.927C28.499 126.709 28.5655 126.483 28.7174 126.321L55.798 97.4828C56.0163 97.2455 56.3675 97.2012 56.6428 97.3594C56.9213 97.5224 57.0479 97.853 56.9529 98.1584L44.6404 137.385C44.5898 137.55 44.4759 137.689 44.3272 137.775L32.9671 144.314C32.8627 144.374 32.7424 144.405 32.6254 144.405ZM29.961 127.003L33.1095 142.648L43.4095 136.718L54.7442 100.609L29.961 127.003Z" fill="black"/>
<path d="M29.2176 127.478C29.053 127.478 28.8853 127.418 28.7524 127.297L19.3131 118.652C19.1043 118.459 19.0347 118.154 19.1423 117.888L25.6735 101.721C25.7653 101.494 25.9741 101.332 26.2178 101.299L56.2064 97.2723C56.4944 97.2296 56.7728 97.3783 56.9089 97.6394C57.0418 97.8973 56.9975 98.2106 56.7981 98.4226L29.7175 127.261C29.5815 127.405 29.4011 127.478 29.2176 127.478ZM20.5947 117.961L29.1828 125.827L54.4755 98.8893L26.7968 102.606L20.5947 117.961Z" fill="black"/>
<path d="M76.3632 60.3063C76.1006 60.3063 75.8601 60.156 75.743 59.9155C75.6259 59.6671 75.667 59.3696 75.8506 59.164L102.757 28.9159C102.9 28.7529 103.121 28.6738 103.333 28.688C103.551 28.7086 103.748 28.8304 103.858 29.0187L113.206 44.6016C113.393 44.9133 113.304 45.3167 113.003 45.5224L92.5932 59.406C92.4888 59.4772 92.3685 59.5168 92.2419 59.5231L76.398 60.3047C76.3853 60.3063 76.3758 60.3063 76.3632 60.3063ZM103.162 30.5265L77.9644 58.8539L91.9793 58.1624L111.696 44.7519L103.162 30.5265Z" fill="black"/>
<path d="M152.419 49.0397C152.311 49.0397 152.207 49.0143 152.109 48.9653L136.996 41.3439C136.8 41.2443 136.664 41.056 136.629 40.8376C136.594 40.6193 136.667 40.3978 136.825 40.2427L146.328 30.8652C146.508 30.6864 146.764 30.6215 147.018 30.7006L189.028 44.1128C189.338 44.2109 189.537 44.5146 189.502 44.839C189.467 45.1618 189.211 45.4181 188.885 45.4497L152.486 49.0365C152.463 49.0381 152.441 49.0397 152.419 49.0397ZM138.467 40.5497L152.549 47.6505L185.442 44.4086L146.995 32.1341L138.467 40.5497Z" fill="black"/>
<path d="M168.924 246.216C168.766 246.216 168.611 246.162 168.487 246.059C168.317 245.92 168.225 245.706 168.237 245.486L169.294 228.24C169.307 228.074 169.377 227.916 169.494 227.799L181.566 215.7C181.743 215.524 181.99 215.46 182.23 215.521C182.468 215.585 182.651 215.77 182.718 216.007L189.22 240.232C189.268 240.407 189.242 240.596 189.151 240.754C189.056 240.912 188.907 241.027 188.73 241.073L169.098 246.193C169.041 246.208 168.981 246.216 168.924 246.216ZM170.652 228.584L169.668 244.625L187.714 239.918L181.699 217.512L170.652 228.584Z" fill="black"/>
<path d="M188.555 241.096C188.464 241.096 188.375 241.078 188.29 241.042C188.093 240.96 187.948 240.792 187.891 240.586L181.388 216.361C181.331 216.148 181.382 215.918 181.524 215.748C181.663 215.577 181.831 215.507 182.103 215.499L197.45 216.605C197.666 216.621 197.862 216.74 197.979 216.923L206.462 230.324C206.564 230.484 206.595 230.677 206.548 230.859C206.504 231.042 206.383 231.198 206.219 231.289L188.891 241.007C188.786 241.066 188.672 241.096 188.555 241.096ZM182.967 216.939L188.989 239.379L204.915 230.446L197.004 217.95L182.967 216.939Z" fill="black"/>
<path d="M43.9854 203.517C43.8841 203.517 43.7829 203.495 43.6879 203.449C43.4791 203.348 43.3335 203.15 43.305 202.919L39.2072 171.511C39.1787 171.288 39.261 171.065 39.4255 170.913C39.5964 170.763 39.8274 170.703 40.0426 170.755L56.6681 174.636C57.0099 174.717 57.2345 175.038 57.1966 175.385L54.7157 196.821C54.6936 197.032 54.5733 197.22 54.3898 197.329L44.3398 203.418C44.2322 203.484 44.1088 203.517 43.9854 203.517ZM40.6976 172.317L44.5297 201.698L53.393 196.329L55.76 175.835L40.6976 172.317Z" fill="black"/>
<path d="M139.091 249.88C138.863 249.88 138.644 249.766 138.518 249.571C138.375 249.355 138.366 249.075 138.496 248.848L155.523 219.494C155.618 219.334 155.77 219.219 155.95 219.175C156.121 219.13 156.317 219.156 156.475 219.252L170.339 227.696C170.557 227.829 170.68 228.071 170.668 228.326L169.611 245.572C169.589 245.901 169.335 246.17 169.006 246.211L139.173 249.875C139.147 249.878 139.119 249.88 139.091 249.88ZM156.358 220.79L140.378 248.344L168.275 244.917L169.269 228.653L156.358 220.79Z" fill="black"/>
<path d="M98.8015 239.086C98.7034 239.086 98.6084 239.066 98.5167 239.025L81.9987 231.533C81.7424 231.416 81.5842 231.155 81.5968 230.873C81.6127 230.592 81.7962 230.348 82.0652 230.258L108.624 221.331C108.877 221.246 109.152 221.314 109.336 221.504L121.389 233.943C121.566 234.125 121.626 234.389 121.547 234.631C121.471 234.873 121.265 235.052 121.015 235.096L98.9217 239.075C98.8837 239.083 98.8426 239.086 98.8015 239.086ZM84.1536 231.003L98.8901 237.686L119.506 233.973L108.649 222.769L84.1536 231.003Z" fill="black"/>
<path d="M56.513 175.992C56.4624 175.992 56.4086 175.986 56.358 175.975L39.7324 172.092C39.3907 172.011 39.1628 171.689 39.2071 171.341L43.305 137.097C43.3366 136.819 43.536 136.59 43.8081 136.517C44.0613 136.441 44.3651 136.542 44.5359 136.768L54.5859 150.187C54.6587 150.286 54.7062 150.405 54.7188 150.53L57.1965 175.237C57.2187 175.457 57.1332 175.676 56.9655 175.821C56.839 175.932 56.6776 175.992 56.513 175.992ZM40.6406 170.894L55.7346 174.418L53.3708 150.856L44.4631 138.963L40.6406 170.894Z" fill="black"/>
<path d="M139.09 249.88C138.935 249.88 138.78 249.826 138.657 249.726L120.462 234.954C120.3 234.822 120.208 234.626 120.208 234.419C120.208 234.212 120.303 234.015 120.465 233.886L137.378 220.312C137.492 220.222 137.628 220.17 137.771 220.162L156.08 219.154C156.311 219.127 156.567 219.265 156.703 219.48C156.836 219.695 156.839 219.966 156.712 220.184L139.685 249.538C139.584 249.711 139.413 249.832 139.214 249.869C139.172 249.877 139.131 249.88 139.09 249.88ZM121.987 234.424L138.9 248.154L154.887 220.594L138.065 221.521L121.987 234.424Z" fill="black"/>
<path d="M217.272 189.649C217.044 189.649 216.829 189.536 216.702 189.344L208.842 177.579C208.716 177.392 208.69 177.158 208.773 176.949C208.852 176.74 209.032 176.584 209.247 176.532L237.67 169.548C237.891 169.492 238.122 169.551 238.29 169.701C238.457 169.852 238.543 170.075 238.514 170.298L236.255 188.483C236.214 188.82 235.935 189.075 235.597 189.086L217.294 189.649L217.272 189.649ZM210.526 177.631L217.633 188.265L234.967 187.732L237.03 171.119L210.526 177.631Z" fill="black"/>
<path d="M209.412 177.884C209.206 177.884 209.01 177.793 208.877 177.63C208.713 177.424 208.678 177.139 208.795 176.899L216.655 160.609C216.715 160.484 216.813 160.379 216.934 160.31L235.236 149.98C235.436 149.867 235.686 149.864 235.885 149.965C236.091 150.07 236.23 150.271 236.258 150.499L238.518 170.135C238.556 170.478 238.334 170.798 237.999 170.88L209.576 177.864C209.523 177.878 209.466 177.884 209.412 177.884ZM217.797 161.4L210.665 176.184L237.084 169.692L235.012 151.684L217.797 161.4Z" fill="black"/>
<path d="M203.485 89.9517C203.301 89.9517 203.127 89.8789 202.998 89.7491L190.229 76.924C190.112 76.8053 190.043 76.6487 190.03 76.481L188.131 44.8073C188.116 44.4988 188.302 44.2172 188.597 44.1175C188.888 44.0226 189.211 44.1207 189.385 44.3786L213.358 79.3448C213.541 79.6137 213.513 79.9776 213.282 80.2118L203.975 89.7444C203.849 89.8757 203.668 89.9501 203.485 89.9517ZM191.388 76.1392L203.479 88.2872L211.905 79.6564L189.65 47.1948L191.388 76.1392Z" fill="black"/>
<path d="M56.2983 98.6394C56.1401 98.6394 55.9819 98.584 55.8522 98.4748C55.6085 98.2676 55.542 97.9179 55.6908 97.6347L75.756 59.3017C75.8667 59.0865 76.0882 58.9457 76.3287 58.9346L92.1727 58.153C92.3973 58.1261 92.5999 58.2353 92.7391 58.4046C92.8783 58.5739 92.9258 58.7985 92.872 59.009L88.9387 74.2643C88.9007 74.4162 88.8089 74.5507 88.6855 74.6441L56.7097 98.5033C56.5863 98.5935 56.4439 98.6394 56.2983 98.6394ZM76.7907 60.2858L58.3045 95.5984L87.6698 73.6884L91.3088 59.569L76.7907 60.2858Z" fill="black"/>
<path d="M119.607 58.5343C119.361 58.5343 119.126 58.3998 119.003 58.1752L112.013 45.282C111.908 45.0874 111.902 44.8532 112 44.6539C112.095 44.4561 112.282 44.3153 112.5 44.2773L137.189 40.0545C137.35 40.0323 137.483 40.0545 137.616 40.1194L152.729 47.7407C152.979 47.8673 153.127 48.1362 153.102 48.4163C153.077 48.6979 152.881 48.9337 152.608 49.0128L119.797 58.5075C119.734 58.5249 119.671 58.5343 119.607 58.5343ZM113.677 45.4703L119.946 57.0344L150.548 48.179L137.198 41.4468L113.677 45.4703Z" fill="black"/>
<path d="M88.2737 74.7801C88.1218 74.7801 87.9699 74.7295 87.8465 74.6298C87.6345 74.462 87.5427 74.1836 87.6091 73.9225L91.5424 58.6672C91.5836 58.5058 91.6817 58.365 91.8209 58.27L112.231 44.3864C112.389 44.2788 112.592 44.2408 112.778 44.2867C112.968 44.3326 113.127 44.456 113.221 44.6269L120.212 57.5201C120.297 57.683 120.316 57.8729 120.262 58.0485C120.208 58.2257 120.088 58.3729 119.924 58.4567L88.5901 74.7025C88.4888 74.7547 88.3813 74.7801 88.2737 74.7801ZM92.8082 59.2605L89.3211 72.7771L118.67 57.5596L112.377 45.9496L92.8082 59.2605Z" fill="black"/>
<path d="M82.2839 231.595C82.1446 231.595 82.0086 231.552 81.8915 231.471C81.7143 231.348 81.6035 231.145 81.5972 230.929L81.1795 217.164C81.1732 216.933 81.2839 216.714 81.4706 216.581L97.6563 205.202C97.805 205.095 97.9981 205.05 98.1784 205.09C98.362 205.123 98.5202 205.229 98.6246 205.384L109.415 221.602C109.532 221.779 109.561 222.002 109.491 222.203C109.421 222.405 109.263 222.564 109.061 222.632L82.5022 231.558C82.4326 231.582 82.3566 231.595 82.2839 231.595ZM82.5623 217.491L82.942 229.962L107.776 221.616L97.8715 206.731L82.5623 217.491Z" fill="black"/>
<path d="M165.642 69.5178C165.563 69.5178 165.484 69.5036 165.408 69.4766L148.023 63.1717C147.681 63.0482 147.498 62.6812 147.599 62.3331L151.76 48.16C151.839 47.891 152.074 47.698 152.352 47.6695L188.752 44.0827C189.036 44.0811 189.312 44.2093 189.435 44.4672C189.562 44.725 189.511 45.0351 189.312 45.2424L166.136 69.3074C166.006 69.4434 165.826 69.5178 165.642 69.5178ZM149.099 62.1006L165.456 68.0337L187.03 45.6317L152.947 48.9906L149.099 62.1006Z" fill="black"/>
<path d="M54.0351 151.285C54.0193 151.285 54.0034 151.285 53.9845 151.283C53.7883 151.269 53.6047 151.169 53.4845 151.01L43.4345 137.591C43.3047 137.414 43.2636 137.184 43.3301 136.974L55.6426 97.747C55.7312 97.4543 55.9685 97.2755 56.3198 97.266C56.6298 97.2771 56.8925 97.4923 56.9653 97.7929L66.7242 138.455C66.7811 138.688 66.7115 138.933 66.5406 139.1L54.5192 151.084C54.3895 151.214 54.2154 151.285 54.0351 151.285ZM44.7445 137.05L54.111 149.554L65.3002 138.401L56.209 100.527L44.7445 137.05Z" fill="black"/>
<path d="M228.781 122.101C228.705 122.101 228.626 122.089 228.553 122.062L205.656 113.982C205.402 113.893 205.225 113.667 205.2 113.403L202.801 89.333C202.782 89.1305 202.852 88.9311 202.994 88.7855L212.301 79.2529C212.462 79.0836 212.693 79.0124 212.93 79.0599C213.158 79.1074 213.348 79.2687 213.434 79.4871L229.423 121.17C229.518 121.42 229.458 121.701 229.271 121.894C229.141 122.029 228.964 122.101 228.781 122.101ZM206.523 112.833L227.607 120.272L212.535 80.9791L204.2 89.515L206.523 112.833Z" fill="black"/>
<path d="M81.8664 217.83C81.7778 217.83 81.6924 217.812 81.6069 217.779L65.7978 211.338C65.6143 211.264 65.475 211.113 65.4086 210.927C65.3453 210.74 65.3643 210.536 65.4592 210.363L83.0562 179.318C83.1796 179.103 83.4075 178.97 83.6543 178.97C83.9043 178.971 84.1352 179.107 84.2555 179.324L98.6533 205.432C98.821 205.739 98.7324 206.125 98.4476 206.326L82.2619 217.705C82.1449 217.787 82.0056 217.83 81.8664 217.83ZM67.0382 210.36L81.7778 216.366L97.1534 205.557L83.6448 181.063L67.0382 210.36Z" fill="black"/>
<path d="M66.0567 211.389C65.8574 211.389 65.6675 211.302 65.5378 211.15L53.5164 197.19C53.3898 197.045 53.3328 196.855 53.355 196.663L55.8327 175.226C55.8517 175.041 55.9497 174.872 56.0985 174.758C56.2472 174.646 56.4371 174.592 56.6206 174.628L83.7613 178.979C83.986 179.014 84.1758 179.157 84.2739 179.359C84.3689 179.562 84.3625 179.799 84.2518 179.995L66.6548 211.041C66.544 211.235 66.3447 211.363 66.1232 211.386C66.101 211.387 66.0789 211.389 66.0567 211.389ZM54.7505 196.523L65.9396 209.515L82.5683 180.179L57.1111 176.097L54.7505 196.523Z" fill="black"/>
<path d="M83.6536 180.343C83.6188 180.343 83.5808 180.34 83.546 180.334L56.4053 175.983C56.0952 175.934 55.861 175.684 55.8294 175.373L53.3517 150.666C53.3327 150.462 53.4055 150.258 53.551 150.112L65.5724 138.129C65.7338 137.968 65.9585 137.893 66.1863 137.941C66.411 137.983 66.5977 138.135 66.6863 138.344L84.2833 179.386C84.3845 179.615 84.3497 179.881 84.1947 180.079C84.0649 180.247 83.8624 180.343 83.6536 180.343ZM57.1426 174.711L82.5302 178.782L65.8256 139.816L54.7503 150.854L57.1426 174.711Z" fill="black"/>
<path d="M217.272 161.594C217.152 161.594 217.032 161.563 216.924 161.499L202.919 153.269C202.748 153.168 202.627 152.995 202.589 152.799C202.555 152.601 202.608 152.399 202.735 152.244L228.249 120.981C228.414 120.777 228.683 120.692 228.936 120.746C229.192 120.806 229.392 121.003 229.448 121.26L236.242 150.422C236.312 150.718 236.179 151.025 235.913 151.176L217.611 161.506C217.506 161.564 217.389 161.594 217.272 161.594ZM204.304 152.49L217.278 160.115L234.79 150.233L228.43 122.931L204.304 152.49Z" fill="black"/>
<path d="M176.079 83.6166C175.867 83.6166 175.661 83.5185 175.528 83.3381L165.092 69.2393C164.893 68.9704 164.915 68.597 165.149 68.3549L188.325 44.2899C188.511 44.0937 188.802 44.0257 189.056 44.1222C189.312 44.2172 189.486 44.4529 189.505 44.725L191.404 76.3987C191.419 76.6851 191.258 76.9509 190.995 77.0679L176.357 83.558C176.268 83.5976 176.173 83.6166 176.079 83.6166ZM166.538 68.8897L176.303 82.0787L190.002 76.0047L188.226 46.3705L166.538 68.8897Z" fill="black"/>
<path d="M120.895 235.107C120.715 235.107 120.538 235.036 120.402 234.898L108.349 222.459C108.2 222.306 108.133 222.092 108.162 221.88C108.193 221.67 108.323 221.485 108.51 221.382L137.429 205.345C137.644 205.224 137.9 205.231 138.109 205.353C138.318 205.474 138.448 205.699 138.448 205.943L138.495 220.845C138.495 221.054 138.4 221.252 138.239 221.382L121.326 234.955C121.199 235.056 121.047 235.107 120.895 235.107ZM109.959 222.147L120.952 233.493L137.122 220.518L137.078 207.107L109.959 222.147Z" fill="black"/>
<path d="M108.842 222.668C108.621 222.668 108.402 222.559 108.269 222.361L97.479 206.144C97.3588 205.96 97.3303 205.729 97.4094 205.522C97.4885 205.316 97.6594 205.16 97.8714 205.101L120.683 198.927C120.826 198.888 120.971 198.894 121.104 198.948L138.002 205.302C138.255 205.395 138.426 205.628 138.445 205.894C138.467 206.161 138.328 206.414 138.094 206.544L109.174 222.581C109.07 222.64 108.956 222.668 108.842 222.668ZM99.1529 206.177L109.064 221.073L136.128 206.065L120.829 200.31L99.1529 206.177Z" fill="black"/>
<path d="M127.386 75.0269C127.316 75.0269 127.246 75.0158 127.177 74.9952C126.996 74.9367 126.848 74.8054 126.765 74.6329L118.987 58.1403C118.902 57.9584 118.899 57.7479 118.981 57.5644C119.063 57.3825 119.225 57.2448 119.418 57.1878L152.229 47.6932C152.473 47.622 152.726 47.6916 152.906 47.8688C153.083 48.046 153.147 48.3055 153.077 48.546L148.916 62.7191C148.865 62.89 148.751 63.0355 148.596 63.1241L127.724 74.9383C127.62 74.9968 127.503 75.0269 127.386 75.0269ZM120.573 58.2827L127.693 73.3783L147.679 62.0657L151.406 49.3608L120.573 58.2827Z" fill="black"/>
<path d="M103.156 81.3161C103.061 81.3161 102.966 81.2971 102.881 81.2575L87.9989 74.7215C87.7552 74.6155 87.597 74.3798 87.5875 74.1156C87.578 73.8514 87.7236 73.6061 87.9577 73.4843L119.291 57.2385C119.456 57.1562 119.658 57.1388 119.826 57.1973C120.003 57.2574 120.149 57.3856 120.228 57.5549L128.006 74.0475C128.094 74.2326 128.094 74.4462 128.006 74.6314C127.92 74.8165 127.756 74.9541 127.56 75.0047L103.33 81.2939C103.273 81.3081 103.213 81.3161 103.156 81.3161ZM89.8658 74.0428L103.213 79.9048L126.411 73.8846L119.291 58.7858L89.8658 74.0428Z" fill="black"/>
<path d="M56.2976 98.6394C56.0065 98.6394 55.7439 98.4543 55.6489 98.1758C55.5509 97.8942 55.649 97.5809 55.8863 97.4021L87.8621 73.5428C88.0615 73.3941 88.3241 73.3656 88.5488 73.4653L103.431 80.0013C103.602 80.0756 103.735 80.2165 103.801 80.3921C103.864 80.5661 103.855 80.7607 103.773 80.9285L95.8046 97.4021C95.6939 97.6347 95.4597 97.7834 95.2034 97.7897L56.3135 98.6394H56.2976ZM88.3621 74.883L58.4273 97.2202L94.7541 96.4259L102.228 80.9712L88.3621 74.883Z" fill="black"/>
<path d="M203.267 153.364C203.229 153.364 203.188 153.361 203.15 153.353C202.903 153.31 202.701 153.139 202.618 152.905L196.752 136.192C196.698 136.04 196.701 135.874 196.758 135.724L205.242 113.094C205.371 112.744 205.761 112.563 206.112 112.688L229.009 120.768C229.221 120.842 229.382 121.015 229.443 121.23C229.503 121.445 229.455 121.676 229.313 121.848L203.799 153.111C203.666 153.272 203.473 153.364 203.267 153.364ZM198.131 135.972L203.511 151.294L227.633 121.738L206.289 114.206L198.131 135.972Z" fill="black"/>
<path d="M170.908 182.677C170.642 182.677 170.396 182.522 170.285 182.277C170.158 182.004 170.225 181.683 170.446 181.481L202.805 152.168C203.026 151.967 203.355 151.932 203.615 152.085L217.62 160.316C217.927 160.496 218.044 160.884 217.889 161.207L210.029 177.497C209.928 177.706 209.728 177.85 209.497 177.88L170.994 182.672C170.965 182.675 170.937 182.677 170.908 182.677ZM203.355 153.525L172.978 181.041L208.956 176.563L216.38 161.18L203.355 153.525Z" fill="black"/>
<path d="M203.267 201.606C203.147 201.606 203.026 201.574 202.919 201.513L170.56 182.582C170.307 182.435 170.177 182.14 170.237 181.852C170.294 181.563 170.532 181.345 170.823 181.308L209.327 176.516C209.586 176.487 209.839 176.601 209.982 176.816L217.842 188.581C218.035 188.871 217.981 189.259 217.718 189.485L203.713 201.441C203.586 201.551 203.425 201.606 203.267 201.606ZM173.003 182.42L203.191 200.081L216.364 188.836L209.077 177.932L173.003 182.42Z" fill="black"/>
<path d="M197.4 217.977C197.384 217.977 197.368 217.977 197.349 217.975L182.002 216.869C181.723 216.849 181.486 216.662 181.401 216.396L170.256 182.202C170.167 181.932 170.256 181.634 170.477 181.455C170.696 181.277 171.012 181.254 171.256 181.397L203.615 200.328C203.899 200.494 204.023 200.84 203.912 201.15L198.045 217.521C197.947 217.796 197.688 217.977 197.4 217.977ZM182.562 215.532L196.928 216.569L202.428 201.225L172.12 183.495L182.562 215.532Z" fill="black"/>
<path d="M169.981 228.97C169.858 228.97 169.734 228.937 169.624 228.87L155.76 220.426C155.476 220.252 155.359 219.899 155.479 219.589L170.269 181.74C170.377 181.47 170.706 181.33 170.927 181.304C171.218 181.313 171.472 181.501 171.56 181.778L182.705 215.972C182.787 216.217 182.721 216.486 182.54 216.668L170.468 228.767C170.336 228.9 170.158 228.97 169.981 228.97ZM156.966 219.553L169.877 227.416L181.272 215.998L170.851 184.026L156.966 219.553Z" fill="black"/>
<path d="M137.809 221.534C137.635 221.534 137.464 221.467 137.337 221.347C137.201 221.217 137.122 221.037 137.122 220.848L137.074 205.946C137.074 205.726 137.179 205.517 137.359 205.387L170.506 181.433C170.753 181.254 171.088 181.258 171.329 181.447C171.569 181.634 171.658 181.957 171.547 182.24L156.757 220.089C156.659 220.339 156.425 220.51 156.156 220.524L137.847 221.532C137.834 221.534 137.821 221.534 137.809 221.534ZM138.448 206.294L138.492 220.122L155.64 219.178L169.421 183.913L138.448 206.294Z" fill="black"/>
<path d="M66.057 139.301C65.7405 139.301 65.4652 139.085 65.3893 138.774L55.6304 98.1125C55.5608 97.8245 55.6842 97.5239 55.9374 97.3688C56.1905 97.2106 56.5164 97.2375 56.7411 97.4289L82.7268 119.421C82.8851 119.556 82.9736 119.753 82.9705 119.961L82.5528 138.089C82.5433 138.453 82.2522 138.748 81.8883 138.76L66.0791 139.301L66.057 139.301ZM57.4563 99.8307L66.5949 137.909L81.1953 137.409L81.5908 120.257L57.4563 99.8307Z" fill="black"/>
<path d="M205.884 114.021C205.82 114.021 205.757 114.012 205.697 113.994L188.369 109.066C188.056 108.977 187.85 108.683 187.872 108.36L190.033 76.3939C190.049 76.1249 190.223 75.8908 190.476 75.7974C190.723 75.7009 191.008 75.7611 191.204 75.9557L203.972 88.7808C204.083 88.8932 204.153 89.0403 204.168 89.1969L206.567 113.267C206.589 113.493 206.497 113.716 206.323 113.862C206.2 113.966 206.042 114.021 205.884 114.021ZM189.277 107.898L205.099 112.398L202.827 89.5766L191.299 77.9982L189.277 107.898Z" fill="black"/>
<path d="M137.761 206.631C137.679 206.631 137.597 206.617 137.521 206.587L120.623 200.233C120.269 200.1 120.088 199.704 120.221 199.35L126.335 183.052C126.433 182.791 126.68 182.615 126.958 182.606L170.889 181.303C171.234 181.372 171.462 181.485 171.557 181.769C171.655 182.055 171.554 182.37 171.31 182.547L138.163 206.501C138.046 206.587 137.904 206.631 137.761 206.631ZM121.747 199.188L137.657 205.172L168.696 182.743L127.458 183.965L121.747 199.188Z" fill="black"/>
<path d="M98.0516 206.451C97.8048 206.451 97.5738 206.318 97.4504 206.096L83.0526 179.989C82.9292 179.766 82.9387 179.495 83.0779 179.283C83.214 179.071 83.4576 178.949 83.7108 178.973L127.034 182.609C127.249 182.626 127.442 182.743 127.556 182.925C127.673 183.107 127.695 183.332 127.619 183.533L121.506 199.831C121.43 200.038 121.256 200.195 121.044 200.253L98.232 206.427C98.1719 206.443 98.1117 206.451 98.0516 206.451ZM84.8753 180.447L98.3934 204.96L120.345 199.019L126.015 183.9L84.8753 180.447Z" fill="black"/>
<path d="M82.2834 120.632C82.122 120.632 81.967 120.576 81.8404 120.469L55.8547 98.4764C55.6364 98.2929 55.5541 97.9923 55.6522 97.7233C55.7471 97.4543 55.9971 97.2724 56.2819 97.2661L95.1718 96.4164C95.4629 96.4085 95.7921 96.6363 95.8585 96.9591L99.4722 113.797C99.545 114.132 99.3583 114.469 99.0355 114.586L82.5176 120.591C82.4416 120.617 82.3625 120.632 82.2834 120.632ZM58.1235 98.5998L82.4226 119.163L98.0039 113.499L94.6371 97.8024L58.1235 98.5998Z" fill="black"/>
<path d="M188.556 109.093C188.515 109.093 188.474 109.09 188.432 109.082L168.801 105.471C168.605 105.435 168.437 105.316 168.336 105.147C168.234 104.976 168.209 104.77 168.272 104.582L175.427 82.7163C175.487 82.5312 175.623 82.3809 175.8 82.3018L190.439 75.8117C190.657 75.7136 190.913 75.7405 191.11 75.8781C191.309 76.0158 191.42 76.2468 191.401 76.4857L189.239 108.452C189.227 108.648 189.132 108.829 188.977 108.949C188.857 109.042 188.708 109.093 188.556 109.093ZM169.82 104.262L187.923 107.591L189.955 77.5284L176.636 83.4331L169.82 104.262Z" fill="black"/>
<path d="M170.908 182.677C170.782 182.677 170.658 182.642 170.544 182.572C170.285 182.411 170.164 182.096 170.247 181.802L181.392 142.678C181.449 142.483 181.588 142.323 181.771 142.239L197.118 135.338C197.293 135.259 197.492 135.257 197.672 135.333C197.846 135.409 197.986 135.556 198.049 135.737L203.916 152.449C204.007 152.71 203.931 153 203.729 153.187L171.37 182.5C171.24 182.617 171.073 182.677 170.908 182.677ZM182.626 143.361L172.224 179.87L202.469 152.475L197.001 136.896L182.626 143.361Z" fill="black"/>
<path d="M182.053 143.553C181.901 143.553 181.752 143.502 181.629 143.406C181.426 143.247 181.331 142.989 181.379 142.739L187.882 108.28C187.916 108.09 188.03 107.924 188.195 107.822C188.359 107.719 188.559 107.691 188.742 107.746L206.07 112.675C206.257 112.727 206.409 112.854 206.497 113.025C206.583 113.197 206.592 113.396 206.526 113.575L198.042 136.205C197.979 136.378 197.849 136.515 197.682 136.591L182.334 143.493C182.243 143.532 182.148 143.553 182.053 143.553ZM189.09 109.272L182.97 141.7L196.859 135.455L204.979 113.792L189.09 109.272Z" fill="black"/>
<path d="M139.09 101.367C139.059 101.367 139.027 101.365 138.995 101.361C138.761 101.327 138.559 101.176 138.464 100.959L126.759 74.6187C126.613 74.2959 126.74 73.9162 127.047 73.7421L147.919 61.928C148.093 61.8267 148.302 61.8125 148.492 61.8805L165.877 68.1855C166.085 68.2615 166.247 68.4355 166.304 68.6522C166.364 68.8674 166.313 69.0984 166.171 69.2709L139.619 101.12C139.486 101.277 139.293 101.367 139.09 101.367ZM128.265 74.6313L139.271 99.394L164.487 69.1427L148.321 63.2792L128.265 74.6313Z" fill="black"/>
<path d="M168.924 105.482C168.892 105.482 168.86 105.481 168.829 105.476L138.995 101.361C138.748 101.326 138.539 101.161 138.451 100.929C138.359 100.696 138.403 100.432 138.562 100.241L165.114 68.3913C165.25 68.2315 165.449 68.1634 165.661 68.1445C165.873 68.1508 166.069 68.2536 166.193 68.4229L176.629 82.5217C176.762 82.7005 176.8 82.9315 176.73 83.1435L169.575 105.009C169.484 105.294 169.218 105.482 168.924 105.482ZM140.41 100.169L168.449 104.038L175.316 83.0533L165.61 69.9418L140.41 100.169Z" fill="black"/>
<path d="M139.09 101.367C139.071 101.367 139.052 101.365 139.033 101.364L95.1308 97.7865C94.9062 97.7691 94.7037 97.641 94.5929 97.4432C94.479 97.247 94.4727 97.0081 94.5708 96.804L102.539 80.3303C102.624 80.1484 102.789 80.0155 102.982 79.9649L127.211 73.6757C127.553 73.5903 127.879 73.7532 128.012 74.0618L139.717 100.402C139.815 100.623 139.789 100.88 139.65 101.077C139.52 101.259 139.312 101.367 139.09 101.367ZM96.2415 96.5002L137.992 99.9019L126.993 75.1503L103.637 81.2148L96.2415 96.5002Z" fill="black"/>
<path d="M83.6543 180.343C83.6385 180.343 83.6195 180.342 83.6005 180.342C83.3474 180.321 83.1227 180.161 83.0246 179.927L65.4276 138.885C65.3358 138.676 65.3548 138.438 65.4782 138.246C65.5985 138.056 65.8073 137.936 66.0352 137.928L81.8443 137.387C82.031 137.371 82.2493 137.468 82.3822 137.623L98.5679 156.164C98.7673 156.392 98.7957 156.723 98.6344 156.979L84.2365 180.02C84.11 180.221 83.8885 180.343 83.6543 180.343ZM67.0826 139.267L83.7682 178.179L97.2009 156.683L81.5627 138.771L67.0826 139.267Z" fill="black"/>
<path d="M182.053 143.553C181.863 143.553 181.676 143.474 181.546 143.328L169.474 130.092C169.363 129.973 169.3 129.819 169.294 129.658L168.237 104.824C168.227 104.617 168.316 104.414 168.474 104.278C168.629 104.141 168.838 104.079 169.047 104.12L188.679 107.731C188.859 107.764 189.017 107.867 189.122 108.019C189.226 108.169 189.264 108.354 189.229 108.533L182.727 142.993C182.679 143.249 182.489 143.456 182.239 143.526C182.179 143.543 182.116 143.553 182.053 143.553ZM170.655 129.351L181.632 141.387L187.752 108.957L169.645 105.626L170.655 129.351Z" fill="black"/>
<path d="M126.977 183.979C126.958 183.979 126.939 183.977 126.92 183.976L83.5968 180.34C83.3595 180.321 83.1475 180.179 83.0399 179.963C82.9323 179.75 82.9449 179.495 83.0715 179.293L97.4694 156.251C97.6529 155.965 98.0073 155.851 98.3301 155.987L121.142 166.048C121.31 166.124 121.443 166.265 121.509 166.439L127.623 183.055C127.702 183.275 127.664 183.522 127.524 183.708C127.392 183.879 127.189 183.979 126.977 183.979ZM84.8309 179.066L125.961 182.519L120.319 167.187L98.3174 157.484L84.8309 179.066Z" fill="black"/>
<path d="M170.908 182.677C170.62 182.677 170.364 182.498 170.263 182.227L155.473 142.015C155.375 141.747 155.454 141.448 155.666 141.262L169.529 129.114C169.81 128.87 170.241 128.889 170.488 129.167L182.56 142.404C182.721 142.58 182.778 142.825 182.715 143.054L171.57 182.178C171.487 182.463 171.231 182.666 170.934 182.677H170.908ZM156.925 141.983L170.826 179.775L181.287 143.046L169.927 130.59L156.925 141.983Z" fill="black"/>
<path d="M156.118 142.464C156.068 142.464 156.014 142.458 155.963 142.447C155.748 142.396 155.568 142.244 155.485 142.04L138.458 100.943C138.363 100.715 138.398 100.456 138.547 100.261C138.698 100.066 138.939 99.962 139.186 100L169.019 104.115C169.348 104.161 169.595 104.435 169.611 104.767L170.668 129.601C170.677 129.808 170.589 130.009 170.434 130.145L156.571 142.293C156.444 142.404 156.283 142.464 156.118 142.464ZM140.183 101.524L156.387 140.63L169.282 129.33L168.263 105.397L140.183 101.524Z" fill="black"/>
<path d="M126.978 183.979C126.69 183.979 126.433 183.8 126.332 183.53L120.219 166.914C120.155 166.741 120.165 166.551 120.241 166.385C120.32 166.219 120.459 166.091 120.633 166.029L137.531 159.988C137.73 159.916 137.955 159.944 138.132 160.058L171.279 181.413C171.532 181.576 171.649 181.884 171.57 182.174C171.491 182.463 171.228 182.667 170.927 182.677L126.997 183.979L126.978 183.979ZM121.747 167.089L127.452 182.591L168.678 181.37L137.673 161.397L121.747 167.089Z" fill="black"/>
<path d="M120.895 124.75C120.797 124.75 120.702 124.73 120.61 124.687L98.5169 114.564C98.3176 114.474 98.1752 114.297 98.1309 114.085L94.5172 97.2471C94.4697 97.0351 94.5299 96.8136 94.6722 96.6506C94.8146 96.4876 95.0298 96.4149 95.245 96.4196L139.147 99.9969C139.397 100.017 139.619 100.174 139.72 100.404C139.821 100.635 139.786 100.904 139.631 101.101L121.436 124.484C121.303 124.657 121.101 124.75 120.895 124.75ZM99.3998 113.46L120.686 123.214L137.768 101.261L96.0519 97.8625L99.3998 113.46Z" fill="black"/>
<path d="M98.0517 157.302C97.8555 157.302 97.6657 157.216 97.5359 157.066L81.3502 138.525C81.2363 138.396 81.1762 138.229 81.1794 138.058L81.5971 119.929C81.6034 119.671 81.7553 119.437 81.9863 119.326C82.2173 119.211 82.4989 119.244 82.7014 119.401L109.26 139.854C109.548 140.073 109.614 140.479 109.415 140.778L98.6245 156.995C98.5042 157.174 98.3112 157.286 98.096 157.3C98.0802 157.302 98.0675 157.302 98.0517 157.302ZM82.559 137.824L97.9789 155.487L107.915 140.551L82.9387 121.315L82.559 137.824Z" fill="black"/>
<path d="M108.842 141.084C108.69 141.084 108.545 141.035 108.425 140.942L81.8662 120.489C81.6669 120.336 81.5656 120.087 81.6068 119.841C81.6447 119.592 81.8156 119.385 82.0498 119.299L98.5677 113.295C98.7418 113.235 98.9285 113.241 99.0867 113.317L121.18 123.44C121.37 123.525 121.509 123.692 121.56 123.893C121.611 124.092 121.569 124.304 121.449 124.472L109.396 140.806C109.285 140.953 109.121 141.051 108.937 141.078C108.906 141.081 108.874 141.084 108.842 141.084ZM83.6921 120.163L108.706 139.426L119.842 124.336L98.7702 114.683L83.6921 120.163Z" fill="black"/>
<path d="M120.864 167.363C120.769 167.363 120.674 167.344 120.585 167.304L97.7732 157.243C97.5897 157.161 97.4505 157.003 97.3935 156.808C97.3365 156.614 97.3682 156.403 97.4789 156.235L108.269 140.018C108.374 139.863 108.532 139.757 108.716 139.724C108.902 139.692 109.089 139.73 109.235 139.836L138.154 160.074C138.366 160.221 138.476 160.472 138.442 160.727C138.407 160.982 138.233 161.196 137.992 161.283L121.095 167.323C121.019 167.349 120.943 167.363 120.864 167.363ZM99.0738 156.316L120.889 165.937L136.28 160.436L109.026 141.363L99.0738 156.316Z" fill="black"/>
<path d="M170.908 182.677C170.778 182.677 170.648 182.64 170.538 182.568L137.391 161.213C137.192 161.086 137.074 160.868 137.074 160.634L137.122 142.54C137.122 142.173 137.413 141.871 137.78 141.857L156.089 141.092C156.421 141.059 156.659 141.26 156.763 141.54L171.553 181.753C171.655 182.03 171.566 182.341 171.338 182.527C171.212 182.626 171.06 182.677 170.908 182.677ZM138.448 160.262L169.557 180.302L155.646 142.485L138.492 143.2L138.448 160.262Z" fill="black"/>
<path d="M137.809 143.228C137.616 143.228 137.433 143.148 137.303 143.005L120.389 124.527C120.165 124.28 120.149 123.907 120.355 123.642L138.55 100.259C138.702 100.065 138.939 99.9715 139.182 99.9999C139.426 100.033 139.632 100.191 139.724 100.418L156.751 141.515C156.84 141.722 156.817 141.958 156.697 142.146C156.577 142.336 156.371 142.455 156.147 142.462L137.838 143.227C137.828 143.228 137.819 143.228 137.809 143.228ZM121.794 124.027L138.1 141.842L155.109 141.132L138.907 102.033L121.794 124.027Z" fill="black"/>
<path d="M137.761 161.322C137.622 161.322 137.486 161.279 137.369 161.197L108.45 140.96C108.298 140.854 108.194 140.692 108.165 140.509C108.133 140.327 108.181 140.14 108.288 139.99L120.341 123.655C120.465 123.491 120.655 123.389 120.86 123.378C121.009 123.359 121.262 123.448 121.402 123.6L138.315 142.078C138.432 142.205 138.495 142.371 138.495 142.543L138.448 160.637C138.448 160.893 138.306 161.128 138.078 161.245C137.976 161.297 137.869 161.322 137.761 161.322ZM109.814 140.24L137.078 159.319L137.122 142.807L120.952 125.142L109.814 140.24Z" fill="black"/>
</svg>
