<svg width="275" height="211" viewBox="0 0 275 211" fill="none" xmlns="http://www.w3.org/2000/svg">
<path d="M274.023 210.069H0L0.133739 209.356L5.91668 179.947C17.4826 121.142 29.4418 60.3328 40.9784 0.485607L41.0716 0H233.672L233.765 0.485607C243.945 53.3207 254.498 107.004 264.701 158.919C268.006 175.731 271.311 192.542 274.61 209.356L274.75 210.068L274.023 210.069ZM1.44681 208.872H273.297C270.046 192.298 266.787 175.723 263.529 159.15C253.356 107.391 242.837 53.8771 232.685 1.19554L169.308 1.19673L42.0588 1.19554C30.5511 60.8904 18.6245 121.53 7.09006 180.178L1.44681 208.872Z" fill="black"/>
<path d="M139.285 195.91C113.442 195.91 86.5247 192.663 60.4855 189.523C42.4382 187.346 23.7765 185.096 5.80737 183.981L5.88199 182.787C23.8847 183.905 42.564 186.158 60.6285 188.337C86.6306 191.472 113.515 194.714 139.285 194.714C139.449 194.714 139.609 194.714 139.772 194.713C164.87 194.675 190.914 191.443 216.1 188.318C233.478 186.162 251.448 183.933 268.862 182.79L268.941 183.982C251.561 185.124 233.608 187.351 216.248 189.505C191.026 192.634 164.944 195.87 139.774 195.91H139.285Z" fill="black"/>
<path d="M141.868 172.247C100.952 172.247 58.5425 168.098 10.4902 159.798L10.6926 158.62C106.646 175.192 180.05 175.192 264.06 158.625L264.291 159.798C222.21 168.098 182.785 172.247 141.868 172.247Z" fill="black"/>
<path d="M142.274 156.802C102.172 156.802 60.4459 150.297 14.7866 137.288L15.1149 136.138C106.188 162.089 181.59 162.092 259.603 136.149L259.98 137.282C220.853 150.294 182.375 156.802 142.274 156.802Z" fill="black"/>
<path d="M143.953 133.747C105.189 133.747 64.2427 127.928 18.8853 116.285L19.1832 115.129C109.66 138.35 182.548 138.358 255.521 115.151L255.884 116.289C219.287 127.927 182.71 133.747 143.953 133.747Z" fill="black"/>
<path d="M151.991 113.103C151.168 113.103 150.345 113.097 149.518 113.085C125.879 112.746 101.494 108.531 77.912 104.455C59.8137 101.328 41.1008 98.0929 22.8243 96.6239L22.9197 95.432C41.251 96.9057 59.9918 100.145 78.1159 103.277C101.652 107.346 125.991 111.551 149.535 111.89C174.288 112.223 195.972 107.365 218.903 102.199C229.535 99.8029 240.531 97.3258 251.773 95.4494L251.969 96.6297C240.76 98.4991 229.782 100.973 219.166 103.365C197.905 108.155 175.942 113.103 151.991 113.103Z" fill="black"/>
<path d="M172.918 87.1394C148.961 87.1394 125.356 84.9941 101.08 82.7871C77.1157 80.6091 52.3359 78.3579 26.4712 78.2206L26.4781 77.0251C52.3929 77.1624 77.1984 79.4171 101.188 81.5963C150.131 86.0464 196.359 90.2461 248.129 77.0599L248.425 78.2194C222.176 84.9045 197.365 87.1394 172.918 87.1394Z" fill="black"/>
<path d="M190.755 64.2091C169.645 64.2091 148.627 63.0567 127.985 61.9241C95.8718 60.164 62.6632 58.3413 29.9191 60.9045L29.8259 59.7125C62.6505 57.1445 95.8952 58.9675 128.051 60.7309C166.303 62.8286 205.859 65.0018 244.827 59.7545L244.985 60.9393C226.963 63.364 208.825 64.2091 190.755 64.2091Z" fill="black"/>
<path d="M241.697 44.6756C225.39 44.6732 209.061 42.7282 193.271 40.847C178.045 39.0324 162.302 37.1572 146.773 37.0663C125.444 36.9719 103.414 39.0033 82.1036 40.9948C65.9865 42.5012 49.32 44.0599 33.0921 44.6592L33.048 43.4651C49.243 42.8655 65.8921 41.3093 81.993 39.8041C103.331 37.8101 125.353 35.6903 146.779 35.872C162.376 35.9616 178.155 37.8416 193.413 39.6598C209.168 41.5362 225.461 43.4777 241.697 43.4813V44.6756Z" fill="black"/>
<path d="M40.9331 29.4106C39.3127 29.4106 37.6948 29.3953 36.0768 29.3615L36.1001 28.1674C54.7804 28.5409 73.5458 26.6145 91.7011 24.745C109.218 22.942 127.339 21.0702 145.093 21.346C159.542 21.5648 173.947 23.1852 187.877 24.7531C204.322 26.6052 221.322 28.5199 238.653 28.1686L238.676 29.3627C221.279 29.7284 204.227 27.7971 187.743 25.9417C173.841 24.3771 159.466 22.7592 145.074 22.5403C127.38 22.2726 109.306 24.134 91.8234 25.9346C75.2033 27.6458 58.064 29.4106 40.9331 29.4106Z" fill="black"/>
<path d="M133.293 15.4794C100.601 15.4794 69.298 15.2815 38.8995 14.8858L38.9157 13.6914C99.6653 14.4817 164.076 14.4807 235.824 13.6926L235.838 14.8869C199.98 15.2815 165.944 15.4794 133.293 15.4794Z" fill="black"/>
<path d="M248.581 209.551C245.756 190.176 244.617 170.37 243.517 151.217C242.347 130.866 241.138 109.822 237.901 89.3231C235.604 74.7845 231.105 60.4132 226.754 46.5158C222.103 31.6558 217.292 16.2885 215.163 0.679903L216.348 0.519226C218.463 16.0277 223.259 31.3452 227.896 46.1596C232.259 60.0978 236.771 74.5108 239.081 89.1369C242.329 109.694 243.539 130.768 244.71 151.148C245.809 170.276 246.947 190.055 249.763 209.379L248.581 209.551Z" fill="black"/>
<path d="M223.746 209.521C222.749 191.156 224.41 172.55 226.016 154.557C227.806 134.499 229.657 113.758 227.765 93.5486C226.126 76.0625 219.241 60.489 212.583 45.4275C206.359 31.3497 199.924 16.7924 197.758 0.677518L198.943 0.519226C201.086 16.4642 207.486 30.9423 213.676 44.9445C220.373 60.0932 227.298 75.7576 228.954 93.4368C230.858 113.756 229.002 134.552 227.207 154.662C225.604 172.614 223.948 191.177 224.941 209.456L223.746 209.521Z" fill="black"/>
<path d="M200.088 209.52L198.894 209.513C199.014 191.428 203.469 173.137 207.778 155.448C212.606 135.621 217.6 115.119 216.142 95.5543C214.806 77.6526 206.407 62.4409 198.283 47.7311C190.293 33.2611 182.031 18.2998 180.328 0.66131L181.518 0.547119C183.197 17.9389 191.399 32.7908 199.33 47.1525C207.515 61.9754 215.98 77.3033 217.334 95.4658C218.806 115.218 213.79 135.813 208.94 155.731C204.647 173.353 200.208 191.576 200.088 209.52Z" fill="black"/>
<path d="M175.246 209.73L174.054 209.649C175.142 193.571 178.783 177.153 182.305 161.274C186.837 140.829 191.525 119.687 190.782 99.1335C190.04 78.614 182.795 59.5483 175.788 41.1114C170.839 28.0858 165.721 14.618 162.918 0.718275L164.089 0.480835C166.873 14.285 171.974 27.7063 176.906 40.6863C183.947 59.2155 191.227 78.3742 191.977 99.0894C192.725 119.796 188.021 141.014 183.471 161.532C179.96 177.368 176.33 193.742 175.246 209.73Z" fill="black"/>
<path d="M150.4 209.938L149.212 209.8C150.147 201.685 151.136 193.626 152.12 185.614C159.848 122.654 167.147 63.1848 145.52 0.784581L146.649 0.393616C168.368 63.0555 161.052 122.657 153.306 185.759C152.323 193.769 151.334 201.824 150.4 209.938Z" fill="black"/>
<path d="M125.563 209.956L124.38 209.779C133.382 149.925 138.017 62.0581 128.084 0.684428L129.264 0.493713C139.218 61.9939 134.577 150.011 125.563 209.956Z" fill="black"/>
<path d="M100.695 209.816L99.5257 209.563C104.893 184.815 103.085 163.407 101.172 140.74C99.9343 126.083 98.6551 110.926 99.4409 94.6135C100.055 81.8581 103.259 69.7372 106.356 58.0154C111.38 39.0033 116.126 21.0458 110.667 0.754259L111.821 0.444824C117.363 21.0434 112.578 39.1499 107.512 58.3203C104.43 69.9827 101.244 82.0409 100.635 94.6717C99.8528 110.905 101.129 126.021 102.364 140.641C104.284 163.398 106.099 184.893 100.695 209.816Z" fill="black"/>
<path d="M75.8388 209.65L74.6723 209.382C80.2074 185.216 75.2695 164.304 70.4947 144.08C66.3286 126.435 62.0206 108.189 64.8596 88.102C66.8874 73.7424 73.591 62.6004 80.0724 51.825C89.1495 36.7345 97.7238 22.4822 93.2341 0.725185L94.4051 0.483215C98.9889 22.6974 90.2983 37.1455 81.0968 52.4408C74.6771 63.1137 68.0374 74.1498 66.0423 88.2696C63.2359 108.133 67.5184 126.268 71.6588 143.806C76.4651 164.162 81.4344 185.212 75.8388 209.65Z" fill="black"/>
<path d="M50.9963 209.626L49.8322 209.351C55.6071 184.909 52.5897 163.352 49.6728 142.507C47.2376 125.115 44.7211 107.13 47.2807 87.5142C49.1745 72.9941 55.6116 61.4549 61.8358 50.2955C70.1631 35.3645 78.0296 21.2635 75.8112 0.662502L77.0007 0.534485C79.259 21.5126 70.9327 36.4413 62.8797 50.8774C56.7106 61.9382 50.3305 73.3758 48.4658 87.668C45.9269 107.126 48.4331 125.027 50.8566 142.34C53.79 163.296 56.8222 184.966 50.9963 209.626Z" fill="black"/>
<path d="M26.1534 209.587L24.9824 209.34C29.5722 187.498 30.8967 165.498 32.1783 144.223C33.3076 125.459 34.4762 106.056 37.8857 86.923C40.0739 74.6505 43.7466 62.8951 47.2979 51.527C52.3488 35.3621 57.5717 18.6466 58.389 0.571655L59.5831 0.625055C58.7589 18.855 53.5129 35.6462 48.4398 51.8832C44.899 63.2162 41.2368 74.9344 39.0636 87.1323C35.6646 106.197 34.4984 125.565 33.3715 144.296C32.0875 165.613 30.7606 187.658 26.1534 209.587Z" fill="black"/>
</svg>
