<svg width="274" height="273" viewBox="0 0 274 273" fill="none" xmlns="http://www.w3.org/2000/svg">
<g clip-path="url(#clip0_1_17709)">
<path d="M260.187 146.135L263.365 137.684L264.857 133.718L269.275 121.972L271.254 116.716L273.679 110.273L274 110.17L273.798 109.956L273.953 109.544L273.536 109.677L263.243 98.7343L253.187 88.0415L252.981 87.8223L243.376 77.6086L242.826 77.0234L242.618 76.8021L232.282 65.8126L226.901 60.0912L221.976 54.8536L211.916 44.15L211.78 44.0055L211.23 43.4205L201.294 32.856L201.199 32.7548L200.981 32.5226L198.246 29.6152L190.978 21.8852L180.787 11.0464L180.565 10.8099L175.644 5.57796L170.874 0.504868L170.995 0.136939L170.623 0.238824L170.399 0L170.29 0.330194L160.648 2.97306L158.081 3.67686L157.475 3.84274L157.377 3.86981L144.354 7.44068L144.254 7.4682L142.446 7.96375L130.898 11.1279L118.326 14.5732L105.335 18.1334L105.08 18.2032L104.976 18.2318L90.8565 22.103L77.6051 25.7344L71.94 27.2869L63.5941 29.5738L53.1994 32.4219L50.803 33.0785L50.5692 33.1425L49.7915 33.3556L36.5282 36.9912L36.2886 36.7305L36.1852 37.0852L35.8665 37.1726L36.0891 37.4149L32.567 49.5059L32.4743 49.8241L32.2623 50.5518L32.2291 50.667L28.7648 62.5777L26.8519 69.1388L25.216 74.7497L25.1114 75.108L25.0523 75.3112L25.0161 75.4354L24.9096 75.8008L21.4439 87.711L17.7835 100.274L17.6758 100.644L14.4111 111.857L14.1261 112.836L14.1028 112.916L10.6693 124.713L7.35421 136.097L3.86518 148.076L3.826 148.21L3.75863 148.442L0.299937 160.325L0 160.418L0.206331 160.647L0.0956221 161.027L0.450287 160.918L4.82865 165.781L10.0668 171.6L20.1176 182.764L29.9143 193.649L30.1149 193.872L30.2426 194.014L30.5908 194.4L30.7942 194.626L40.248 205.122L47.0633 212.696L49.996 215.955L50.2246 216.209L50.6661 216.7L53.5602 219.914L60.3692 227.475L70.1921 238.39L70.5593 238.798L70.6367 238.884L80.7757 250.147L80.9926 250.387L90.9394 261.434L100.886 272.481L100.742 272.905L101.141 272.764L101.353 273L101.472 272.648L107.214 270.622L114.431 268.075L127.615 263.426L127.659 263.411L128.239 263.206L135.201 260.749L141.019 258.696L144.181 257.58L153.983 254.122L164.193 250.519L166.105 249.844L166.406 249.738L166.519 249.698L166.966 249.541L167.143 249.478L174.412 246.911L179.599 245.08L192.252 240.616L192.552 240.51L204.057 236.45L207.317 235.3L216.69 231.992L216.93 231.907L218.329 231.414L229.285 227.548L229.484 227.764L229.608 227.435L229.911 227.328L229.725 227.125L234.141 215.384L238.025 205.059L238.25 204.46L238.428 203.988L241.935 194.661L242.467 193.246L247.099 180.932L249.39 174.841L251.209 170.005L255.511 158.574L255.568 158.422L255.91 157.515L258.789 149.852L260.187 146.135ZM192.523 239.872L195.299 232.27L196.412 229.222L204.899 226.255L208.249 225.085L204.331 235.706L192.523 239.872ZM167.111 248.842L169.564 241.972L170.936 238.132L182.983 233.919L179.125 244.599L167.111 248.842ZM128.199 262.572L131.93 251.771L144.303 247.441L140.54 258.217L128.199 262.572ZM81.2116 249.719L84.8153 238.729L94.5573 249.53L90.9122 260.492L81.2116 249.719ZM60.9645 227.225L64.4808 216.182L66.5082 218.431L74.1634 226.92L73.7849 228.09L70.6016 237.933L60.9645 227.225ZM30.7983 193.719L34.1853 182.6L43.7811 193.237L40.9261 202.472L40.3526 204.327L30.7983 193.719ZM0.886248 160.49L4.14438 149.296L13.6531 159.836L10.3495 171.002L0.886248 160.49ZM25.4974 75.9625L28.6895 79.4574L35.2811 86.6747L31.8054 98.4325L22.0674 87.7491L25.4974 75.9625ZM29.162 63.3921L36.225 71.1105L38.9898 74.132L37.9167 77.7613L35.4832 85.9912L25.6971 75.2766L29.162 63.3921ZM50.2574 33.8616L60.1729 44.6279L55.5485 45.9155L46.9336 48.3142L39.3618 40.0748L36.9931 37.4972L50.2574 33.8616ZM78.4128 26.1464L91.3247 22.608L101.163 33.2167L88.2761 36.8013L82.8736 30.9654L78.4128 26.1464ZM145.162 7.8526L157.519 4.46439L167.234 14.8193L154.902 18.2533L145.162 7.8526ZM170.431 0.924782L180.124 11.231L167.898 14.6345L167.026 13.7053L158.184 4.28203L170.431 0.924782ZM200.539 32.9439L188.357 36.4395L180.657 28.2316L178.585 26.0235L190.788 22.5738L200.539 32.9439ZM210.789 43.8421L200.756 46.7685L198.631 47.3884L192.392 40.7395L188.827 36.9402L201.01 33.4445L210.789 43.8421ZM259.62 145.91L247.791 149.809L251.981 138.567L263.839 134.693L259.62 145.91ZM237.679 204.247L226.009 208.29L230.021 197.52L236.02 195.459L241.719 193.502L237.679 204.247ZM233.391 215.646L221.757 219.713L222.629 217.371L225.733 209.032L229.363 207.775L237.4 204.99L233.391 215.646ZM141.277 257.957L145.038 247.184L157.305 242.898L153.506 253.642L141.277 257.957ZM127.465 262.831L115.013 267.222L118.715 256.389L119.158 256.234L131.196 252.027L127.465 262.831ZM71.0727 238.457L74.6348 227.442L78.8147 232.076L84.345 238.208L82.4222 244.072L80.7415 249.197L71.0727 238.457ZM10.8276 171.533L14.1315 160.367L21.1153 168.109L23.6681 170.939L22.9468 173.341L20.3228 182.081L10.8276 171.533ZM21.8675 88.4354L25.4295 92.3431L31.6034 99.1163L30.3528 103.348L28.1586 110.773L18.4642 100.116L21.8675 88.4354ZM104.781 18.9184L114.601 29.475L101.824 33.0326L91.9882 22.4263L104.781 18.9184ZM180.596 11.7338L190.316 22.0722L178.114 25.5216L168.369 15.1372L180.596 11.7338ZM264.115 133.961L252.254 137.835L252.875 136.169L256.48 126.491L268.369 122.65L264.115 133.961ZM242.352 162.676L238.232 173.731L226.364 177.726L230.451 166.641L231.106 166.423L242.352 162.676ZM64.6951 215.509L68.2379 204.374L77.5292 214.653L77.9686 215.139L77.6586 216.099L74.3801 226.249L64.6951 215.509ZM118.966 255.655L122.696 244.727L131.257 241.761L135.217 240.389L131.451 251.291L118.966 255.655ZM54.5652 204.282L58.0663 193.119L61.4879 196.905L67.765 203.851L64.2225 214.985L54.5652 204.282ZM44.4658 193.086L47.9252 181.898L52.649 187.125L57.5922 192.594L54.0912 203.757L44.4658 193.086ZM24.3504 170.785L27.7225 159.545L37.3343 170.177L36.3539 173.395L33.9166 181.392L24.3504 170.785ZM28.4357 111.984L38.151 122.67L34.6911 134.2L25.0172 123.539L28.4357 111.984ZM39.4699 74.6567L42.1996 77.6414L49.325 85.4328L45.7768 97.2639L35.9631 86.5169L39.4699 74.6567ZM75.0794 41.1139L88.0818 37.4894L97.9789 48.1829L96.0947 48.7162L84.9972 51.8576L75.0794 41.1139ZM128.394 26.2673L138.214 36.807L127.257 39.905L125.576 40.3803L115.731 29.7943L128.394 26.2673ZM141.605 22.5908L151.402 33.0781L150.327 33.3822L138.874 36.6203L129.056 26.0829L141.605 22.5908ZM154.71 18.9409L164.48 29.3801L152.062 32.8914L142.267 22.4063L154.71 18.9409ZM251.514 138.077L239.545 141.984L243.74 130.603L255.741 126.73L251.514 138.077ZM237.958 174.468L233.874 185.43L222.042 189.452L226.093 178.462L230.032 177.136L237.958 174.468ZM229.275 197.776L225.263 208.549L213.494 212.627L217.478 201.826L225.716 198.998L229.275 197.776ZM85.0343 238.061L88.669 226.978L95.8728 234.946L98.459 237.806L97.2735 241.368L94.7787 248.865L85.0343 238.061ZM17.665 148.413L27.2448 159.017L25.1323 166.059L23.8731 170.256L14.3346 159.681L17.665 148.413ZM88.7428 37.3056L101.63 33.7207L111.504 44.3615L98.6377 47.9967L94.8118 43.8632L88.7428 37.3056ZM102.292 33.5367L115.069 29.9786L124.916 40.5668L114.876 43.4079L112.164 44.1753L105.71 37.2208L102.292 33.5367ZM208.277 58.5614L196.032 62.1889L191.09 56.9085L186.174 51.6568L198.443 48.0794L208.277 58.5614ZM260.227 113.929L248.099 117.804L238.091 107.112L250.239 103.287L260.227 113.929ZM53.5916 73.3375L58.1982 78.3593L63.5311 84.1732L59.9018 96.0866L50.0082 85.2759L53.5916 73.3375ZM238.538 142.955L234.374 154.235L222.335 158.206L225.422 149.741L226.461 146.892L236.594 143.589L238.538 142.955ZM221.299 189.705L209.356 193.763L212.373 185.496L213.379 182.741L218.452 181.033L225.351 178.712L221.299 189.705ZM48.1348 181.22L51.6211 169.935L61.3358 180.663L57.8042 191.919L48.1348 181.22ZM38.6293 123.196L41.9978 126.901L48.3766 133.918L48.0118 135.117L44.875 145.424L35.169 134.727L38.6293 123.196ZM46.0511 98.4692L50.5434 103.391L55.89 109.25L52.3269 120.956L42.5293 110.204L46.0511 98.4692ZM98.4444 48.6862L108.373 59.4155L95.4158 63.1365L92.0825 59.5281L85.462 52.3609L98.4444 48.6862ZM112.63 44.678L125.384 41.0696L135.258 51.6937L122.53 55.3485L112.63 44.678ZM247.456 118.01L235.218 121.916L225.182 111.172L237.445 107.315L247.456 118.01ZM109.58 248.626L112.441 240.145L113.221 237.833L113.309 237.573L125.982 233.223L122.216 244.247L109.58 248.626ZM98.6801 237.141L88.8879 226.31L92.5532 215.13L95.3516 218.22L102.387 225.99L102.163 226.665L98.6801 237.141ZM72.2441 191.796L75.8529 180.467L82.167 187.427L85.671 191.29L82.0207 202.595L72.2441 191.796ZM46.2555 97.7884L49.8041 85.9564L53.161 89.6244L59.6952 96.7644L56.0968 108.572L46.2555 97.7884ZM212.907 182.255L200.824 186.322L203.367 179.281L204.852 175.169L209.642 173.572L216.967 171.131L212.907 182.255ZM192.342 209.805L193.81 205.744L196.302 198.845L208.346 194.752L204.357 205.683L192.342 209.805ZM48.8537 134.442L55.0559 141.263L58.6329 145.197L55.2573 156.118L55.0853 156.675L45.3519 145.95L48.8537 134.442ZM136.382 52.0065L149.001 48.3828L158.88 58.9821L157.738 59.3153L146.286 62.6562L142.2 58.2625L136.382 52.0065ZM113.555 236.843L117.202 226.039L117.32 225.691L130.034 221.369L126.232 232.492L113.555 236.843ZM68.2943 71.5595L81.4902 67.7721L91.5008 78.639L78.3298 82.4808L78.0995 82.2301L73.3214 77.0304L68.2943 71.5595ZM95.8797 63.6388L108.838 59.9176L118.794 70.6751L105.861 74.4508L101.749 69.9966L95.8797 63.6388ZM222.637 125.934L222.251 126.057L222.231 126.063L212.169 115.266L224.537 111.375L234.575 122.122L222.637 125.934ZM225.991 146.403L213.809 150.381L216.585 142.696L217.943 138.937L230.158 134.992L225.991 146.403ZM208.447 163.432L204.38 174.683L192.157 178.757L196.188 167.473L208.447 163.432ZM59.1088 145.72L68.9154 156.506L67.407 161.313L65.3218 167.956L55.561 157.199L59.1088 145.72ZM109.494 59.7291L122.338 56.0389L132.271 66.7476L124.131 69.1198L119.449 70.4842L115.079 65.7627L109.494 59.7291ZM159.346 59.4823L169.257 70.1179L156.687 73.8426L146.751 63.157L159.346 59.4823ZM217.472 138.447L205.137 142.429L206.593 138.357L209.28 130.845L209.308 130.836L209.595 130.745L221.643 126.893L217.472 138.447ZM86.3595 191.141L90.0448 179.742L99.9429 190.629L99.1135 193.16L96.216 202.003L86.3595 191.141ZM74.4529 96.0866L77.3404 99.2367L84.4517 106.995L80.7304 118.852L70.7774 107.973L74.4529 96.0866ZM179.664 81.2846L167.119 85.0598L157.427 74.6393L157.151 74.3422L169.722 70.6171L179.664 81.2846ZM209.135 130.25L199.045 119.396L211.524 115.469L221.589 126.269L209.135 130.25ZM65.7964 168.479L69.39 157.028L79.2285 167.847L75.5934 179.273L65.7964 168.479ZM88.8537 93.9359L78.791 82.9828L91.9627 79.1404L102.001 90.0392L91.4107 93.178L88.8537 93.9359ZM121.612 212.981L123.808 206.474L125.326 201.978L125.383 201.809L125.443 201.632L128.165 200.724L138.229 197.37L134.365 208.69L121.612 212.981ZM100.633 190.481L104.395 179.009L112.067 187.426L114.377 189.96L114.272 190.277L110.569 201.403L100.633 190.481ZM69.6016 156.354L73.2261 144.802L83.1126 155.652L79.4425 167.175L69.6016 156.354ZM77.0971 132.473L87.0275 143.351L86.2906 145.667L83.3262 154.981L73.4375 144.128L77.0971 132.473ZM89.3139 94.4367L102.462 90.5395L112.535 101.474L99.4127 105.422L99.3126 105.313L99.187 105.176L90.9065 96.1691L89.3139 94.4367ZM105.669 75.143L115.684 85.9886L102.652 89.846L94.8595 81.3852L92.6163 78.9498L105.669 75.143ZM119.258 71.1762L129.245 81.9693L116.336 85.7954L106.323 74.952L119.258 71.1762ZM146.096 63.348L156.034 74.0361L154.464 74.5009L143.349 77.7916L136.016 69.8871L133.391 67.0575L146.096 63.348ZM177.39 97.0037L187.419 107.792L174.802 111.699L164.753 100.865L177.39 97.0037ZM195.455 167.715L191.423 179.001L179.085 183.112L183.084 171.797L184 171.494L195.455 167.715ZM121.003 212.878L111.039 201.92L114.848 190.476L124.857 201.463L121.003 212.878ZM80.9948 120.044L81.5768 120.68L90.9773 130.953L88.7366 137.986L87.2411 142.68L77.3086 131.8L80.9948 120.044ZM160.985 199.73L148.459 203.945L150.703 197.452L152.359 192.66L161.938 189.467L164.917 188.474L160.985 199.73ZM104.613 178.343L108.411 166.769L116.469 175.595L118.437 177.751L114.984 188.133L114.598 189.296L104.613 178.343ZM102.797 127.001L105.495 129.945L101.682 141.749L91.6653 130.801L95.4327 118.968L102.797 127.001ZM170.124 175.428L174.127 163.974L186.646 159.889L182.61 171.31L170.124 175.428ZM91.4516 131.472L101.466 142.417L97.684 154.116L87.7151 143.199L91.4516 131.472ZM156.797 179.823L159.011 173.417L160.768 168.336L165.54 166.778L173.398 164.212L169.394 175.669L156.797 179.823ZM108.157 165.586L98.1568 154.634L101.939 142.934L111.981 153.912L109.314 162.055L108.157 165.586ZM108.639 133.374L116.063 141.47L112.199 153.247L102.155 142.266L105.969 130.461L108.639 133.374ZM110.456 117.441L123.556 113.443L133.693 124.446L127.792 126.275L120.614 128.499L112.989 120.199L110.456 117.441ZM120.648 129.437L130.826 140.51L126.882 152.364L116.753 141.32L120.648 129.437ZM182.019 139.548L177.944 151.207L165.27 155.3L169.312 143.608L169.624 143.508L172.5 142.589L182.019 139.548ZM147.537 172.011L151.507 160.386L164.295 156.257L160.291 167.849L147.537 172.011ZM116.535 141.985L124.937 151.146L126.661 153.026L122.752 164.779L112.672 153.762L116.535 141.985ZM131.298 141.023L141.504 152.132L137.513 163.958L127.353 152.878L131.298 141.023ZM164.544 155.535L151.754 159.664L155.76 147.935L168.588 143.839L164.544 155.535ZM138.119 164.068L139.526 159.9L142.089 152.303L155.037 148.166L151.03 159.898L138.119 164.068ZM154.973 147.546L141.943 151.708L133.117 142.101L131.722 140.583L144.773 136.475L154.973 147.546ZM123.223 165.293L127.133 153.54L133.209 160.167L137.291 164.618L137.205 164.871L137.155 165.021L133.335 176.342L123.223 165.293ZM136.637 168.462L137.795 165.03L137.876 164.788L150.784 160.619L146.812 172.248L133.942 176.45L136.637 168.462ZM156.006 147.216L155.614 147.341L146.404 137.345L145.416 136.272L158.352 132.204L168.525 143.218L156.006 147.216ZM157.894 131.707L144.958 135.776L134.796 124.744L147.757 120.726L157.894 131.707ZM144.315 135.978L143.156 136.343L131.265 140.086L131.047 139.848L121.072 128.996L134.151 124.943L144.315 135.978ZM147.298 120.228L134.338 124.246L127.976 117.34L124.203 113.245L137.188 109.278L147.298 120.228ZM108.629 166.103L112.453 154.428L122.532 165.441L119.425 174.779L118.657 177.088L108.629 166.103ZM119.128 177.604L123.002 165.956L133.113 177.002L129.188 188.621L119.128 177.604ZM173.652 163.486L161.018 167.612L165.02 156.023L168.087 155.032L177.691 151.93L173.652 163.486ZM178.672 150.972L182.526 139.945L182.746 139.316L195.341 135.295L191.234 146.918L178.672 150.972ZM169.5 142.907L169.166 143.013L167.494 141.203L158.995 132.001L171.817 127.965L181.959 138.926L169.5 142.907ZM171.358 127.468L158.537 131.505L153.091 125.605L148.402 120.526L161.244 116.543L171.358 127.468ZM143.355 184.257L145.573 177.763L147.29 172.734L160.041 168.573L156.069 180.063L143.355 184.257ZM160.784 116.046L147.943 120.028L140.27 111.717L137.835 109.081L150.701 105.153L160.784 116.046ZM137.375 108.582L129.629 100.193L127.299 97.6705L140.194 93.7935L150.24 104.655L137.375 108.582ZM136.728 108.78L123.744 112.747L113.645 101.778L126.649 97.8659L136.728 108.78ZM129.795 188.726L133.582 177.515L133.698 177.172L146.565 172.971L142.63 184.496L129.795 188.726ZM186.902 159.162L174.38 163.248L174.784 162.094L178.419 151.695L190.978 147.643L186.902 159.162ZM195.283 134.673L182.998 138.594L182.621 138.714L182.601 138.721L180.51 136.461L172.461 127.762L185.164 123.764L195.283 134.673ZM184.704 123.268L172.002 127.266L171.362 126.574L161.89 116.343L174.617 112.396L184.704 123.268ZM139.732 93.2944L126.838 97.1713L116.798 86.2959L129.708 82.4693L139.732 93.2944ZM112.995 101.974L123.096 112.945L113.37 115.913L109.998 116.943L109.877 116.811L109.775 116.699L99.8719 105.921L112.995 101.974ZM110.033 117.882L119.969 128.699L120.119 128.862L120.175 128.923L116.281 140.805L106.184 129.794L110.033 117.882ZM115.068 189.812L118.907 178.267L128.965 189.281L128.961 189.294L128.827 189.689L125.08 200.802L115.068 189.812ZM152.611 191.932L156.546 180.549L165.449 177.613L169.14 176.396L165.172 187.746L152.611 191.932ZM164.105 101.063L174.156 111.899L167.08 114.094L161.43 115.846L152.622 106.33L151.349 104.955L164.105 101.063ZM116.146 86.4889L126.189 97.3668L125.099 97.6947L113.185 101.279L103.113 90.3468L116.146 86.4889ZM127.631 195.144L129.551 189.45L138.937 186.357L142.382 185.221L138.478 196.644L125.688 200.906L127.631 195.144ZM143.107 184.982L155.818 180.789L151.882 192.175L139.204 196.401L143.107 184.982ZM187.633 158.924L190.526 150.747L191.707 147.407L204.147 143.391L200.043 154.874L187.633 158.924ZM204.406 142.665L191.964 146.683L196.07 135.063L208.549 131.079L204.406 142.665ZM197.94 119.104L185.348 123.066L179.971 117.27L175.263 112.196L187.88 108.288L197.94 119.104ZM153.153 89.2575L140.382 93.0989L136.432 88.8332L130.361 82.276L143.16 78.4849L153.153 89.2575ZM99.4485 106.362L109.559 117.366L107.531 123.645L105.711 129.277L95.646 118.298L99.4485 106.362ZM165.903 187.502L169.87 176.155L175.832 174.189L182.352 172.038L178.352 183.356L165.903 187.502ZM195.716 166.986L183.341 171.069L187.376 159.65L199.783 155.601L195.716 166.986ZM195.925 134.468L185.808 123.561L198.401 119.599L208.493 130.455L195.925 134.468ZM150.889 104.457L140.844 93.5982L153.615 89.7564L163.643 100.565L150.889 104.457ZM132.736 67.2485L142.697 77.9849L129.898 81.776L119.912 70.9853L132.736 67.2485ZM84.9274 107.514L94.958 118.45L91.1908 130.283L81.2059 119.371L84.9274 107.514ZM87.5015 143.87L88.4119 144.867L97.468 154.784L93.7481 166.301L93.721 166.385L83.8002 155.501L87.5015 143.87ZM94.1936 166.904L97.941 155.302L107.939 166.252L104.142 177.825L94.1936 166.904ZM135.092 208.445L138.956 197.128L146.397 194.647L151.63 192.903L147.73 204.19L135.092 208.445ZM166.468 85.2556L153.803 89.0618L151.395 86.4662L143.813 78.2916L156.498 74.5355L166.468 85.2556ZM161.716 199.484L165.648 188.231L173.796 185.517L178.094 184.086L174.126 195.305L161.716 199.484ZM198.585 118.901L188.527 108.088L201.03 104.211L211.063 114.974L198.585 118.901ZM176.928 96.5062L166.158 99.7969L164.292 100.367L159.791 95.5158L154.266 89.5607L166.931 85.7541L176.928 96.5062ZM88.8909 94.8777L98.9737 105.846L95.1714 117.78L85.1384 106.841L88.8909 94.8777ZM80.116 119.084L80.5192 119.525L76.8333 131.28L66.9283 120.432L70.5685 108.648L80.116 119.084ZM72.4801 127.417L76.622 131.953L75.421 135.778L72.9626 143.607L63.1055 132.786L66.7193 121.108L72.4801 127.417ZM83.5866 156.172L84.9647 157.684L93.5049 167.054L90.7545 175.565L89.7887 178.553L79.9159 167.696L83.5866 156.172ZM93.9776 167.573L96.1789 169.989L103.924 178.491L100.161 189.963L90.261 179.073L93.9776 167.573ZM110.818 202.583L120.78 213.539L120.641 213.952L116.957 224.861L107.041 213.93L110.818 202.583ZM117.566 224.962L121.342 213.78L121.366 213.708L128.929 211.163L134.116 209.418L130.283 220.639L117.566 224.962ZM144.343 215.86L146.749 208.895L148.207 204.674L160.729 200.461L156.828 211.613L144.343 215.86ZM174.859 195.058L178.827 183.842L191.161 179.733L187.161 190.92L174.859 195.058ZM200.775 154.635L204.878 143.154L217.21 139.174L213.074 150.621L200.775 154.635ZM189.099 107.271L188.065 107.591L178.039 96.8056L190.566 92.9797L200.567 103.715L189.099 107.271ZM62.8965 133.463L69.7299 140.964L72.7511 144.28L69.1269 155.832L59.3178 145.043L62.8965 133.463ZM96.687 202.522L100.414 191.147L110.348 202.066L108.46 207.739L106.571 213.413L96.687 202.522ZM131.012 220.391L134.844 209.173L147.478 204.92L143.613 216.109L131.012 220.391ZM157.561 211.364L157.956 210.234L161.461 200.214L170.28 197.244L173.867 196.037L169.938 207.162L157.561 211.364ZM183.671 202.491L186.199 195.42L187.635 191.405L199.822 187.304L195.83 198.361L183.671 202.491ZM200.087 186.57L187.897 190.672L191.896 179.488L204.115 175.414L200.087 186.57ZM190.103 92.4822L177.577 96.3079L176.448 95.0939L167.582 85.5584L180.129 81.7828L190.103 92.4822ZM88.2027 94.1288L88.4148 94.3597L85.8503 102.536L84.6627 106.322L74.6616 95.4117L78.3681 83.424L88.2027 94.1288ZM55.3516 157.876L63.0044 166.31L65.1102 168.631L65.0678 168.766L61.5475 179.988L51.8304 169.258L55.3516 157.876ZM196.449 166.744L200.515 155.362L212.811 151.349L208.711 162.702L196.449 166.744ZM211.707 114.771L201.677 104.011L214.069 100.169L224.075 110.88L211.707 114.771ZM180.316 81.0888L171.941 72.1038L170.376 70.4237L182.841 66.7342L192.756 77.3488L180.316 81.0888ZM169.91 69.9242L163.547 63.0956L160.002 59.2911L172.487 55.6522L182.374 66.235L169.91 69.9242ZM145.631 62.8476L132.926 66.5566L122.995 55.8503L135.725 52.1953L145.631 62.8476ZM68.3714 106.247L70.0919 108.127L66.4518 119.91L56.5744 109.095L60.173 97.2866L68.3714 106.247ZM56.3678 109.773L64.3207 118.481L66.2429 120.586L63.6194 129.064L62.6295 132.264L52.8043 121.479L56.3678 109.773ZM62.0219 180.512L65.5848 169.154L75.3796 179.945L74.3898 183.053L71.771 191.274L62.0219 180.512ZM76.0669 179.795L79.7022 168.368L83.46 172.5L89.5724 179.222L85.8873 190.62L76.0669 179.795ZM106.82 214.594L116.734 225.523L112.946 236.743L103.078 225.844L106.82 214.594ZM143.807 217.413L144.091 216.591L156.572 212.346L152.707 223.404L140.258 227.679L143.807 217.413ZM170.673 206.912L174.601 195.79L186.899 191.653L182.934 202.741L170.673 206.912ZM183.408 203.225L188.266 201.575L195.564 199.096L191.603 210.059L179.48 214.218L183.408 203.225ZM213.606 99.6735L201.214 103.514L191.215 92.7812L203.632 88.9905L213.606 99.6735ZM193.407 77.1528L188.559 71.9626L183.495 66.5405L195.845 62.8817L205.733 73.4441L193.407 77.1528ZM95.2233 63.8274L105.207 74.6414L92.1543 78.4482L82.1463 67.5838L95.2233 63.8274ZM73.976 95.5663L70.3007 107.452L60.3796 96.6087L64.009 84.6945L73.976 95.5663ZM52.5974 122.158L61.4543 131.88L62.4203 132.94L58.842 144.52L49.0606 133.763L52.5974 122.158ZM86.1432 191.81L92.8838 199.239L95.9973 202.67L95.0425 205.582L92.3012 213.943L82.4927 203.116L86.1432 191.81ZM92.7719 214.462L96.4684 203.189L106.35 214.076L102.608 225.325L92.7719 214.462ZM127.542 230.543L130.762 221.121L143.36 216.84L139.526 227.93L126.961 232.241L127.542 230.543ZM153.44 223.152L157.305 212.097L166.652 208.923L169.679 207.895L165.782 218.917L153.44 223.152ZM208.615 194.015L196.568 198.11L200.559 187.055L209.129 184.171L212.639 182.99L208.615 194.015ZM209.447 162.459L211.32 157.273L213.546 151.11L225.725 147.133L221.598 158.449L209.447 162.459ZM226.728 146.163L230.894 134.755L236.296 133.009L243.002 130.841L238.807 142.225L226.728 146.163ZM230.424 134.264L218.205 138.21L221.949 127.84L222.375 126.659L226.366 125.384L234.627 122.746L230.424 134.264ZM226.535 95.6629L214.253 99.4727L204.281 88.7924L216.584 85.0368L226.535 95.6629ZM191.285 92.1214L190.752 92.2841L183.235 84.2209L180.78 81.5871L193.221 77.8468L203.168 88.4935L191.285 92.1214ZM162.164 44.601L172.019 55.1519L159.536 58.7908L149.659 48.1936L162.164 44.601ZM121.873 55.537L109.03 59.2269L99.1031 48.4997L111.971 44.8644L121.873 55.537ZM67.8717 72.0014L77.8908 82.9046L74.1847 94.8914L64.2155 84.0168L67.8717 72.0014ZM45.1449 146.629L54.1796 156.585L54.876 157.352L51.355 168.733L41.6695 158.035L45.1449 146.629ZM166.518 218.665L170.414 207.646L180.586 204.186L182.672 203.476L178.743 214.471L166.518 218.665ZM205.116 174.437L209.183 163.19L221.331 159.181L217.235 170.398L205.116 174.437ZM236.982 106.821L224.72 110.677L214.717 99.9689L226.999 96.1585L236.982 106.821ZM195.378 62.3827L183.028 66.0413L180.36 63.1858L173.143 55.4606L185.518 51.8483L195.378 62.3827ZM185.05 51.3483L172.676 54.9606L167.357 49.2674L162.822 44.4118L175.221 40.8496L185.05 51.3483ZM174.752 40.349L162.354 43.9106L158.582 39.8718L152.532 33.3937L164.95 29.8819L174.752 40.349ZM81.0273 67.2693L67.8322 71.0568L67.5992 70.8032L64.476 67.4035L57.8327 60.1717L71.0486 56.4347L81.0273 67.2693ZM61.81 181.187L71.5568 191.946L67.9793 203.178L58.2781 192.443L61.81 181.187ZM149.355 234.848L152.434 226.032L153.184 223.886L164.697 219.935L165.522 219.652L161.656 230.585L149.355 234.848ZM188.152 221.408L192.076 210.543L202.151 207.086L204.088 206.421L200.131 217.258L188.152 221.408ZM203.817 88.2953L200.375 84.6111L193.873 77.6508L206.199 73.9418L216.119 84.5401L203.817 88.2953ZM151.871 33.5805L161.696 44.0997L159.692 44.6755L149.192 47.6924L142.423 40.4287L139.342 37.1227L151.871 33.5805ZM138.682 37.3095L148.534 47.8813L135.916 51.5049L126.043 40.883L138.682 37.3095ZM84.8035 52.5473L94.7593 63.325L81.6831 67.081L71.7066 56.2486L84.8035 52.5473ZM67.177 71.245L67.3931 71.4806L65.1058 78.9977L63.7372 83.4956L53.7958 72.6574L57.4102 60.6136L67.177 71.245ZM42.3249 110.885L47.9903 117.102L52.1202 121.635L48.5835 133.239L38.8339 122.514L42.3249 110.885ZM44.6682 146.104L43.9699 148.395L41.193 157.509L31.5351 146.843L34.9644 135.409L44.6682 146.104ZM31.3303 147.526L39.7952 156.874L40.9858 158.189L40.9568 158.284L37.5416 169.497L27.9274 158.862L31.3303 147.526ZM38.0179 170.024L41.4623 158.715L51.1455 169.411L49.1436 175.891L47.6596 180.694L38.0179 170.024ZM78.6568 214.99L82.2764 203.786L92.0825 214.61L90.703 218.818L88.4173 225.79L78.6568 214.99ZM102.857 226.508L112.722 237.405L112.581 237.823L108.969 248.528L99.1496 237.661L102.857 226.508ZM122.946 243.994L126.711 232.973L139.273 228.663L135.471 239.655L122.946 243.994ZM138.082 233.97L140.005 228.412L152.45 224.138L148.621 235.102L136.204 239.401L138.082 233.97ZM162.393 230.33L165.205 222.376L166.258 219.4L173.622 216.873L178.48 215.206L174.586 226.107L162.393 230.33ZM175.325 225.852L175.735 224.703L179.217 214.953L191.337 210.796L187.411 221.665L175.325 225.852ZM200.874 217L204.829 206.166L206.198 205.697L216.734 202.081L212.749 212.885L200.874 217ZM217.007 201.342L205.099 205.428L209.087 194.5L221.027 190.442L217.007 201.342ZM225.622 177.976L213.647 182.006L214.677 179.185L217.706 170.885L224.613 168.585L229.71 166.888L225.622 177.976ZM243.271 130.113L231.159 134.027L235.361 122.512L247.506 118.635L243.271 130.113ZM249.775 102.793L241.197 105.494L237.628 106.618L231.069 99.6127L227.647 95.9577L239.824 92.183L249.775 102.793ZM239.359 91.6875L227.183 95.4621L222.577 90.5442L217.234 84.8384L229.435 81.1142L239.359 91.6875ZM218.609 69.5743L206.385 73.2478L196.499 62.6876L208.744 59.0598L218.609 69.5743ZM197.974 47.5799L197.771 47.6392L185.706 51.1569L175.879 40.6604L188.168 37.1293L197.974 47.5799ZM68.4521 203.701L72.0299 192.469L81.8044 203.265L78.1851 214.468L68.4521 203.701ZM109.214 249.709L109.332 249.358L121.965 244.98L118.235 255.91L105.635 260.318L109.214 249.709ZM217.974 170.153L222.068 158.937L234.104 154.968L229.981 166.154L217.974 170.153ZM228.969 80.6176L216.769 84.3417L214.573 81.9959L206.851 73.7458L219.076 70.0717L228.969 80.6176ZM187.698 36.6287L179.561 38.9669L175.41 40.1597L167.113 31.2991L165.611 29.6951L177.924 26.2102L187.698 36.6287ZM177.453 25.7087L175.507 26.2594L165.141 29.1932L157.626 21.1636L155.373 18.7565L167.706 15.3219L177.453 25.7087ZM74.4189 41.2977L84.3387 52.0436L78.3656 53.7319L71.2429 55.7449L61.2979 44.9489L74.4189 41.2977ZM46.9752 49.2608L56.9306 60.0915L55.7143 64.1449L53.3164 72.1348L43.4068 61.3291L46.9752 49.2608ZM35.7611 87.2001L39.1288 90.8881L45.5724 97.9447L42.0509 109.678L32.2853 98.9587L35.7611 87.2001ZM41.8464 110.36L38.4554 121.655L38.3557 121.988L28.638 111.3L32.0831 99.6428L41.8464 110.36ZM24.8148 124.224L34.4865 134.882L33.6742 137.591L31.0573 146.316L21.4269 135.682L24.8148 124.224ZM37.8106 170.704L45.8562 179.608L47.4501 181.372L43.9908 192.559L34.3926 181.92L37.8106 170.704ZM74.8514 226.772L78.4403 215.661L84.8323 222.733L88.1984 226.457L84.564 237.539L74.8514 226.772ZM95.2478 249.385L98.9283 238.326L100.52 240.088L108.746 249.191L105.024 260.221L95.2478 249.385ZM135.949 240.136L137.744 239.514L148.363 235.838L144.561 246.704L132.184 251.035L135.949 240.136ZM145.296 246.447L146.741 242.319L149.098 235.583L161.396 231.322L157.566 242.16L145.296 246.447ZM175.061 226.589L184.664 223.263L187.144 222.404L183.25 233.178L171.2 237.393L175.061 226.589ZM187.885 222.147L199.861 217.998L195.939 228.74L183.992 232.919L187.885 222.147ZM235.114 153.992L236.003 151.583L239.276 142.714L251.241 138.809L247.05 150.053L235.114 153.992ZM256.012 126L244.008 129.874L244.075 129.694L248.242 118.4L248.464 118.329L248.561 118.298L260.275 114.554L256.012 126ZM60.6377 45.1327L70.5847 55.9311L57.3698 59.6678L57.1347 59.412L47.3976 48.819L60.6377 45.1327ZM43.2052 62.0118L47.1492 66.3124L53.1124 72.815L49.5292 84.7523L39.6718 73.9737L43.2052 62.0118ZM21.2245 136.367L30.8525 146.998L27.4498 158.334L17.8676 147.728L21.2245 136.367ZM158.303 241.902L162.132 231.066L171.758 227.733L174.323 226.845L170.461 237.651L158.303 241.902ZM196.683 228.48L200.603 217.74L211.237 214.056L212.476 213.627L208.523 224.342L196.683 228.48ZM209.268 224.081L209.498 223.459L213.221 213.369L213.894 213.135L224.986 209.291L221.01 219.974L209.268 224.081ZM229.551 197.036L217.75 201.086L218.398 199.33L221.77 190.19L233.599 186.168L229.551 197.036ZM242.626 161.941L230.721 165.907L234.844 154.724L246.777 150.786L242.626 161.941ZM268.644 121.919L256.752 125.762L260.701 115.156L261.013 114.319L272.939 110.509L268.644 121.919ZM261.284 113.591L260.87 113.723L252.626 104.939L250.885 103.084L262.932 99.2938L272.892 109.883L261.284 113.591ZM262.467 98.7996L250.421 102.59L240.472 91.9823L252.538 88.2426L262.467 98.7996ZM240.007 91.4867L231.854 82.8008L230.085 80.9156L242.176 77.2224L252.073 87.7472L240.007 91.4867ZM231.379 79.8814L229.619 80.4191L221.704 71.9815L219.728 69.8758L231.839 66.2327L241.709 76.7261L231.379 79.8814ZM231.372 65.7356L228.532 66.5899L219.262 69.3781L209.399 58.8663L221.534 55.2736L231.372 65.7356ZM208.931 58.3676L207.12 56.4372L199.1 47.8879L211.259 44.3414L221.065 54.7753L208.931 58.3676ZM144.497 8.03489L154.239 18.4378L141.797 21.9031L133.933 13.4835L132.034 11.4501L144.497 8.03489ZM131.369 11.6321L141.135 22.0878L140.252 22.3336L128.587 25.5792L118.797 15.0776L131.369 11.6321ZM118.132 15.2599L127.925 25.7637L127.76 25.8097L115.263 29.2906L105.445 18.7365L118.132 15.2599ZM77.7497 26.3281L87.6151 36.9855L74.6136 40.6095L64.7233 29.8978L77.7497 26.3281ZM64.0607 30.0792L73.9531 40.7936L60.8328 44.4441L58.6318 42.0542L50.9197 33.6801L64.0607 30.0792ZM46.2741 48.498L46.4946 48.738L42.9264 60.8052L33.0485 50.0312L36.571 37.9393L46.2741 48.498ZM42.7246 61.4878L40.9767 67.4055L39.1916 73.4489L29.3616 62.7069L32.8491 50.7164L42.7246 61.4878ZM18.2642 100.803L27.9564 111.457L24.538 123.011L14.8915 112.387L18.2642 100.803ZM14.6914 113.074L24.3355 123.696L20.9481 135.153L11.3497 124.556L14.6914 113.074ZM11.1494 125.243L20.379 135.433L20.7455 135.838L18.7168 142.704L17.3888 147.198L7.83401 136.628L11.1494 125.243ZM7.63375 137.316L12.4215 142.613L17.1862 147.884L13.8558 159.15L4.34483 148.608L7.63375 137.316ZM20.7998 182.61L24.1454 171.468L33.7092 182.073L30.3224 193.19L20.7998 182.61ZM40.8273 204.854L44.2561 193.764L53.8792 204.432L50.4049 215.498L40.8273 204.854ZM50.8784 216.024L54.353 204.958L59.2671 210.404L64.0082 215.659L61.4569 223.671L60.4922 226.7L50.8784 216.024ZM91.3811 261.013L95.0266 250.051L104.8 260.884L101.109 271.817L91.3811 261.013ZM101.72 271.912L105.268 261.403L105.379 261.076L105.387 261.051L117.984 256.645L114.281 267.481L101.72 271.912ZM154.244 253.382L157.257 244.862L158.042 242.64L161.454 241.448L170.197 238.391L166.37 249.103L154.244 253.382ZM179.867 244.337L183.725 233.66L195.669 229.482L191.779 240.135L179.867 244.337ZM205.078 235.442L205.928 233.137L208.994 224.824L213.764 223.156L220.732 220.718L216.783 231.311L205.078 235.442ZM217.532 231.047L221.48 220.457L233.111 216.391L229.138 226.953L217.532 231.047ZM241.998 192.76L230.296 196.78L233.057 189.369L234.343 185.915L246.074 181.925L241.998 192.76ZM246.352 181.186L234.619 185.176L238.701 174.218L242.522 172.931L250.464 170.256L246.352 181.186ZM250.741 169.518L238.976 173.481L242.621 163.698L243.094 162.428L254.888 158.499L250.741 169.518ZM255.165 157.762L243.368 161.693L243.966 160.087L247.518 150.542L259.344 146.644L255.165 157.762Z" fill="black"/>
</g>
<defs>
<clipPath id="clip0_1_17709">
<rect width="274" height="273" fill="white"/>
</clipPath>
</defs>
</svg>
