<svg width="275" height="248" viewBox="0 0 275 248" fill="none" xmlns="http://www.w3.org/2000/svg">
<g clip-path="url(#clip0_1_9944)">
<path d="M161.118 116.458L156.578 116.127L161.199 91.6788L169.844 92.3057L161.118 116.458ZM157.183 115.661L160.771 115.923L169.137 92.7646L161.614 92.2188L157.183 115.661Z" fill="black"/>
<path d="M152.443 116.464L152.848 92.2979L161.718 91.6719L157.094 116.134L152.443 116.464ZM153.349 92.7723L152.961 115.917L156.667 115.654L161.095 92.2256L153.349 92.7723Z" fill="black"/>
<path d="M164.931 117.365L160.608 116.374L169.328 92.2373L177.548 94.106L164.931 117.365ZM161.281 116.007L164.669 116.783L176.781 94.4532L169.653 92.8328L161.281 116.007Z" fill="black"/>
<path d="M148.306 117.378L144.477 94.0842L153.358 92.2207L152.953 116.398L148.306 117.378ZM145.057 94.4821L148.721 116.77L152.451 115.984L152.839 92.8495L145.057 94.4821Z" fill="black"/>
<path d="M172.943 25.1411L156.195 23.9491L160.822 0.00671387L181.613 1.48332L172.943 25.1411ZM156.803 23.4827L172.598 24.6067L180.903 1.94273L161.236 0.546078L156.803 23.4827Z" fill="black"/>
<path d="M139.516 25.1505L139.996 1.47533L161.341 0L156.712 23.9561L139.516 25.1505ZM140.495 1.95066L140.036 24.6047L156.287 23.4758L160.717 0.552791L140.495 1.95066Z" fill="black"/>
<path d="M168.437 118.832L164.441 117.202L177.049 93.9586L184.638 97.0333L168.437 118.832ZM165.159 116.946L168.264 118.212L183.837 97.2578L177.28 94.6008L165.159 116.946Z" fill="black"/>
<path d="M144.263 118.845L136.282 96.9908L144.968 93.943L148.799 117.243L144.263 118.845ZM136.937 97.3003L144.568 118.198L148.228 116.905L144.565 94.6234L136.937 97.3003Z" fill="black"/>
<path d="M188.352 28.6236L172.432 25.0587L181.096 1.4165L200.861 5.81132L188.352 28.6236ZM173.109 24.6892L188.09 28.0434L200.09 6.16098L181.42 2.00952L173.109 24.6892Z" fill="black"/>
<path d="M122.781 28.636L119.085 5.78977L140.506 1.40015L140.026 25.0858L122.781 28.636ZM119.665 6.19009L123.198 28.0311L139.526 24.6696L139.985 2.02597L119.665 6.19009Z" fill="black"/>
<path d="M171.548 120.821L167.982 118.591L184.173 96.806L190.948 101.014L171.548 120.821ZM168.719 118.452L171.472 120.173L190.141 101.112L184.302 97.485L168.719 118.452Z" fill="black"/>
<path d="M140.411 120.834L128.463 100.963L136.75 96.7899L144.732 118.647L140.411 120.834ZM129.181 101.171L140.604 120.167L144.099 118.397L136.469 97.5011L129.181 101.171Z" fill="black"/>
<path d="M174.191 123.292L171.144 120.507L171.328 120.319L190.534 100.71L196.322 105.955L174.191 123.292ZM171.876 120.487L174.216 122.626L195.533 105.926L190.555 101.416L171.876 120.487Z" fill="black"/>
<path d="M136.844 123.294L121.207 105.897L128.902 100.706L140.85 120.576L136.844 123.294ZM121.976 105.992L136.926 122.624L140.166 120.425L128.742 101.427L121.976 105.992Z" fill="black"/>
<path d="M202.574 34.3219L187.859 28.4634L200.361 5.66699L218.642 12.9011L202.574 34.3219ZM188.582 28.2036L202.401 33.7055L217.835 13.129L200.591 6.30523L188.582 28.2036Z" fill="black"/>
<path d="M106.371 34.3396L98.5635 12.8622L119.578 5.65149L123.275 28.5042L106.371 34.3396ZM99.2186 13.1751L106.678 33.6954L122.705 28.163L119.172 6.32843L99.2186 13.1751Z" fill="black"/>
<path d="M176.295 126.179L173.851 122.913L195.974 105.581L200.634 111.742L176.295 126.179ZM174.556 123.006L176.429 125.508L199.885 111.595L195.881 106.3L174.556 123.006Z" fill="black"/>
<path d="M133.648 126.177L114.694 111.686L121.612 105.587L137.245 122.979L133.648 126.177ZM115.495 111.658L133.623 125.518L136.525 122.939L121.571 106.302L115.495 111.658Z" fill="black"/>
<path d="M177.808 129.413L176.031 125.744L200.366 111.309L203.775 118.239L177.808 129.413ZM176.693 125.943L178.053 128.753L203.083 117.983L200.153 112.028L176.693 125.943Z" fill="black"/>
<path d="M130.902 129.404L109.085 118.193L115.059 111.325L134.004 125.809L130.902 129.404ZM109.895 118.037L130.778 128.769L133.267 125.886L115.13 112.019L109.895 118.037Z" fill="black"/>
<path d="M215.28 42.1197L202.116 34.085L218.173 12.6783L234.55 22.5989L215.28 42.1197ZM202.859 33.9425L215.201 41.4755L233.736 22.7002L218.304 13.3518L202.859 33.9425Z" fill="black"/>
<path d="M90.6651 42.1328L78.9009 22.5467L99.0333 12.6654L106.841 34.1446L90.6651 42.1328ZM79.622 22.7593L90.8598 41.4693L106.207 33.8903L98.7487 13.3717L79.622 22.7593Z" fill="black"/>
<path d="M152.541 140.2L152.052 140.067L156.673 115.624L161.298 115.962L152.541 140.2ZM157.088 116.164L153.141 137.041L160.591 116.42L157.088 116.164Z" fill="black"/>
<path d="M152.551 140.161L152.047 140.11L152.452 115.953L157.192 115.617L152.551 140.161ZM152.952 116.428L152.606 137.136L156.569 116.171L152.952 116.428Z" fill="black"/>
<path d="M152.525 140.235L152.062 140.028L160.782 115.892L165.183 116.901L152.525 140.235ZM161.107 116.489L153.688 137.025L164.417 117.247L161.107 116.489Z" fill="black"/>
<path d="M152.051 140.155L148.223 116.875L152.962 115.876L152.556 140.118L152.051 140.155ZM148.804 117.273L152.094 137.287L152.443 116.505L148.804 117.273Z" fill="black"/>
<path d="M152.505 140.266L152.078 139.993L164.685 116.753L168.751 118.41L152.505 140.266ZM164.915 117.395L154.228 137.096L167.951 118.633L164.915 117.395Z" fill="black"/>
<path d="M152.062 140.201L144.089 118.367L148.715 116.733L152.552 140.073L152.062 140.201ZM144.743 118.676L151.611 137.482L148.312 117.415L144.743 118.676Z" fill="black"/>
<path d="M178.697 132.913L177.628 128.937L203.597 117.762L205.669 125.287L178.697 132.913ZM178.233 129.23L179.054 132.283L205.045 124.935L203.262 118.46L178.233 129.23Z" fill="black"/>
<path d="M128.676 132.902L104.522 125.256L109.402 117.784L131.206 128.989L128.676 132.902ZM105.314 124.973L128.46 132.3L130.474 129.185L109.577 118.446L105.314 124.973Z" fill="black"/>
<path d="M152.483 140.292L152.097 139.962L168.287 118.182L171.913 120.449L152.483 140.292ZM168.415 118.862L154.738 137.262L171.107 120.545L168.415 118.862Z" fill="black"/>
<path d="M152.083 140.245L140.149 120.397L144.556 118.165L152.54 140.027L152.083 140.245ZM140.866 120.604L151.153 137.711L144.275 118.878L140.866 120.604Z" fill="black"/>
<path d="M152.458 140.314L152.12 139.936L171.5 120.143L174.597 122.974L152.458 140.314ZM171.52 120.85L155.186 137.532L173.81 122.944L171.52 120.85Z" fill="black"/>
<path d="M152.112 140.284L136.501 122.913L140.587 120.139L152.519 139.983L152.112 140.284ZM137.269 123.006L150.713 137.966L140.428 120.862L137.269 123.006Z" fill="black"/>
<path d="M169.997 92.8269L161.266 92.1937L146.771 71.1019L155.647 71.7424L169.997 92.8269ZM161.547 91.704L168.984 92.2436L155.365 72.2321L147.789 71.6855L161.547 91.704Z" fill="black"/>
<path d="M152.972 92.7989L138.359 71.765L147.407 71.13L147.49 71.2497L161.868 92.1711L152.972 92.7989ZM139.287 72.2095L153.225 92.2715L160.945 91.7266L147.153 71.6575L139.287 72.2095Z" fill="black"/>
<path d="M152.431 140.333L152.145 139.914L174.251 122.599L176.735 125.918L152.431 140.333ZM174.156 123.32L155.555 137.888L175.989 125.769L174.156 123.32Z" fill="black"/>
<path d="M152.147 140.316L133.236 125.862L136.905 122.601L152.491 139.944L152.147 140.316ZM134.035 125.832L150.291 138.257L136.865 123.318L134.035 125.832Z" fill="black"/>
<path d="M177.735 94.6701L169.337 92.7608L154.932 71.5963L163.463 73.5316L177.735 94.6701ZM169.644 92.3094L176.594 93.8893L163.154 73.9831L156.08 72.3781L169.644 92.3094Z" fill="black"/>
<path d="M144.655 94.5665L129.907 73.5873L138.936 71.7039L153.526 92.7052L144.655 94.5665ZM130.768 73.9275L144.879 93.9998L152.671 92.365L138.71 72.2706L130.768 73.9275Z" fill="black"/>
<path d="M164.361 48.5661L151.611 47.6524L156.292 23.4463L173.125 24.6442L164.361 48.5661ZM152.219 47.186L164.015 48.0311L172.416 25.1037L156.706 23.9857L152.219 47.186Z" fill="black"/>
<path d="M139.043 48.5715L139.527 24.64L156.812 23.4393L152.128 47.6594L139.043 48.5715ZM140.026 25.1154L139.562 48.0257L151.703 47.1791L156.187 23.9926L140.026 25.1154Z" fill="black"/>
<path d="M178.933 136.596L178.606 132.41L205.585 124.782L206.257 132.72L178.933 136.596ZM179.146 132.786L179.398 136.017L205.71 132.284L205.13 125.439L179.146 132.786Z" fill="black"/>
<path d="M127.027 136.59L101.122 132.711L104.781 124.805L128.919 132.446L127.027 136.59ZM101.868 132.309L126.724 136.03L128.217 132.757L105.055 125.424L101.868 132.309Z" fill="black"/>
<path d="M152.402 140.348L152.172 139.895L176.47 125.484L178.275 129.212L152.402 140.348ZM176.254 126.203L155.82 138.323L177.586 128.955L176.254 126.203Z" fill="black"/>
<path d="M152.185 140.34L130.437 129.165L133.6 125.5L152.456 139.912L152.185 140.34ZM131.244 129.008L149.882 138.585L133.672 126.195L131.244 129.008Z" fill="black"/>
<path d="M226.158 51.8393L214.871 41.8098L234.131 22.2999L248.204 34.7001L226.158 51.8393ZM215.61 41.7854L226.18 51.1783L247.406 34.6758L234.155 22.9992L215.61 41.7854Z" fill="black"/>
<path d="M76.0326 51.8493L60.5557 34.6455L79.3432 22.2949L91.1059 41.8788L76.0326 51.8493ZM61.3296 34.7453L76.1175 51.1832L90.419 41.7233L79.1798 23.0111L61.3296 34.7453Z" fill="black"/>
<path d="M175.961 51.2091L163.849 48.4831L172.608 24.5771L188.607 28.1592L175.961 51.2091ZM164.526 48.114L175.7 50.6289L187.835 28.5078L172.933 25.1707L164.526 48.114Z" fill="black"/>
<path d="M126.435 51.2256L122.7 28.1337L140.037 24.5643L139.552 48.5065L126.435 51.2256ZM123.28 28.5335L126.852 50.6196L139.052 48.0908L139.515 25.1911L123.28 28.5335Z" fill="black"/>
<path d="M184.91 97.6927L176.997 94.4864L162.632 73.2108L170.666 76.4496L170.71 76.5147L184.91 97.6927ZM177.332 94.0731L183.564 96.5985L170.331 76.8629L163.984 74.304L177.332 94.0731Z" fill="black"/>
<path d="M136.513 97.4487L121.622 76.5312L130.435 73.4539L145.168 94.4118L136.513 97.4487ZM122.429 76.788L136.706 96.8422L144.366 94.1545L130.24 74.0608L122.429 76.788Z" fill="black"/>
<path d="M152.371 140.359L152.201 139.88L178.1 128.733L179.187 132.774L152.371 140.359ZM177.761 129.433L155.969 138.812L178.565 132.421L177.761 129.433Z" fill="black"/>
<path d="M152.225 140.356L128.173 132.743L130.751 128.756L152.418 139.888L152.225 140.356ZM128.963 132.46L149.5 138.961L130.929 129.418L128.963 132.46Z" fill="black"/>
<path d="M191.408 101.899L184.026 97.2871L169.632 75.8201L177.116 80.4838L191.408 101.899ZM184.418 96.9585L189.681 100.227L176.724 80.8119L171.365 77.4924L184.418 96.9585Z" fill="black"/>
<path d="M128.743 101.391L113.704 80.5347L122.107 76.3348L136.988 97.2394L128.743 101.391ZM114.467 80.7225L128.902 100.742L136.23 97.0516L121.945 76.9845L114.467 80.7225Z" fill="black"/>
<path d="M152.337 140.366L152.232 139.869L179.105 132.269L179.438 136.525L152.337 140.366ZM178.646 132.927L155.995 139.334L178.893 136.088L178.646 132.927Z" fill="black"/>
<path d="M152.264 140.366L126.504 136.512L128.43 132.291L152.378 139.872L152.264 140.366ZM127.247 136.108L149.163 139.387L128.706 132.912L127.247 136.108Z" fill="black"/>
<path d="M186.662 55.5336L175.469 51.0484L188.106 28.0142L202.89 33.9005L186.662 55.5336ZM176.192 50.7897L186.489 54.9162L202.085 34.127L188.336 28.6529L176.192 50.7897Z" fill="black"/>
<path d="M114.082 55.551L106.197 33.8615L123.192 27.9945L126.929 51.0926L114.082 55.551ZM106.851 34.1734L114.389 54.9063L126.358 50.7524L122.787 28.6725L106.851 34.1734Z" fill="black"/>
<path d="M178.515 140.368L178.932 136.082L206.266 132.205L205.523 140.365L178.515 140.368ZM179.399 136.53L179.075 139.86L205.059 139.856L205.701 132.799L179.399 136.53Z" fill="black"/>
<path d="M98.9739 140.372L101.312 132.225L127.198 136.101L125.999 140.368L98.9739 140.372ZM101.678 132.794L99.6489 139.863L125.614 139.86L126.553 136.519L101.678 132.794Z" fill="black"/>
<path d="M179.026 140.368H152.301L152.266 139.862L179.45 136.009L179.026 140.368ZM155.907 139.86H178.564L178.881 136.604L155.907 139.86Z" fill="black"/>
<path d="M152.301 140.368H125.471L126.692 136.025L152.339 139.862L152.301 140.368ZM126.142 139.86H148.883L127.06 136.595L126.142 139.86Z" fill="black"/>
<path d="M197.272 107.502L190.333 101.204L175.557 79.0635L182.58 85.4242L197.272 107.502ZM190.738 100.896L194.583 104.379L182.174 85.7324L178.252 82.1861L190.738 100.896Z" fill="black"/>
<path d="M121.531 106.292L106.348 85.5047L114.148 80.2806L129.182 101.131L121.531 106.292ZM107.071 85.6323L121.652 105.596L128.462 101.003L114.023 80.9765L107.071 85.6323Z" fill="black"/>
<path d="M177.96 144.21L152.264 140.366L152.301 139.86H179.127L177.96 144.21ZM155.719 140.368L177.586 143.64L178.464 140.368H155.719Z" fill="black"/>
<path d="M125.1 144.227L125.578 139.86H152.301L152.337 140.366L125.1 144.227ZM126.034 140.368L125.677 143.631L148.695 140.368H126.034Z" fill="black"/>
<path d="M196.201 61.4441L186.205 55.2955L202.423 33.6763L215.647 41.7477L196.201 61.4441ZM186.946 55.1545L196.123 60.7989L214.834 41.8475L202.552 34.3513L186.946 55.1545Z" fill="black"/>
<path d="M102.273 61.4575L90.4024 41.6953L106.666 33.6638L114.552 55.3553L102.273 61.4575ZM91.1225 41.9069L102.467 60.7929L113.919 55.102L106.382 34.3711L91.1225 41.9069Z" fill="black"/>
<path d="M203.478 148.029L177.453 144.135L178.6 139.86L205.621 139.856L203.478 148.029ZM178.092 143.716L203.102 147.459L204.961 140.365L178.99 140.368L178.092 143.716Z" fill="black"/>
<path d="M98.1365 148.049L99.085 139.863L126.09 139.86L125.62 144.153L98.1365 148.049ZM99.5379 140.372L98.7177 147.453L125.157 143.705L125.523 140.368L99.5379 140.372Z" fill="black"/>
<path d="M176.26 147.963L152.225 140.356L152.339 139.862L178.141 143.723L176.26 147.963ZM155.441 140.841L175.98 147.341L177.405 144.127L155.441 140.841Z" fill="black"/>
<path d="M125.4 147.986L125.119 143.71L152.266 139.862L152.371 140.359L125.4 147.986ZM125.658 144.148L125.867 147.325L148.607 140.895L125.658 144.148Z" fill="black"/>
<path d="M234.948 63.2718L225.812 51.4639L247.849 34.3317L259.274 48.9421L234.948 63.2718ZM226.525 51.5538L235.076 62.6064L258.516 48.7985L247.761 35.0444L226.525 51.5538Z" fill="black"/>
<path d="M62.8233 63.2738L43.9655 48.8891L60.9658 34.3408L76.4379 51.5394L62.8233 63.2738ZM44.7743 48.8663L62.804 62.6192L75.7122 51.4932L60.9196 35.0501L44.7743 48.8663Z" fill="black"/>
<path d="M200.057 111.822L195.716 106.081L182.157 85.7059L182.571 85.4116L186.962 91.2127L200.471 111.528L200.057 111.822Z" fill="black"/>
<path d="M115.055 112.046L99.7324 91.3364L106.751 85.1942L121.934 105.982L115.055 112.046ZM100.42 91.4104L115.134 111.298L121.249 105.907L106.668 85.9427L100.42 91.4104Z" fill="black"/>
<path d="M173.964 151.532L152.185 140.34L152.378 139.872L176.511 147.509L173.964 151.532ZM155.101 141.267L173.783 150.867L175.729 147.795L155.101 141.267Z" fill="black"/>
<path d="M126.364 151.555L125.326 147.478L152.232 139.869L152.402 140.348L126.364 151.555ZM125.941 147.833L126.71 150.852L148.635 141.415L125.941 147.833Z" fill="black"/>
<path d="M171.13 154.829L152.147 140.316L152.418 139.888L174.275 151.12L171.13 154.829ZM154.719 141.643L171.055 154.131L173.473 151.279L154.719 141.643Z" fill="black"/>
<path d="M127.968 154.841L126.195 151.074L152.201 139.88L152.431 140.333L127.968 154.841ZM126.879 151.333L128.19 154.118L148.781 141.906L126.879 151.333Z" fill="black"/>
<path d="M200.163 155.528L175.772 147.809L177.619 143.645L203.656 147.542L200.163 155.528ZM176.468 147.496L199.88 154.905L202.924 147.946L177.927 144.205L176.468 147.496Z" fill="black"/>
<path d="M98.6352 155.554L98.1594 147.532L125.624 143.639L125.901 147.845L98.6352 155.554ZM98.6948 147.97L99.1056 154.893L125.366 147.467L125.153 144.219L98.6948 147.97Z" fill="black"/>
<path d="M204.349 68.8004L195.794 61.1327L215.229 41.4473L226.566 51.5218L204.349 68.8004ZM196.531 61.1103L204.372 68.1383L225.771 51.496L215.252 42.1481L196.531 61.1103Z" fill="black"/>
<path d="M167.823 157.767L152.112 140.284L152.456 139.912L171.49 154.463L167.823 157.767ZM154.313 141.972L167.86 157.048L170.694 154.496L154.313 141.972Z" fill="black"/>
<path d="M130.172 157.77L127.708 154.404L152.172 139.895L152.458 140.314L130.172 157.77ZM128.449 154.555L130.272 157.045L149.048 142.339L128.449 154.555Z" fill="black"/>
<path d="M91.2882 68.8062L75.6886 51.4668L90.8437 41.4424L102.713 61.2023L91.2882 68.8062ZM76.4615 51.5656L91.3721 68.1392L102.027 61.0479L90.6813 42.1596L76.4615 51.5656Z" fill="black"/>
<path d="M203.218 118.252L189.754 98.034L186.53 91.4784L186.97 91.2253L200.488 111.556L203.657 117.999L203.218 118.252ZM188.707 94.7555L190.193 97.7807L201.481 114.728L200.039 111.796L188.707 94.7555Z" fill="black"/>
<path d="M109.475 118.519L94.0209 97.884L100.093 90.9686L115.42 111.685L109.475 118.519ZM94.6755 97.9094L109.505 117.71L114.769 111.659L100.059 91.7782L94.6755 97.9094Z" fill="black"/>
<path d="M164.128 160.273L152.083 140.245L152.491 139.944L168.224 157.453L164.128 160.273ZM153.89 142.262L164.285 159.548L167.459 157.362L153.89 142.262Z" fill="black"/>
<path d="M132.921 160.266L129.831 157.391L152.145 139.914L152.483 140.292L132.921 160.266ZM130.613 157.424L132.905 159.556L149.415 142.698L130.613 157.424Z" fill="black"/>
<path d="M160.126 162.284L152.062 140.201L152.519 139.983L164.565 160.013L160.126 162.284ZM153.449 142.517L160.407 161.569L163.848 159.808L153.449 142.517Z" fill="black"/>
<path d="M136.151 162.271L132.512 159.957L152.12 139.936L152.505 140.266L136.151 162.271ZM133.314 159.864L136.025 161.588L149.867 142.963L133.314 159.864Z" fill="black"/>
<path d="M195.649 162.677L173.51 151.299L176.01 147.351L200.411 155.073L195.649 162.677ZM174.237 151.1L195.466 162.011L199.631 155.359L176.23 147.954L174.237 151.1Z" fill="black"/>
<path d="M100.464 162.699L98.5642 155.046L125.815 147.34L126.837 151.351L100.464 162.699ZM99.1766 155.401L100.813 161.996L126.237 151.055L125.451 147.971L99.1766 155.401Z" fill="black"/>
<path d="M155.679 72.2547L146.976 71.6266L151.708 47.1495L164.543 48.0691L155.679 72.2547ZM147.584 71.1608L155.333 71.7198L163.833 48.5281L152.122 47.689L147.584 71.1608Z" fill="black"/>
<path d="M138.563 72.2604L139.053 48.0611L152.228 47.1426L147.493 71.6336L138.563 72.2604ZM139.552 48.536L139.083 71.714L147.067 71.1538L151.603 47.6959L139.552 48.536Z" fill="black"/>
<path d="M155.928 163.749L152.051 140.155L152.54 140.027L160.593 162.079L155.928 163.749ZM152.991 142.745L156.331 163.065L159.94 161.773L152.991 142.745Z" fill="black"/>
<path d="M139.781 163.729L135.689 162.04L152.097 139.962L152.525 140.235L139.781 163.729ZM136.487 161.819L139.552 163.084L150.374 143.133L136.487 161.819Z" fill="black"/>
<path d="M151.637 164.624L152.047 140.11L152.552 140.073L156.42 163.605L151.637 164.624ZM152.508 142.942L152.156 163.993L155.839 163.209L152.508 142.942Z" fill="black"/>
<path d="M143.722 164.607L139.283 163.579L152.078 139.993L152.541 140.2L143.722 164.607ZM140.049 163.234L143.397 164.009L150.915 143.204L140.049 163.234Z" fill="black"/>
<path d="M163.439 74.0477L155.168 72.1713L164.026 48.0016L176.216 50.7452L163.439 74.0477ZM155.844 71.8032L163.178 73.467L175.445 51.0929L164.35 48.5956L155.844 71.8032Z" fill="black"/>
<path d="M130.129 74.0606L126.354 50.7229L139.563 47.985L139.073 72.1949L130.129 74.0606ZM126.933 51.1223L130.546 73.4542L138.573 71.7797L139.042 48.6123L126.933 51.1223Z" fill="black"/>
<path d="M147.359 164.89L152.052 140.067L152.556 140.118L152.146 164.545L147.359 164.89ZM151.997 143.092L147.982 164.335L151.646 164.071L151.997 143.092Z" fill="black"/>
<path d="M147.878 164.883L143.206 164.537L152.062 140.028L152.551 140.161L147.878 164.883ZM143.913 164.079L147.463 164.342L151.462 143.186L143.913 164.079Z" fill="black"/>
<path d="M241.416 76.159L234.677 62.841L258.998 48.5144L267.473 65.0152L241.416 76.159ZM235.346 63.0372L241.654 75.5039L266.771 64.7624L258.791 49.2261L235.346 63.0372Z" fill="black"/>
<path d="M51.3617 76.1585L29.5381 64.9751L44.3377 48.5332L63.1864 62.911L51.3617 76.1585ZM30.3583 64.8241L51.244 75.5267L62.4409 62.982L44.4021 49.2221L30.3583 64.8241Z" fill="black"/>
<path d="M206.02 126.56L191.655 105.051L189.307 96.4452L203.674 118.044L206.02 126.56ZM192.135 104.877L204.694 123.662L203.195 118.218L190.624 99.3408L192.135 104.877Z" fill="black"/>
<path d="M104.933 125.556L89.3578 104.998L94.335 97.455L109.8 118.105L104.933 125.556ZM89.9807 104.978L104.903 124.673L109.18 118.125L94.3614 98.3385L89.9807 104.978Z" fill="black"/>
<path d="M170.585 76.9652L162.948 73.8863L175.716 50.5992L186.978 55.1123L170.585 76.9652ZM163.669 73.6285L170.412 76.3473L186.173 55.3377L175.945 51.239L163.669 73.6285Z" fill="black"/>
<path d="M190.048 169.29L170.725 154.519L173.81 150.881L195.958 162.263L190.048 169.29ZM171.459 154.44L189.971 168.591L195.158 162.424L173.937 151.518L171.459 154.44Z" fill="black"/>
<path d="M121.872 76.9825L113.908 55.0729L126.846 50.583L130.623 73.9272L121.872 76.9825ZM114.563 55.3843L122.179 76.3368L130.052 73.5875L126.441 51.262L114.563 55.3843Z" fill="black"/>
<path d="M103.58 169.306L100.298 162.217L126.663 150.872L128.407 154.58L103.58 169.306ZM100.979 162.478L103.805 168.582L127.75 154.379L126.412 151.534L100.979 162.478Z" fill="black"/>
<path d="M210.902 77.4404L204.005 68.4233L226.214 51.1515L235.389 63.0115L210.902 77.4404ZM204.716 68.5152L211.033 76.7734L234.634 62.8665L226.124 51.8662L204.716 68.5152Z" fill="black"/>
<path d="M81.3922 77.4382L62.4101 62.9586L76.0977 51.1611L91.6922 68.4951L81.3922 77.4382ZM63.2172 62.9343L81.3714 76.7826L90.9681 68.4504L76.0525 51.8714L63.2172 62.9343Z" fill="black"/>
<path d="M176.943 80.9479L170.128 76.726L186.511 54.887L196.568 61.0725L176.943 80.9479ZM170.869 76.5864L176.866 80.3018L195.756 61.1704L186.64 55.5629L170.869 76.5864Z" fill="black"/>
<path d="M113.989 80.9613L102.01 61.0201L114.377 54.8743L122.342 76.7858L113.989 80.9613ZM102.73 61.2302L114.182 80.2958L121.709 76.5335L114.094 55.583L102.73 61.2302Z" fill="black"/>
<path d="M183.493 175.197L167.483 157.389L171.079 154.149L190.406 168.924L183.493 175.197ZM168.2 157.427L183.53 174.477L189.613 168.957L171.105 154.81L168.2 157.427Z" fill="black"/>
<path d="M107.911 175.207L103.323 168.867L128.148 154.143L130.572 157.456L107.911 175.207ZM104.062 169.02L108.013 174.481L129.871 157.359L128.01 154.816L104.062 169.02Z" fill="black"/>
<path d="M206.32 133.458L192.268 112.562L191.566 104.027L205.605 125.024L206.32 133.458ZM192.764 112.388L205.647 131.547L205.109 125.198L192.234 105.941L192.764 112.388Z" fill="black"/>
<path d="M101.549 132.998L85.8628 112.511L89.6176 104.499L105.213 125.083L101.549 132.998ZM86.4543 112.447L101.441 132.021L104.623 125.146L89.721 105.477L86.4543 112.447Z" fill="black"/>
<path d="M176.141 180.254L163.865 159.837L167.881 157.072L183.894 174.882L176.141 180.254ZM164.547 159.984L176.297 179.527L183.13 174.792L167.802 157.744L164.547 159.984Z" fill="black"/>
<path d="M113.352 180.25L107.572 174.827L130.236 157.074L133.278 159.902L113.352 180.25ZM108.352 174.862L113.337 179.538L132.549 159.919L130.208 157.742L108.352 174.862Z" fill="black"/>
<path d="M182.356 85.8969L176.537 80.6354L196.151 60.7704L204.757 68.4832L182.356 85.8969ZM177.272 80.6145L182.381 85.2333L203.964 68.4554L196.173 61.4727L177.272 80.6145Z" fill="black"/>
<path d="M106.668 85.9025L90.9442 68.4241L102.451 60.7659L114.428 80.7051L106.668 85.9025ZM91.7161 68.5214L106.751 85.2345L113.743 80.5521L102.289 61.4846L91.7161 68.5214Z" fill="black"/>
<path d="M215.699 87.161L210.634 77.0083L235.116 62.5824L241.884 75.9586L215.699 87.161ZM211.301 77.2054L215.94 86.5049L241.185 75.7043L234.907 63.2956L211.301 77.2054Z" fill="black"/>
<path d="M72.8291 87.1566L50.894 75.9188L62.7806 62.6016L81.7535 77.0741L72.8291 87.1566ZM51.7117 75.7664L72.7098 86.5238L81.01 77.1466L62.8466 63.2914L51.7117 75.7664Z" fill="black"/>
<path d="M168.174 184.324L159.951 161.802L164.302 159.576L176.577 179.992L168.174 184.324ZM160.582 162.05L168.454 183.607L175.861 179.789L164.111 160.245L160.582 162.05Z" fill="black"/>
<path d="M119.77 184.308L112.944 179.94L132.876 159.585L136.455 161.862L119.77 184.308ZM113.745 179.848L119.645 183.624L135.72 161.998L132.951 160.236L113.745 179.848Z" fill="black"/>
<path d="M245.395 90.2065L241.228 75.686L267.285 64.5424L272.572 82.5627L245.395 90.2065ZM241.841 75.977L245.744 89.5797L271.939 82.2125L266.958 65.2352L241.841 75.977Z" fill="black"/>
<path d="M41.9388 90.1999L17.6414 82.5385L29.8642 64.5708L51.6738 75.747L41.9388 90.1999ZM18.4465 82.2589L41.7292 89.6005L50.9318 75.9382L30.0321 65.2284L18.4465 82.2589Z" fill="black"/>
<path d="M159.801 187.295L155.844 163.239L160.419 161.602L168.641 184.118L159.801 187.295ZM156.415 163.575L160.204 186.61L167.988 183.813L160.114 162.251L156.415 163.575Z" fill="black"/>
<path d="M127.006 187.279L119.309 184.075L136.002 161.619L140.025 163.28L127.006 187.279ZM120.106 183.856L126.778 186.633L139.308 163.534L136.174 162.241L120.106 183.856Z" fill="black"/>
<path d="M205.48 140.842L191.525 120.249L192.33 111.742L206.245 132.435L205.48 140.842ZM192.048 120.115L205.102 139.378L205.722 132.569L192.702 113.207L192.048 120.115Z" fill="black"/>
<path d="M99.4172 140.67L83.6272 120.238L86.0552 111.925L101.775 132.457L99.4172 140.67ZM84.188 120.132L99.2057 139.565L101.215 132.562L86.2618 113.032L84.188 120.132Z" fill="black"/>
<path d="M151.227 189.093L151.645 164.102L156.337 163.103L160.293 187.15L151.227 189.093ZM152.147 164.515L151.746 188.462L159.712 186.754L155.922 163.711L152.147 164.515Z" fill="black"/>
<path d="M134.881 189.076L126.51 187.128L139.535 163.115L143.896 164.125L134.881 189.076ZM127.275 186.784L134.556 188.478L143.223 164.491L139.797 163.698L127.275 186.784Z" fill="black"/>
<path d="M186.693 91.7002L182.014 85.5184L204.406 68.1112L211.344 77.1805L186.693 91.7002ZM182.723 85.6117L186.825 91.0322L210.591 77.0334L204.314 68.8274L182.723 85.6117Z" fill="black"/>
<path d="M100.087 91.7018L80.9792 77.1231L91.352 68.1169L107.071 85.5902L100.087 91.7018ZM81.7843 77.0978L100.065 91.0452L106.348 85.547L91.3083 68.8287L81.7843 77.0978Z" fill="black"/>
<path d="M142.675 189.67L147.457 164.373L152.155 164.035L151.736 189.014L142.675 189.67ZM147.884 164.852L143.297 189.116L151.236 188.54L151.637 164.582L147.884 164.852Z" fill="black"/>
<path d="M143.194 189.663L134.365 189.006L143.386 164.04L147.973 164.38L143.194 189.663ZM135.071 188.549L142.778 189.123L147.368 164.845L143.733 164.576L135.071 188.549Z" fill="black"/>
<path d="M203.395 148.347L189.448 127.965L191.685 119.578L205.566 140.063L203.395 148.347ZM189.999 127.871L203.185 147.14L205.016 140.157L191.889 120.786L189.999 127.871Z" fill="black"/>
<path d="M98.6082 148.397L82.7138 127.995L83.729 119.538L99.5759 140.044L98.6082 148.397ZM83.2438 127.848L98.2461 147.105L99.047 140.191L84.0862 120.832L83.2438 127.848Z" fill="black"/>
<path d="M218.604 97.7374L215.515 86.687L241.7 75.4843L245.884 90.0685L218.604 97.7374ZM216.125 86.9792L218.957 97.1101L245.255 89.7174L241.37 76.1786L216.125 86.9792Z" fill="black"/>
<path d="M65.8145 97.7312L41.4329 90.0403L51.218 75.5133L73.1392 86.7438L65.8145 97.7312ZM42.235 89.7602L65.6035 97.1313L72.3996 86.9365L51.3876 76.1719L42.235 89.7602Z" fill="black"/>
<path d="M189.843 98.2217L186.426 91.2666L211.073 76.7495L216.168 86.9607L189.843 98.2217ZM187.091 91.4657L190.087 97.5641L215.472 86.7053L210.862 77.4642L187.091 91.4657Z" fill="black"/>
<path d="M94.4086 98.2134L72.3617 86.9173L81.348 76.7648L100.447 91.3365L94.4086 98.2134ZM73.177 86.7633L94.2879 97.5802L99.7053 91.4105L81.4156 77.4562L73.177 86.7633Z" fill="black"/>
<path d="M200.071 155.736L186.084 135.517L189.676 127.398L203.58 147.717L200.071 155.736ZM186.664 135.461L199.971 154.697L203.001 147.771L189.771 128.438L186.664 135.461Z" fill="black"/>
<path d="M99.1724 156.021L83.154 135.587L82.6794 127.123L98.6762 147.657L99.1724 156.021ZM83.6526 135.399L98.5685 154.426L98.1781 147.845L83.2784 128.72L83.6526 135.399Z" fill="black"/>
<path d="M246.756 105.083L245.296 89.7059L272.478 82.0608L274.425 101.181L246.756 105.083ZM245.843 90.0804L247.212 104.504L273.869 100.746L272.034 82.7144L245.843 90.0804Z" fill="black"/>
<path d="M34.8033 105.084L8.59296 101.176L17.9116 82.0903L42.1905 89.7461L34.8033 105.084ZM9.35463 100.775L34.5078 104.526L41.4775 90.0545L18.1763 82.7072L9.35463 100.775Z" fill="black"/>
<path d="M191.722 105.298L189.661 97.7462L215.987 86.4851L219.094 97.5999L191.722 105.298ZM190.269 98.0398L192.078 104.67L218.468 97.2478L215.653 87.181L190.269 98.0398Z" fill="black"/>
<path d="M89.7758 105.288L65.3097 97.5722L72.6835 86.5105L94.7167 97.7999L89.7758 105.288ZM66.1083 97.2908L89.5627 104.688L93.9797 97.9936L72.8554 87.1701L66.1083 97.2908Z" fill="black"/>
<path d="M219.544 108.92L218.509 97.2362L245.794 89.5658L247.26 105.011L219.544 108.92ZM219.053 97.6117L220.003 108.341L246.708 104.576L245.345 90.2204L219.053 97.6117Z" fill="black"/>
<path d="M60.5324 108.917L34.2767 105.005L41.7005 89.5916L66.0641 97.2766L60.5324 108.917ZM35.0344 104.604L60.2349 108.358L65.3538 97.586L41.9675 90.2089L35.0344 104.604Z" fill="black"/>
<path d="M195.57 162.804L181.502 142.716L186.365 135.028L200.326 155.209L195.57 162.804ZM182.113 142.701L195.546 161.884L199.717 155.223L186.383 135.95L182.113 142.701Z" fill="black"/>
<path d="M101.17 163.434L84.9298 142.773L82.8745 134.406L99.1173 155.162L101.17 163.434ZM85.4106 142.598L100.107 161.262L98.6367 155.338L83.9319 136.579L85.4106 142.598Z" fill="black"/>
<path d="M192.284 112.764L191.63 104.796L219.007 97.0961L220.048 108.849L192.284 112.764ZM192.171 105.172L192.747 112.185L219.499 108.413L218.554 97.7517L192.171 105.172Z" fill="black"/>
<path d="M86.3085 112.758L60.0067 108.839L65.5744 97.1222L90.0229 104.833L86.3085 112.758ZM60.7606 108.437L86.0086 112.199L89.3156 105.143L65.8436 97.7405L60.7606 108.437Z" fill="black"/>
<path d="M189.992 169.356L175.817 149.379L181.827 142.293L195.878 162.358L189.992 169.356ZM176.46 149.407L190.026 168.525L195.237 162.33L181.788 143.124L176.46 149.407Z" fill="black"/>
<path d="M104.83 170.795L88.0307 149.503L84.0415 140.859L100.869 162.241L104.83 170.795ZM88.48 149.263L102.555 167.093L100.42 162.481L86.3117 144.565L88.48 149.263Z" fill="black"/>
<path d="M272.928 120.432H245.448L246.747 104.57L274.424 100.668L272.928 120.432ZM245.999 119.924H272.456L273.87 101.26L247.221 105.017L245.999 119.924Z" fill="black"/>
<path d="M30.1549 120.443H2.65012L8.79571 100.692L34.9849 104.597L30.1549 120.443ZM3.34099 119.935H29.7782L34.3262 105.013L9.15183 101.259L3.34099 119.935Z" fill="black"/>
<path d="M245.958 120.432H218.477L219.538 108.407L247.264 104.497L245.958 120.432ZM219.033 119.924H245.489L246.705 105.09L220.009 108.854L219.033 119.924Z" fill="black"/>
<path d="M57.1265 120.443H29.6233L34.4763 104.521L60.7112 108.429L57.1265 120.443ZM30.3099 119.935H56.7475L60.0561 108.846L34.8348 105.088L30.3099 119.935Z" fill="black"/>
<path d="M183.472 175.217L169.162 155.334L176.18 149.013L190.347 168.977L183.472 175.217ZM169.841 155.407L183.552 174.457L189.671 168.904L176.097 149.773L169.841 155.407Z" fill="black"/>
<path d="M107.762 175.002L92.3871 155.535L88.0556 149.546L88.4614 149.239L103.892 168.786L108.168 174.695L107.762 175.002Z" fill="black"/>
<path d="M191.507 120.436L192.282 112.251L220.055 108.334L218.988 120.432L191.507 120.436ZM192.75 112.699L192.066 119.927L218.522 119.924L219.492 108.927L192.75 112.699Z" fill="black"/>
<path d="M56.5958 120.443L60.2031 108.354L86.4844 112.27L84.0984 120.439L56.5958 120.443ZM60.5642 108.922L57.2782 119.935L83.7169 119.931L85.8328 112.687L60.5642 108.922Z" fill="black"/>
<path d="M176.16 180.241L161.699 160.432L169.563 155.019L183.869 174.899L176.16 180.241ZM162.418 160.555L176.278 179.54L183.154 174.775L169.441 155.721L162.418 160.555Z" fill="black"/>
<path d="M113.17 180.08L107.788 175.03L92.3871 155.535L92.7606 155.192L98.222 160.311L113.544 179.737L113.17 180.08ZM94.8899 157.883L108.161 174.686L111.048 177.393L97.8485 160.654L94.8899 157.883Z" fill="black"/>
<path d="M168.238 184.291L153.617 164.53L162.136 160.168L176.599 179.98L168.238 184.291ZM154.383 164.709L168.39 183.641L175.839 179.801L161.981 160.819L154.383 164.709Z" fill="black"/>
<path d="M120.835 184.989L113.145 180.052L96.917 159.473L104.712 164.466L120.835 184.989ZM113.518 179.703L118.58 182.942L104.339 164.814L99.1793 161.521L113.518 179.703Z" fill="black"/>
<path d="M215.92 132.077L189.404 128.128L191.591 119.927L219.084 119.924L215.92 132.077ZM190.043 127.708L215.543 131.506L218.426 120.432L191.982 120.436L190.043 127.708Z" fill="black"/>
<path d="M55.1751 132.101L56.7128 119.935L84.1942 119.931L83.208 128.146L55.1751 132.101ZM57.1612 120.443L55.7632 131.504L82.7496 127.697L83.621 120.44L57.1612 120.443Z" fill="black"/>
<path d="M241.978 135.961L215.414 132.001L218.558 119.924H246.051L241.978 135.961ZM216.049 131.582L241.598 135.391L245.396 120.432H218.952L216.049 131.582Z" fill="black"/>
<path d="M27.6131 135.985L29.7438 119.935H57.2255L55.6972 132.027L27.6131 135.985ZM30.1893 120.443L28.2054 135.388L55.2412 131.578L56.6485 120.443H30.1893Z" fill="black"/>
<path d="M159.912 187.255L145.115 167.527L154.092 164.317L168.722 184.089L159.912 187.255ZM145.936 167.774L160.093 186.65L167.906 183.842L153.908 164.923L145.936 167.774Z" fill="black"/>
<path d="M127.689 187.563L119.549 184.175L103.712 164.016L111.975 167.441L127.689 187.563ZM119.867 183.756L126.096 186.349L111.657 167.86L105.312 165.23L119.867 183.756Z" fill="black"/>
<path d="M268.083 139.853L241.472 135.886L245.526 119.924H273.017L268.083 139.853ZM242.103 135.466L267.7 139.282L272.367 120.432H245.921L242.103 135.466Z" fill="black"/>
<path d="M0 139.881L2.77418 119.935H30.2569L28.1359 135.912L0 139.881ZM3.21696 120.443L0.596734 139.283L27.6825 135.462L29.6763 120.443H3.21696Z" fill="black"/>
<path d="M151.381 189.06L136.405 169.332L145.631 167.368L145.729 167.498L160.445 187.118L151.381 189.06ZM137.294 169.663L151.591 188.495L159.561 186.787L145.419 167.933L137.294 169.663Z" fill="black"/>
<path d="M135.358 189.187L126.747 187.183L111.173 167.24L119.923 169.274L135.358 189.187ZM127.037 186.729L134.079 188.367L119.632 169.728L112.459 168.061L127.037 186.729Z" fill="black"/>
<path d="M142.868 189.656L127.704 169.901L136.969 169.234L151.972 188.997L142.868 189.656ZM128.683 170.34L143.104 189.13L151 188.558L136.73 169.761L128.683 170.34Z" fill="black"/>
<path d="M143.534 189.689L134.586 189.023L119.226 169.206L128.326 169.875L128.395 169.966L143.534 189.689ZM134.85 188.532L142.438 189.097L128.061 170.366L120.328 169.797L134.85 188.532Z" fill="black"/>
<path d="M210.908 143.493L186.026 135.646L189.569 127.638L216.097 131.589L210.908 143.493ZM186.722 135.332L210.624 142.87L215.366 131.994L189.878 128.198L186.722 135.332Z" fill="black"/>
<path d="M55.795 143.52L55.2037 131.583L83.2173 127.631L83.6685 135.682L55.795 143.52ZM55.7347 132.022L56.2713 142.858L83.138 135.303L82.7404 128.212L55.7347 132.022Z" fill="black"/>
<path d="M235.389 151.214L210.42 143.339L215.576 131.511L242.151 135.473L235.389 151.214ZM211.112 143.024L235.103 150.591L241.424 135.879L215.887 132.072L211.112 143.024Z" fill="black"/>
<path d="M28.3235 151.245L27.6453 135.467L55.7094 131.512L56.2972 143.379L28.3235 151.245ZM28.1732 135.906L28.804 150.582L55.7692 142.999L55.2289 132.093L28.1732 135.906Z" fill="black"/>
<path d="M204.056 154.391L181.444 142.808L186.264 135.188L211.156 143.037L204.056 154.391ZM182.172 142.609L203.873 153.725L210.376 143.325L186.484 135.79L182.172 142.609Z" fill="black"/>
<path d="M58.4531 154.421L55.7291 143.01L83.5875 135.177L85.4751 142.861L58.4531 154.421ZM56.3372 143.367L58.8077 153.717L84.8781 142.563L83.219 135.809L56.3372 143.367Z" fill="black"/>
<path d="M259.962 158.966L234.901 151.061L241.631 135.396L268.253 139.365L259.962 158.966ZM235.591 150.745L259.674 158.341L267.529 139.771L241.944 135.956L235.591 150.745Z" fill="black"/>
<path d="M0.752193 159.001L0.0358887 139.363L28.1512 135.396L28.8264 151.104L0.752193 159.001ZM0.56086 139.802L1.23693 158.336L28.301 150.723L27.6672 135.978L0.56086 139.802Z" fill="black"/>
<path d="M195.519 164.496L175.771 149.433L181.744 142.39L204.364 153.977L195.519 164.496ZM176.506 149.353L195.442 163.798L203.564 154.139L181.871 143.027L176.506 149.353Z" fill="black"/>
<path d="M63.0967 164.517L58.2914 153.937L85.304 142.381L88.589 149.499L63.0967 164.517ZM58.9694 154.201L63.3257 163.792L87.9344 149.294L85.0492 143.043L58.9694 154.201Z" fill="black"/>
<path d="M226.328 165.803L203.602 154.158L210.655 142.88L235.634 150.759L226.328 165.803ZM204.327 153.958L226.142 165.137L234.858 151.047L210.877 143.483L204.327 153.958Z" fill="black"/>
<path d="M31.7634 165.834L28.2611 150.735L56.219 142.872L58.9274 154.219L58.7305 154.303L31.7634 165.834ZM28.8663 151.093L32.1218 165.128L58.3334 153.92L55.8473 143.505L28.8663 151.093Z" fill="black"/>
<path d="M185.509 173.544L169.143 155.351L176.125 149.063L195.878 164.13L185.509 173.544ZM169.861 155.389L185.545 172.824L195.084 164.164L176.152 149.723L169.861 155.389Z" fill="black"/>
<path d="M69.6205 173.555L62.8427 164.076L88.332 149.06L92.9366 155.427L69.6205 173.555ZM63.5797 164.232L69.7263 172.828L92.2368 155.327L88.1914 149.733L63.5797 164.232Z" fill="black"/>
<path d="M248.723 177.278L225.873 165.571L235.134 150.601L260.205 158.509L248.723 177.278ZM226.596 165.369L248.536 176.61L259.431 158.798L235.358 151.205L226.596 165.369Z" fill="black"/>
<path d="M4.93096 177.313L0.693451 158.489L28.7512 150.597L32.2385 165.631L4.93096 177.313ZM1.29568 158.848L5.29277 176.605L31.6467 165.331L28.3762 151.231L1.29568 158.848Z" fill="black"/>
<path d="M214.998 179.353L195.114 164.188L203.9 153.74L226.634 165.388L214.998 179.353ZM195.847 164.107L214.919 178.654L225.836 165.551L204.029 154.377L195.847 164.107Z" fill="black"/>
<path d="M37.8714 179.378L31.6049 165.349L58.759 153.738L63.5373 164.257L37.8714 179.378ZM32.2802 165.613L38.1036 178.651L62.8851 164.051L58.5018 154.401L32.2802 165.613Z" fill="black"/>
<path d="M174.261 181.298L161.718 160.419L169.541 155.034L185.91 173.229L174.261 181.298ZM162.4 160.567L174.417 180.571L185.145 173.139L169.462 155.706L162.4 160.567Z" fill="black"/>
<path d="M77.8698 181.294L69.2833 173.173L92.6021 155.043L98.4125 160.49L77.8698 181.294ZM70.0636 173.21L77.8579 180.583L97.6839 160.504L92.5714 155.711L70.0636 173.21Z" fill="black"/>
<path d="M162.065 187.545L153.684 164.496L162.154 160.159L174.697 181.037L162.065 187.545ZM154.316 164.744L162.346 186.828L173.981 180.833L161.963 160.828L154.316 164.744Z" fill="black"/>
<path d="M87.6421 187.536L77.4628 180.983L98.0117 160.172L104.88 164.557L87.6421 187.536ZM78.2649 180.894L87.5195 186.852L104.144 164.69L98.0847 160.822L78.2649 180.894Z" fill="black"/>
<path d="M201.667 191.509L185.169 173.166L195.467 163.817L215.355 178.986L201.667 191.509ZM185.886 173.202L201.703 190.788L214.562 179.021L195.495 164.478L185.886 173.202Z" fill="black"/>
<path d="M46.5147 191.52L37.6203 178.936L63.2827 163.817L70.0223 173.242L46.5147 191.52ZM38.3547 179.094L46.6228 190.792L69.3245 173.141L63.1397 164.492L38.3547 179.094Z" fill="black"/>
<path d="M149.227 192.125L145.24 167.482L154.152 164.295L162.531 187.34L149.227 192.125ZM145.81 167.818L149.631 191.44L161.879 187.034L153.847 164.944L145.81 167.818Z" fill="black"/>
<path d="M98.6941 192.109L87.1812 187.303L104.427 164.313L112.175 167.524L98.6941 192.109ZM87.9803 187.086L98.4681 191.463L111.457 167.777L104.597 164.934L87.9803 187.086Z" fill="black"/>
<path d="M234.612 194.317L214.593 179.045L226.17 165.151L249.027 176.862L234.612 194.317ZM215.324 178.962L234.532 193.616L248.232 177.026L226.3 165.789L215.324 178.962Z" fill="black"/>
<path d="M12.4706 194.342L4.77576 176.826L32.0727 165.149L38.3123 179.119L12.4706 194.342ZM5.44802 177.092L12.7059 193.613L37.6627 178.911L31.8125 165.813L5.44802 177.092Z" fill="black"/>
<path d="M136.081 194.906L136.599 169.291L145.734 167.346L149.719 191.98L136.081 194.906ZM137.1 169.704L136.603 194.274L149.14 191.585L145.317 167.955L137.1 169.704Z" fill="black"/>
<path d="M110.745 194.888L98.1972 191.957L111.686 167.359L120.115 169.319L110.745 194.888ZM98.965 191.615L110.423 194.291L119.439 169.684L111.946 167.942L98.965 191.615Z" fill="black"/>
<path d="M122.968 195.809L127.981 169.881L137.11 169.224L136.591 194.827L122.968 195.809ZM128.406 170.36L123.593 195.254L136.092 194.353L136.59 169.771L128.406 170.36Z" fill="black"/>
<path d="M123.487 195.802L110.229 194.818L119.604 169.234L128.497 169.888L123.487 195.802ZM110.939 194.361L123.074 195.261L127.889 170.353L119.95 169.769L110.939 194.361Z" fill="black"/>
<path d="M186.659 201.935L173.998 180.862L185.567 172.848L202.066 191.192L186.659 201.935ZM174.68 181.008L186.814 201.206L201.303 191.105L185.488 173.521L174.68 181.008Z" fill="black"/>
<path d="M57.4908 201.938L46.1799 191.136L69.6896 172.857L78.2274 180.932L57.4908 201.938ZM46.9577 191.175L57.4804 201.225L77.5003 180.945L69.6573 173.526L46.9577 191.175Z" fill="black"/>
<path d="M217.961 209.621L201.327 191.131L214.944 178.673L234.967 193.948L217.961 209.621ZM202.042 191.166L217.995 208.898L234.177 193.985L214.973 179.335L202.042 191.166Z" fill="black"/>
<path d="M23.2144 209.639L12.2224 193.898L38.0601 178.677L46.9167 191.207L23.2144 209.639ZM12.954 194.057L23.3249 208.909L46.2208 191.104L37.9148 179.353L12.954 194.057Z" fill="black"/>
<path d="M170.355 210.355L161.89 187.063L174.434 180.6L187.094 201.672L170.355 210.355ZM162.521 187.31L170.635 209.637L186.379 201.47L174.244 181.27L162.521 187.31Z" fill="black"/>
<path d="M70.5314 210.346L57.0852 201.625L77.8278 180.613L87.948 187.128L70.5314 210.346ZM57.8859 201.538L70.4097 209.661L87.2135 187.26L77.8999 181.264L57.8859 201.538Z" fill="black"/>
<path d="M153.175 216.529L149.144 191.615L162.358 186.862L170.821 210.148L153.175 216.529ZM149.714 191.95L153.579 215.842L170.169 209.844L162.053 187.512L149.714 191.95Z" fill="black"/>
<path d="M85.3087 216.516L70.0715 210.111L87.4961 186.883L98.9402 191.66L85.3087 216.516ZM70.8696 209.895L85.0832 215.87L98.222 191.912L87.6654 187.505L70.8696 209.895Z" fill="black"/>
<path d="M135.567 220.288L136.092 194.383L149.638 191.478L153.666 216.383L135.567 220.288ZM136.592 194.796L136.089 219.655L153.087 215.988L149.221 192.087L136.592 194.796Z" fill="black"/>
<path d="M101.443 220.274L84.8123 216.364L98.451 191.494L110.922 194.407L101.443 220.274ZM85.5797 216.022L101.121 219.676L110.246 194.772L98.7112 192.077L85.5797 216.022Z" fill="black"/>
<path d="M199.178 222.773L186.397 201.498L201.724 190.812L218.359 209.303L199.178 222.773ZM187.077 201.643L199.332 222.043L217.597 209.216L201.646 191.486L187.077 201.643Z" fill="black"/>
<path d="M36.9153 222.777L22.8819 209.253L46.5858 190.82L57.8481 201.577L36.9153 222.777ZM23.6575 209.295L36.9063 222.062L57.1229 201.587L46.5518 191.491L23.6575 209.295Z" fill="black"/>
<path d="M117.996 221.524L123.068 195.292L136.602 194.316L136.078 220.208L117.996 221.524ZM123.493 195.771L118.621 220.969L135.578 219.734L136.082 194.863L123.493 195.771Z" fill="black"/>
<path d="M118.515 221.517L100.928 220.203L110.411 194.322L123.584 195.299L118.515 221.517ZM101.637 219.747L118.102 220.976L122.976 195.764L110.757 194.857L101.637 219.747Z" fill="black"/>
<path d="M178.736 233.407L170.179 209.873L186.832 201.235L199.612 222.509L178.736 233.407ZM170.81 210.119L179.016 232.687L198.898 222.308L186.642 201.906L170.81 210.119Z" fill="black"/>
<path d="M53.2387 233.397L36.5114 222.462L57.4501 201.256L70.8374 209.938L53.2387 233.397ZM37.3103 222.377L53.1181 232.711L70.1038 210.069L57.5211 201.908L37.3103 222.377Z" fill="black"/>
<path d="M157.169 241.215L153.092 216.018L170.647 209.67L179.202 233.199L157.169 241.215ZM153.662 216.353L157.573 240.527L178.55 232.895L170.343 210.322L153.662 216.353Z" fill="black"/>
<path d="M71.7711 241.199L52.7798 233.162L70.3862 209.692L85.5546 216.068L71.7711 241.199ZM53.577 232.947L71.5461 240.551L84.8374 216.318L70.555 210.315L53.577 232.947Z" fill="black"/>
<path d="M135.047 245.974L135.578 219.765L153.585 215.881L157.661 241.068L135.047 245.974ZM136.078 220.177L135.569 245.34L157.082 240.674L153.169 216.491L136.078 220.177Z" fill="black"/>
<path d="M92.0317 245.96L71.2752 241.045L85.0661 215.901L101.62 219.793L92.0317 245.96ZM72.0421 240.704L91.7094 245.361L100.945 220.157L85.3259 216.485L72.0421 240.704Z" fill="black"/>
<path d="M112.965 247.547L118.096 221.007L136.088 219.697L135.558 245.894L112.965 247.547ZM118.522 221.486L113.591 246.991L135.059 245.42L135.568 220.245L118.522 221.486Z" fill="black"/>
<path d="M113.485 247.54L91.5159 245.889L101.11 219.707L118.613 221.014L113.485 247.54ZM92.2252 245.432L113.071 246.999L118.005 221.479L101.455 220.243L92.2252 245.432Z" fill="black"/>
</g>
<defs>
<clipPath id="clip0_1_9944">
<rect width="274.425" height="247.547" fill="white"/>
</clipPath>
</defs>
</svg>
