<svg width="271" height="277" viewBox="0 0 271 277" fill="none" xmlns="http://www.w3.org/2000/svg">
<g clip-path="url(#clip0_1_14395)">
<path d="M270.985 173.305L270.971 173.158L271 172.418L270.911 172.495L269.878 161.132L269.896 161.116L269.861 160.944L269.804 160.32L269.791 160.331L267.181 137.171L267.241 137.198L267.115 136.585L267.099 136.411L267.077 136.401L265.089 126.754L265.157 126.776L264.97 126.175L264.935 126.005L264.915 125.998L261.794 115.968L261.854 115.981L261.621 115.413L261.568 115.242L260.759 112.641L260.822 113.467L257.323 104.949L257.374 104.953L257.111 104.435L257.04 104.26L257.038 104.26L256.429 102.774L256.439 103.106L251.756 93.8575L251.798 93.855L251.522 93.397L251.43 93.2145L251.428 93.2147L250.969 92.3047L250.961 92.4657L245.166 82.8521L245.2 82.8443L244.999 82.5573L244.925 82.451L244.807 82.257L244.483 81.7189L244.468 81.7999L237.657 72.0802L237.682 72.0687L237.421 71.7445L237.079 71.2561L237.062 71.2982L235.335 69.1527L229.326 61.6896L229.345 61.6758L229.285 61.6111L229.103 61.4122L228.849 61.0973L228.833 61.1184L224.318 56.2064L220.359 51.8992L220.381 51.8845L220.311 51.8175L220.09 51.6061L219.848 51.3435L219.833 51.361L210.914 42.8427L210.957 42.8292L210.503 42.4501L210.201 42.1616L210.187 42.1864L208.494 40.7719L201.079 34.5783L201.16 34.5698L200.655 34.2032L200.469 34.0689L200.104 33.7633L200.093 33.7962L192.403 28.2244L191.004 27.211L191.164 27.2155L190.301 26.6828L190.127 26.5755L190.055 26.523L189.695 26.2625L189.689 26.305L180.87 20.8603L181.199 20.897L179.612 20.0833L179.117 19.778L179.117 19.83L170.926 15.6323L171.734 15.7616L169.061 14.6764L168.517 14.398L168.525 14.4591L159.494 10.7927L158.797 10.5099L158.792 10.4894L158.625 10.4402L158.043 10.2039L158.06 10.2736L150.756 8.11921L148.63 7.49193L148.621 7.46889L148.447 7.43818L147.851 7.26228L147.873 7.32547L125.086 2.8411L125.097 2.83036L124.481 2.72193L124.314 2.67282L124.297 2.68936L113.079 0.714481L113.163 0.632159L112.428 0.599795L112.281 0.574049L112.263 0.592528L101.792 0.131917L101.926 0L101.035 0.0952747L101.013 0.0976153L100.894 0.0923722L100.873 0.11263L98.2633 0.391883L91.3712 1.12929L91.6201 0.882035L90.4513 1.21968L90.4071 1.23244L90.3213 1.24164L88.0188 1.48801L88.9754 1.64603L82.0336 3.65134L82.6393 3.04888L80.7665 4.01735L79.3089 4.43842L79.8151 4.50936L72.3601 8.36452L72.3207 8.3602L72.2399 8.42679L71.2986 8.91359L71.6079 8.94749L65.1038 14.3055L65.0605 14.3024L64.9743 14.4122L64.3654 14.9139L64.4669 14.9214L58.2168 21.1621L48.037 31.323L41.431 37.917L31.3143 48.0118L24.6291 54.6841L15.3233 63.9691L15.3138 63.8408L14.8102 64.4786L14.706 64.565L14.7091 64.6064L9.37982 71.3563L9.34553 71.0517L8.86278 72.0112L8.79912 72.0919L8.80338 72.1294L4.8648 79.9569L4.79566 79.4868L4.39767 80.863L4.38261 80.9152L4.34905 80.9818L4.34986 80.9868L3.48103 82.7075L4.01939 82.1715L1.84599 89.6877L1.70417 88.8869L1.44453 91.0759L1.43068 91.1238L1.09868 92.2725L1.32992 92.043L0.848463 96.1022L0.124831 102.203L0.105433 102.222L0.108413 102.341L0 103.254L0.127811 103.128L0.404676 114.388L0.38665 114.406L0.408784 114.554L0.426974 115.293L0.507617 115.214L2.32504 127.35L2.3083 127.366L2.35289 127.535L2.44569 128.155L2.48521 128.117L6.59957 146.243L7.27298 149.21L7.25084 149.204L7.39837 149.765L7.42638 149.951L7.44924 149.958L10.1195 160.12L10.0591 160.109L10.2571 160.645L10.306 160.83L10.3273 160.834L12.6736 167.184L14.2007 171.316L14.1488 171.313L14.3824 171.808L14.4515 171.995L14.4713 171.996L19.4911 182.632L19.4472 182.635L19.7005 183.075L19.7925 183.27L19.7939 183.27L20.6244 185.033L20.5583 184.566L25.9223 193.886L25.8873 193.895L26.1467 194.276L26.2647 194.481L26.2666 194.48L26.7965 195.405L26.7907 195.221L29.4232 199.086L33.3882 204.907L33.3609 204.919L33.6134 205.237L34.0589 205.892L34.0728 205.816L34.5233 206.383L41.7755 215.514L41.7549 215.529L41.9955 215.791L42.275 216.143L42.293 216.115L50.865 225.443L50.8361 225.458L50.9374 225.554L51.1606 225.764L51.4011 226.026L51.4178 226.007L60.4267 234.506L60.3512 234.514L60.7524 234.84L60.9608 235.01L61.0616 235.105L61.2561 235.288L61.271 235.262L70.3629 242.658L70.1816 242.638L71.2469 243.377L71.6022 243.666L71.6141 243.632L80.4532 249.768L79.9989 249.665L81.8573 250.742L82.2737 251.031L82.2808 250.988L86.882 253.656L92.447 256.883L92.4466 256.903L92.6274 256.987L93.0992 257.261L93.1002 257.209L93.1658 257.24L103.209 261.946L103.212 261.967L103.394 262.032L103.908 262.273L103.902 262.212L113.791 265.725L113.797 265.748L113.978 265.791L114.525 265.986L114.52 265.962L135.072 272.454L135.031 272.489L135.638 272.633L135.803 272.692L135.821 272.676L147.751 275.5L147.666 275.573L148.398 275.653L148.543 275.687L148.562 275.671L149.875 275.813L159.749 276.884L159.614 277L160.5 276.969L160.529 276.968L160.648 276.981L160.668 276.963L165.718 276.786L170.88 276.605L170.635 276.816L171.8 276.581L171.849 276.571L171.937 276.568L174.057 276.493L173.267 276.285L180.928 274.739L180.356 275.228L182.131 274.51L182.2 274.482L183.661 274.187L183.196 274.079L186.468 272.755L191.311 270.796L191.348 270.803L191.434 270.747L192.431 270.343L192.129 270.284L199.283 265.525L199.324 265.532L199.418 265.436L200.097 264.984L199.967 264.964L217.142 250.281L235.095 234.931L252.742 219.85L252.741 219.95L253.288 219.386L253.405 219.309L253.406 219.265L259.282 213.213L259.291 213.523L259.851 212.628L259.924 212.552L259.923 212.512L264.38 205.39L264.409 205.9L264.928 204.533L264.947 204.485L264.985 204.423L264.985 204.418L266.075 202.681L265.418 203.244L267.989 196.48L268.067 197.44L268.501 195.175L268.517 195.09L268.968 193.904L268.701 194.134L268.94 192.881L270.501 184.732L270.523 184.713L270.528 184.594L270.532 184.571L270.701 183.687L270.558 183.811L270.965 173.322L270.985 173.305ZM268.331 192.559L267.631 183.985L266.016 164.181L266.078 164.021L266.044 163.995L267.159 158.247L267.211 157.979L269.866 184.541L268.331 192.559ZM259.891 211.32L258.998 178.257L259.128 178.126L259.084 178.081L262.184 173.209L262.517 172.686L264.315 204.25L259.891 211.32ZM230.579 237.924L216.746 249.754L213.344 252.012L226.047 241.141L227.17 240.181L230.579 237.924ZM212.582 253.311L199.026 264.904L195.645 267.152L208.281 256.342L209.202 255.556L212.582 253.311ZM161.467 276.274L162.14 275.693L178.358 261.698L178.379 261.68L179.611 261.642L188.615 261.365L171.683 275.915L161.467 276.274ZM42.6604 215.539L45.9511 210.379L51.4321 216.347L56.8368 222.232L51.4651 225.12L42.6604 215.539ZM26.0544 192.793L20.3103 182.813L18.5819 170.592L25.6582 182.88L25.6429 182.895L25.7475 183.048L26.0544 192.793ZM0.771625 102.492L16.6419 86.7996L16.7681 86.675L17.0936 97.9722L1.04865 113.755L0.771625 102.492ZM15.2798 64.9452L27.8626 52.3892L26.006 54.7457L25.4188 55.4909L12.8434 68.0325L15.2798 64.9452ZM44.6166 35.6693L42.9678 37.7665L42.1603 38.7933L41.6654 39.2871L29.3335 51.5862L31.7795 48.4805L44.6166 35.6693ZM66.0568 14.376L72.5249 9.04788L105.621 12.674L102.603 15.2134L100.692 16.8204L100.64 16.7672L100.518 16.9269L83.1655 15.6425L66.0568 14.376ZM80.947 4.66793L112.152 9.04173L107.914 11.272L106.503 12.0147L106.462 11.9666L106.32 12.0856L73.5471 8.49452L80.947 4.66793ZM92.9235 1.62805L101.01 0.762853L127.167 5.56829L121.09 6.23781L121.067 6.20206L120.903 6.25024L108.211 4.15354L92.9235 1.62805ZM158.991 11.3016L168.624 15.2124L171.443 36.7473L167.328 35.0907L164.656 34.0147L164.666 33.9838L164.521 33.9418L162.124 24.127L158.991 11.3016ZM209.862 42.7747L202.011 56.9598L197.556 53.2457L195.221 51.2987L195.234 51.2805L195.163 51.2293L200.431 34.8971L209.862 42.7747ZM244.099 82.4226L238.376 83.7611L227.41 86.3252L227.365 86.2502L227.346 86.2615L227.261 86.139L222.273 79.0119L237.044 72.3562L244.099 82.4226ZM3.04394 127.57L19.2499 111.725L19.4884 112.617L22.6789 124.565L12.5562 134.395L6.40963 140.363L3.04394 127.57ZM65.3617 14.9874L100.037 17.5543L98.7987 19.1722L95.9884 22.8423L95.926 22.7869L95.8303 22.9872L60.2748 21.7863L60.0383 21.7783L65.3617 14.9874ZM135.661 271.94L123.213 267.519L140.246 252.545L143.606 253.752L152.741 257.034L135.661 271.94ZM35.8663 196.676L52.481 181.097L52.5007 181.079L61.6153 192.532L62.6529 193.836L62.6365 193.851L45.9404 209.355L35.8663 196.676ZM22.8741 125.295L22.9153 125.255L27.8745 138.538L22.5792 143.639L11.5045 154.307L6.61842 141.081L22.8741 125.295ZM208.641 64.1643L182.503 90.4278L178.243 86.372L192.813 69.0376L202.132 57.9509L208.641 64.1643ZM235.66 102.583L200.764 116.449L198.34 111.592L231.907 95.1412L235.66 102.583ZM252.869 183.397L247.043 187.147L244.38 183.589L229.047 163.103L233.201 160.5L252.869 183.397ZM153.311 256.537L140.813 252.047L146.205 247.307L158.072 236.877L158.089 236.862L170.629 241.421L170.572 241.471L153.311 256.537ZM41.2201 40.6633L37.7466 47.664L30.0961 55.2795L22.4402 62.9002L25.9359 55.9077L41.2201 40.6633ZM100.702 17.7726L121.844 39.3L118.913 43.2295L98.4262 25.0103L96.4829 23.2821L100.702 17.7726ZM152.078 70.4715L147.719 69.2438L157.085 32.4704L163.827 34.4287L152.078 70.4715ZM226.809 239.623L219.536 242.522L236.174 228.261L236.332 228.231L236.336 228.186L243.476 225.369L226.809 239.623ZM86.9832 217.636L75.1259 206.441L92.1498 190.787L94.2614 192.783L104.081 202.069L104.062 202.087L86.9832 217.636ZM23.432 124.754L39.9217 108.748L39.9625 108.709L42.8781 116.444L44.9911 122.05L44.9761 122.065L28.3923 138.039L23.432 124.754ZM58.2012 23.7259L55.609 28.9841L54.8098 30.6051L54.7643 30.6057L54.7215 30.7603L39.2023 46.2145L42.678 39.2092L58.2012 23.7259ZM118.559 43.7993L116.399 48.4563L93.0171 30.4058L96.1427 23.8632L118.559 43.7993ZM126.1 36.4139L126.574 72.0141L124.429 73.9027L122.616 39.4156L124.661 37.6536L126.1 36.4139ZM172.33 82.3284L155.397 98.1148L150.88 94.8858L154.406 91.5868L167.79 79.0674L172.33 82.3284ZM243.575 133.707L243.294 139.711L223.912 140.674L205.782 141.574L206.005 137.729L243.575 133.707ZM246.436 187.438L239.66 190.017L223.639 165.177L228.451 163.408L246.436 187.438ZM140.119 251.777L127.314 245.723L136.259 237.797L144.562 230.441L157.424 236.568L157.381 236.605L140.119 251.777ZM28.6592 138.699L45.2447 122.722L45.2764 122.692L50.7071 134.033L51.769 136.251L51.7541 136.265L40.5397 146.977L35.0787 152.193L28.6592 138.699ZM36.7711 94.5968L53.4402 78.2965L56.9701 91.128L56.9397 91.1377L56.9867 91.2611L40.2652 107.494L36.7711 94.5968ZM137.61 31.5965L142.694 30.9928L137.771 68.3034L134.278 68.7608L137.208 31.6442L137.61 31.5965ZM204.248 145.835L190.157 158.481L187.792 158.868L187.972 158.053L204.894 142.849L204.248 145.835ZM113.786 237.872L130.978 222.504L130.993 222.49L136.435 225.688L143.947 230.103L143.915 230.132L126.68 245.402L113.786 237.872ZM132.648 69.8933L120.597 81.3545L120.614 81.2853L121.738 78.8277L130.355 70.6246L132.648 69.8933ZM193.14 143.159L187.831 147.949L187.019 143.644L204.131 128.163L204.968 132.488L193.14 143.159ZM80.9977 177.705L98.187 161.747L109.034 173.551L109.44 173.994L92.1725 189.869L80.9977 177.705ZM40.4786 108.208L57.2423 91.9331L62.3027 105.233L62.2755 105.244L62.3254 105.348L54.8319 112.568L45.5083 121.552L40.4786 108.208ZM34.2709 69.3703L50.7239 53.1007L51.1456 64.3259L51.1083 64.3325L51.1331 64.4853L34.645 80.7032L34.2709 69.3703ZM116.152 49.0994L114.795 54.4366L90.8173 38.5775L92.7961 31.0699L116.152 49.0994ZM87.4431 148.315L88.8583 150.089L97.7478 161.234L97.7301 161.249L97.7403 161.26L89.8584 168.578L80.5686 177.202L70.334 164.356L87.4431 148.315ZM52.5114 41.3748L90.0735 39.0763L89.4019 46.2106L89.2971 47.3224L89.2205 47.2799L89.234 47.5626L51.3962 51.9623L52.5114 41.3748ZM129.251 106.323L126.793 102.157L140.109 89.6252L144.638 91.8834L129.251 106.323ZM169.389 112.339L173.027 116.872L156.202 132.331L152.596 127.827L169.389 112.339ZM184.936 138.866L186.286 143.417L175.52 153.152L172.276 151.207L171.746 150.83L184.936 138.866ZM219.128 165.348L217.052 165.697L189.059 159.331L191.434 158.942L221.32 164.979L219.128 165.348ZM230.623 191.578L222.224 191.665L210.886 166.382L216.848 166.365L230.623 191.578ZM189.196 225.047L176.54 220.395L190.542 186.161L191.246 184.441L191.481 184.555L191.473 184.492L201.398 188.222L189.196 225.047ZM110.38 174.006L120.401 163.941L137.658 146.61L147.285 155.745L122.369 185.362L110.38 174.006ZM92.346 68.858L115.895 76.7511L117.989 84.0511L104.634 81.1511L95.2475 79.1126L94.1498 75.233L92.346 68.858ZM144.519 184.387L158.367 164.874L168.705 172.192L148.824 205.548L135.932 196.487L144.519 184.387ZM87.9535 147.897L119.446 125.441L127.734 135.808L98.2514 160.807L87.9535 147.897ZM179.705 156.431L179.801 178.071L175.978 175.79L169.502 171.927L171.856 155.478L172.351 152.023L179.705 156.431ZM203.302 164.742L198.266 163.414L204.127 164.856L203.302 164.742ZM187.645 160.35L190.668 183.423L186.848 181.561L180.462 178.446L180.433 171.867L180.366 156.774L187.645 160.35ZM156.737 140.139L163.878 146.027L158.125 163.85L148.159 155.639L156.737 140.139ZM169.259 172.551L179.702 178.781L162.404 213.605L149.378 205.907L169.259 172.551ZM163.16 144.579L162.59 144.109L162.824 143.896L163.16 144.579ZM130.491 109.69L135.758 117.301L119.623 124.577L117.826 121.975L112.283 113.95L130.491 109.69ZM142.488 125.723L148.919 132.719L137.645 145.653L131.517 138.983L128.685 135.9L142.488 125.723ZM139.41 127.172L128.252 135.399L120.032 125.117L136.157 117.846L142.058 125.22L139.41 127.172ZM132.636 111.042L132.389 111.273L131.964 110.659L131.939 110.622L132.337 110.862L132.636 111.042ZM149.385 133.19L156.228 139.695L147.655 155.186L138.108 146.126L149.385 133.19ZM214.135 165.711L210.417 165.722L191.064 160.962L188.08 159.828L187.923 159.751L214.135 165.711ZM183.699 157.676L187.577 154.186L187.352 157.721L186.094 158.852L183.699 157.676ZM171.74 151.637L168.895 171.517L166.318 169.693L158.678 164.284L160.789 157.743L164.436 146.445L171.74 151.637ZM155.715 132.779L152.764 135.491L149.596 132.48L148.657 131.459L152.11 128.275L154.345 131.067L155.715 132.779ZM148.21 130.972L144.291 126.708L147.752 123.505L151.68 127.773L148.21 130.972ZM139.749 121.278L139.184 120.572L136.519 117.242L136.255 116.86L138.239 115.011L142.609 118.621L139.749 121.278ZM135.875 116.311L132.769 111.822L133.209 111.41L137.705 114.606L135.875 116.311ZM57.8047 91.5561L94.789 79.8028L98.9535 90.5751L62.915 104.989L57.8047 91.5561ZM90.3727 57.5598L89.9358 48.4311L114.11 61.8198L114.456 68.3053L102.722 63.0697L90.3727 57.5598ZM95.5132 79.8467L118.216 84.7771L121.165 92.3383L99.6122 90.4494L95.5132 79.8467ZM116.223 74.9257L115.99 73.6035L115.142 68.7889L115.093 67.8567L116.223 74.9257ZM99.2172 91.1816L104.553 102.115L69.7534 119.236L63.1773 105.596L99.2172 91.1816ZM120.597 89.0687L119.622 86.5682L120.881 85.3726L124.421 85.4439L120.597 89.0687ZM119.58 85.6975L119.594 85.5302L119.784 85.5045L119.58 85.6975ZM118.877 84.6572L118.771 84.385L117.936 81.4742L115.608 66.9051L114.761 61.6067L115.08 57.8861L118.877 84.6572ZM114.145 61.0834L89.9265 47.6708L90.7145 39.3016L114.654 55.1358L114.145 61.0834ZM111.64 114.18L119.052 124.911L96.5211 140.976L87.5595 147.366L78.3626 133.994L111.64 114.18ZM128.164 136.31L137.195 146.139L109.916 173.536L98.6811 161.309L128.164 136.31ZM162.985 213.917L167.297 205.237L180.283 179.094L190.652 184.151L175.932 220.138L162.985 213.917ZM198.021 186.247L191.376 183.749L188.347 160.636L195.442 163.332L201.343 187.495L198.021 186.247ZM208.908 180.327L203.726 165.468L210.151 166.355L221.468 191.593L212.422 190.401L208.908 180.327ZM176.112 153.507L186.446 144.163L187.257 148.466L179.451 155.509L176.112 153.507ZM166.709 147.25L164.46 145.651L164.398 145.6L163.331 143.433L180.194 128.045L182.568 132.827L177.553 137.388L166.709 147.25ZM162.505 143.293L162.076 143.685L157.871 140.218L159.699 138.543L161.226 141.128L162.505 143.293ZM159.341 137.976L157.356 139.793L156.86 139.384L153.243 135.947L156.11 133.313L159.16 137.716L159.341 137.976ZM149.816 94.9767L133.138 110.573L131.024 109.3L130.912 109.138L129.595 106.905L145.253 92.2119L149.816 94.9767ZM130.122 109.097L121.22 111.18L111.897 113.361L107.415 105.735L105.552 102.564L125.565 101.374L130.122 109.097ZM125.231 100.732L105.194 101.923L102.355 96.1062L99.9317 91.1412L121.451 93.0272L125.231 100.732ZM122.413 93.4892L124.839 91.194L130.08 86.2365L134.3 87.4028L124.134 96.9975L122.413 93.4892ZM122.108 92.8684L121.967 92.5799L120.856 89.7332L125.342 85.4812L129.272 86.0917L122.108 92.8684ZM114.52 69.0575L115.743 76.0027L100.309 70.8297L92.1501 68.0951L90.4821 58.3326L114.52 69.0575ZM91.6279 68.7424L94.5173 78.9542L94.4556 78.9408L94.55 79.1849L57.599 90.9282L54.0178 77.91L91.6279 68.7424ZM70.0645 119.819L104.865 102.698L111.285 113.622L89.6407 126.51L78.0079 133.436L70.0645 119.819ZM122.864 185.799L147.78 156.182L157.842 164.473L135.407 196.087L122.864 185.799ZM202.084 187.754L198.349 172.455L196.173 163.546L202.983 165.342L211.663 190.228L208.053 189.295L202.084 187.754ZM183.061 157.362L180.191 155.953L180.044 155.864L187.335 149.286L187.618 153.261L183.061 157.362ZM147.288 123.034L143.844 126.222L142.781 125.066L140.163 121.795L143.108 119.06L145.198 121.047L147.288 123.034ZM119.967 81.1539L119.379 83.5037L116.025 59.8524L115.335 54.9866L116.206 51.5617L116.405 50.7795L119.967 81.1539ZM51.3662 52.6315L89.2657 48.2245L89.6981 57.2589L89.6242 57.2259L89.6729 57.5107L51.8011 64.2098L51.3662 52.6315ZM45.777 122.21L62.6273 105.974L64.0263 108.876L69.1615 119.527L69.1373 119.539L69.1846 119.62L60.2982 128.106L52.271 135.772L45.777 122.21ZM131.511 222.028L148.95 206.444L149.026 206.498L149.04 206.475L161.983 214.124L144.468 229.642L131.511 222.028ZM192.664 158.516L195.143 157.622L227.292 163.13L223.112 164.667L192.664 158.516ZM200.71 152.546L197.48 155.44L196.215 156.217L201.313 151.647L200.845 152.346L200.71 152.546ZM187.099 158.948L186.976 158.948L187.129 158.81L187.099 158.948ZM184.712 138.177L171.195 150.439L167.26 147.641L182.844 133.469L183.581 135.328L184.712 138.177ZM179.555 126.906L179.874 127.443L163.003 142.839L160.196 138.088L177.04 122.665L179.555 126.906ZM159.832 137.526L156.601 132.862L173.422 117.405L176.681 122.098L159.832 137.526ZM143.098 118.168L138.727 114.557L154.916 99.4663L155.437 98.9801L159.836 102.623L143.098 118.168ZM138.198 114.147L133.702 110.95L140.001 105.059L150.388 95.346L154.904 98.5746L138.198 114.147ZM125.104 84.7965L121.563 84.7248L138.193 68.9323L141.742 69.0189L125.104 84.7965ZM137.101 69.0581L120.603 84.7261L119.723 84.8455L120.298 82.5501L134.066 69.4554L137.101 69.0581ZM122.996 76.7183L123.906 75.4735L127.102 72.4304L128.065 71.893L122.996 76.7183ZM121.59 77.5633L120.492 79.9664L118.671 64.4456L116.863 49.0248L118.741 44.9755L121.59 77.5633ZM69.5266 120.206L73.293 126.663L77.441 133.774L77.4193 133.786L77.459 133.844L73.9158 137.199L60.4601 149.938L52.586 136.384L69.5266 120.206ZM114.791 193.213L122.392 186.293L122.424 186.323L122.439 186.305L127.409 190.381L134.965 196.579L117.559 212.277L105.072 202.061L114.791 193.213ZM118.099 212.679L135.481 197.002L135.535 197.046L135.55 197.026L148.395 206.054L130.928 221.662L118.099 212.679ZM145.099 229.965L162.58 214.477L162.678 214.535L162.691 214.509L175.512 220.669L157.964 236.093L145.099 229.965ZM189.827 225.241L192.521 217.112L202.016 188.455L202.28 188.554L202.262 188.482L211.774 190.939L201.993 228.282L189.827 225.241ZM231.352 191.536L217.555 166.283L222.978 165.371L238.981 190.182L231.352 191.536ZM202.775 149.449L201.406 150.676L193.971 157.342L191.37 158.28L203.692 147.221L202.775 149.449ZM188.053 157.092L188.278 153.555L205.317 138.213L205.11 141.767L197.379 148.713L188.053 157.092ZM168.959 111.837L164.596 115.861L152.165 127.325L148.237 123.056L165.007 107.536L167.446 110.191L168.959 111.837ZM164.543 107.065L147.774 122.585L143.592 118.61L149.239 113.366L160.334 103.062L161.215 103.9L164.543 107.065ZM139.444 89.345L126.449 101.574L126.035 100.873L124.438 97.618L132.883 89.6483L135.027 87.6241L137.968 88.7698L139.444 89.345ZM134.862 86.8723L130.641 85.7057L138.578 78.1983L147.41 69.8439L151.643 71.0356L134.862 86.8723ZM129.88 85.5167L125.948 84.9063L142.658 69.0602L146.606 69.6951L129.88 85.5167ZM123.8 74.5006L122.178 76.7177L119.301 43.8123L121.997 40.1994L123.8 74.5006ZM90.2366 38.1935L90.1614 38.1439L90.1364 38.41L82.5517 38.8742L52.654 40.7037L55.2672 31.261L92.1748 30.84L90.2366 38.1935ZM35.4866 58.1318L51.7879 41.9489L50.7252 52.0406L50.6843 52.0453L50.6904 52.2053L34.3657 68.3479L35.4866 58.1318ZM51.8636 64.8703L89.7842 58.1624L91.4405 67.8573L91.3708 67.834L91.4477 68.1059L53.8777 77.2635L51.8636 64.8703ZM60.8158 150.511L77.8379 134.395L87.0222 147.749L87.0028 147.763L87.0301 147.797L83.6895 150.929L69.9406 163.819L60.8158 150.511ZM92.6371 190.339L109.887 174.48L109.897 174.491L109.913 174.474L111.34 175.826L121.911 185.838L104.571 201.624L92.6371 190.339ZM158.783 236.253L176.158 220.98L176.277 221.036L176.289 221.007L188.765 225.593L171.198 240.924L158.655 236.365L158.783 236.253ZM202.644 228.399L212.413 191.104L212.692 191.176L212.666 191.1L221.619 192.28L214.128 229.798L202.644 228.399ZM214.796 229.823L222.274 192.366L222.555 192.403L222.519 192.323L230.795 192.237L225.426 229.586L214.796 229.823ZM196.033 157.104L198.373 155.667L232.318 160.274L228.5 162.666L196.033 157.104ZM205.351 137.293L188.239 152.702L187.956 148.725L205.049 133.304L205.176 134.985L205.351 137.293ZM186.828 142.927L185.478 138.374L202.596 122.852L203.967 127.42L186.828 142.927ZM185.233 137.704L183.365 132.995L200.475 117.432L202.37 122.166L200.393 123.958L185.233 137.704ZM200.198 116.792L183.075 132.366L180.701 127.583L197.797 111.98L200.198 116.792ZM173.514 116.424L169.875 111.89L186.9 96.1884L190.567 100.755L173.514 116.424ZM167.219 78.6972L150.317 94.5078L145.753 91.7423L151.424 86.4208L162.631 75.9047L165.584 77.7021L167.219 78.6972ZM162.018 75.575L145.152 91.4014L140.622 89.1426L141.007 88.7804L157.468 73.2899L160.914 75.0206L162.018 75.575ZM142.278 68.3705L138.44 68.2769L143.364 30.9555L149.361 31.169L142.278 68.3705ZM54.3655 32.0468L51.9581 40.7465L51.9143 40.7492L51.8973 40.9102L44.6359 48.1188L35.8286 56.8618L38.3113 48.0337L54.3655 32.0468ZM35.3926 152.806L52.0691 136.877L52.0953 136.853L53.3283 138.975L59.9677 150.404L59.9528 150.418L43.1867 166.283L35.3926 152.806ZM100.436 228.605L117.58 213.147L117.596 213.133L123.386 217.188L130.422 222.115L130.395 222.139L113.202 237.508L100.436 228.605ZM189.472 225.853L189.608 225.903L189.619 225.87L196.992 227.713L201.533 228.848L183.975 244.079L171.965 241.132L189.472 225.853ZM235.721 227.674L226.105 229.499L231.462 192.23L231.729 192.227L231.686 192.148L231.817 192.125L239.159 190.822L235.721 227.674ZM202.912 152.62L201.543 152.489L203.221 149.985L239.617 151.866L236.995 155.886L202.912 152.62ZM239.988 151.223L203.534 149.339L204.768 146.341L241.879 146.463L240.281 150.486L239.988 151.223ZM180.372 126.989L177.537 122.209L194.609 106.575L197.475 111.38L180.372 126.989ZM177.172 121.648L173.913 116.955L190.962 101.288L194.249 106.01L177.172 121.648ZM186.47 95.6868L176.03 105.315L169.444 111.39L165.491 107.087L172.69 100.426L182.49 91.3567L185.303 94.4163L186.47 95.6868ZM182.026 90.8858L165.029 106.616L160.819 102.612L177.788 86.8504L181.644 90.5218L182.026 90.8858ZM160.324 102.17L155.924 98.5259L172.863 82.7349L177.291 86.411L160.324 102.17ZM156.805 73.0075L139.976 88.8433L135.56 87.1219L152.367 71.2597L156.318 72.8158L156.805 73.0075ZM129.859 70.1348L127.227 71.6038L126.753 35.8982L130.972 33.6124L129.859 70.1348ZM34.6925 81.5826L51.2628 65.2839L53.1078 76.6367L53.2351 77.4202L53.2014 77.4284L53.24 77.5688L47.7102 82.9764L36.628 93.8132L34.6925 81.5826ZM43.5416 166.856L60.3307 150.97L62.7416 154.486L69.4535 164.276L69.442 164.287L69.438 164.291L65.4086 168.069L52.5909 180.088L43.5416 166.856ZM52.9837 180.625L69.8509 164.809L80.0836 177.653L63.1381 193.386L52.9837 180.625ZM80.4962 178.171L80.5139 178.154L91.001 189.569L91.6865 190.315L91.6688 190.332L74.6611 205.971L63.5669 193.889L80.4962 178.171ZM92.6284 213.39L104.578 202.51L117.063 212.724L117.041 212.745L99.8958 228.203L87.4847 218.073L92.6284 213.39ZM184.844 244.199L202.316 229.044L202.466 229.081L202.475 229.044L209.291 229.875L213.61 230.401L196.095 245.516L184.844 244.199ZM233.15 159.72L214.916 157.245L199.022 155.088L201.08 153.109L236.426 156.495L235.638 157.271L233.15 159.72ZM217.085 135.878L205.996 137.065L205.678 132.884L243.012 126.544L243.566 133.043L217.085 135.878ZM147.074 69.1008L142.937 68.4354L143.032 67.9363L150.02 31.2323L156.441 32.3238L147.074 69.1008ZM136.534 31.8052L133.606 68.8938L130.527 69.8759L131.641 33.2958L132.295 33.0964L136.534 31.8052ZM95.5191 23.6385L92.4828 29.9936L92.4124 29.9393L92.3498 30.1768L55.5496 30.5966L59.5785 22.4243L95.5191 23.6385ZM34.7423 58.8708L33.6217 69.0836L17.5097 85.0133L18.673 74.8257L34.7423 58.8708ZM17.4095 86.0407L33.5073 70.1253L33.6319 70.0023L34.006 81.3318L17.7351 97.3412L17.4095 86.0407ZM118.836 253.235L126.776 246.2L139.579 252.252L122.517 267.251L109.765 261.272L118.836 253.235ZM197.117 245.506L197.721 244.984L214.496 230.509L214.655 230.528L214.663 230.488L224.798 230.262L207.377 245.233L197.117 245.506ZM208.662 244.999L225.838 230.238L225.999 230.234L226.005 230.191L234.871 228.508L217.664 243.256L208.662 244.999ZM244.872 224.107L236.405 227.448L239.359 195.776L239.833 190.703L240.075 190.66L240.026 190.585L246.609 188.079L244.872 224.107ZM240.639 151.507L240.797 151.265L240.684 151.259L242.509 146.663L265.285 164.244L262.652 171.082L240.639 151.507ZM242.095 145.802L204.956 145.681L205.7 142.24L243.201 140.377L243.086 140.939L242.095 145.802ZM205.589 132.229L204.727 127.774L241.529 118.998L242.919 125.889L205.589 132.229ZM241.366 118.358L204.569 127.131L203.171 122.474L239.158 111.176L241.366 118.358ZM238.935 110.553L202.954 121.849L201.034 117.053L235.935 103.185L238.935 110.553ZM221.298 78.8085L215.352 83.0446L191.079 100.339L187.395 95.7503L215.658 71.7988L221.298 78.8085ZM199.87 84.3129L186.965 95.2493L182.965 90.8985L209.104 64.6356L215.227 71.2983L199.87 84.3129ZM167.649 78.1854L163.018 75.3668L169.471 62.3013L179.67 41.6519L186.767 46.0137L167.649 78.1854ZM179.094 41.3274L162.44 75.0478L157.83 72.7321L165.572 53.6229L172.014 37.7223L179.094 41.3274ZM149.239 30.503L143.451 30.2968L143.459 30.236L143.259 30.2598L130.012 6.00579L138.418 6.36737L149.239 30.503ZM142.553 30.3439L137.261 30.9721L137.268 30.8907L137.043 30.9593L130.677 21.0945L121.491 6.85902L129.259 6.00322L142.553 30.3439ZM21.5356 64.7322L36.8335 49.5045L36.8327 49.5062L37.3598 48.9815L37.1822 49.6124L34.878 57.8053L19.0219 73.5488L21.5356 64.7322ZM17.7789 98.2243L34.115 82.1512L36.0498 94.3786L29.6259 100.658L19.6509 110.409L17.7789 98.2243ZM19.7911 111.196L36.1763 95.1781L36.231 95.1248L38.5326 103.62L39.7244 108.019L39.7084 108.035L32.3905 115.138L23.2211 124.038L19.7911 111.196ZM11.7697 154.969L28.1263 139.212L28.1583 139.182L29.7504 142.528L34.5764 152.672L34.5614 152.687L18.1191 168.395L11.7697 154.969ZM18.4316 169.009L34.9016 153.275L42.6941 166.749L26.1509 182.414L18.4316 169.009ZM83.0154 244.317L99.9325 229.059L112.696 237.96L95.7095 253.135L83.0154 244.317ZM96.2948 253.498L113.268 238.335L126.16 245.863L109.13 260.953L96.2948 253.498ZM171.356 241.663L183.363 244.61L166.05 259.625L154.08 256.742L171.356 241.663ZM176.207 251.691L184.168 244.786L190.844 245.567L195.416 246.102L195.284 246.216L178.146 261.009L166.923 259.742L176.207 251.691ZM217.985 243.851L218.968 243.459L225.252 240.955L208.841 254.997L201.576 257.913L217.985 243.851ZM251.49 144.844L243.976 139.873L244.017 139.675L243.955 139.678L244.227 133.884L267.348 146.691L267.01 155.111L251.49 144.844ZM231.587 94.5622L198.024 111.012L195.138 106.174L227.138 87.1535L231.587 94.5622ZM226.777 86.5995L194.78 105.617L191.475 100.869L221.695 79.3364L226.777 86.5995ZM177.75 85.9335L173.296 82.2365L176.818 77.2673L194.838 51.8393L201.64 57.5106L177.75 85.9335ZM194.317 51.4335L172.773 81.8332L168.201 78.5492L178.54 61.1491L187.316 46.3811L194.317 51.4335ZM171.413 37.4479L157.228 72.4638L152.703 70.6817L154.835 64.1423L164.451 34.6446L171.413 37.4479ZM120.781 6.97558L136.386 31.159L131.662 32.5985L131.666 32.4849L131.412 32.6224L113.762 9.03976L120.781 6.97558ZM130.825 32.9401L126.497 35.2849L107.622 13.3171L106.945 12.529L113.118 9.28028L130.825 32.9401ZM106.387 12.8925L125.955 35.6671L122.297 38.8186L107.754 24.0106L101.157 17.2931L106.387 12.8925ZM43.0338 167.337L43.0563 167.316L49.26 176.387L52.1037 180.545L35.474 196.138L26.5051 182.988L43.0338 167.337ZM46.3691 209.858L63.0832 194.338L74.1751 206.418L74.1572 206.435L57.3872 221.855L46.3691 209.858ZM57.8521 222.324L63.7575 216.894L74.6386 206.889L86.4936 218.082L69.6332 233.434L57.8521 222.324ZM70.1352 233.87L75.1087 229.341L86.9911 218.522L99.3994 228.651L99.3765 228.672L82.474 243.916L70.1352 233.87ZM185.535 255.503L196.326 246.188L206.583 245.916L206.343 246.122L206.344 246.121L189.414 260.679L179.173 260.994L185.535 255.503ZM207.628 245.888L207.651 245.869L213.453 244.745L216.649 244.126L199.691 258.659L190.707 260.438L207.628 245.888ZM245.552 223.702L247.155 190.447L247.282 187.823L247.49 187.744L247.44 187.677L253.032 184.078L252.749 218.95L245.552 223.702ZM253.384 182.984L233.718 160.088L237.158 156.701L258.2 178.124L253.384 182.984ZM258.609 177.597L237.584 156.192L240.274 152.066L262.359 171.706L258.609 177.597ZM265.46 163.544L242.763 146.024L242.85 145.805L242.768 145.805L243.834 140.572L266.95 155.864L265.46 163.544ZM266.477 136.857L267.301 145.91L244.261 133.148L244.27 132.968L244.222 132.973L243.686 126.688L266.477 136.857ZM156.354 31.6382L150.144 30.5828L150.153 30.5356L149.973 30.5292L139.191 6.47935L148.127 8.05322L156.354 31.6382ZM266.335 136.07L246.712 127.314L243.622 125.935L243.608 125.772L243.57 125.779L242.221 119.092L264.366 126.511L266.335 136.07ZM264.144 125.74L255.921 122.985L242.07 118.345L242.04 118.197L242.009 118.204L239.962 111.545L239.857 111.203L261.053 115.807L264.144 125.74ZM255.147 113.847L239.634 110.478L239.593 110.346L239.567 110.354L236.626 103.133L256.583 104.884L260.766 115.068L255.147 113.847ZM249.655 103.612L236.346 102.445L236.299 102.329L236.275 102.338L232.576 95.001L251.038 93.9002L256.249 104.191L249.655 103.612ZM250.669 93.2597L241.224 93.8229L232.251 94.3578L232.202 94.2605L232.182 94.2707L228.972 88.9253L227.768 86.9208L244.491 83.0099L250.669 93.2597ZM236.632 71.8168L221.887 78.4609L221.854 78.4124L221.836 78.4248L216.176 71.3894L228.794 62.082L236.632 71.8168ZM220.839 67.1289L215.761 70.8745L215.747 70.8573L215.731 70.8711L211.835 66.6316L209.57 64.1672L209.585 64.152L209.569 64.1372L219.861 52.3333L228.361 61.5809L220.839 67.1289ZM219.399 51.8594L209.091 63.6808L203.864 58.6916L202.558 57.4444L202.572 57.4279L202.526 57.3903L210.363 43.2303L219.399 51.8594ZM199.88 34.4574L194.601 50.8237L193.54 50.0579L187.655 45.811L187.667 45.7909L187.574 45.734L190.193 27.439L199.88 34.4574ZM189.587 27.0186L186.962 45.3576L179.964 41.0568L179.975 41.0343L179.864 40.9776L179.781 20.9648L189.587 27.0186ZM179.12 20.5741L179.203 40.6411L172.263 37.1075L172.273 37.0818L172.145 37.0302L169.335 15.5588L179.12 20.5741ZM158.242 11.0162L163.791 33.7296L157.248 31.8292L157.258 31.7918L157.096 31.7644L154.326 23.8224L148.897 8.25983L158.242 11.0162ZM112.328 1.25361L134.24 5.5258L129.642 5.32799L129.625 5.29744L129.453 5.31637L105.785 0.967915L112.328 1.25361ZM90.491 1.89638L119.444 6.67946L114.457 8.14628L113.34 8.47492L113.309 8.4332L113.154 8.51455L82.4688 4.21372L90.491 1.89638ZM61.5996 18.7169L59.2212 21.7505L59.1758 21.7489L59.1057 21.891L57.1536 23.8382L46.0447 34.9188L48.5022 31.7918L61.5996 18.7169ZM9.41219 72.3869L24.4649 57.3747L20.9717 64.3618L5.90001 79.3673L9.41219 72.3869ZM4.98329 81.2117L20.578 65.6855L18.0653 74.4986L14.3889 78.1483L2.43886 90.0113L4.98329 81.2117ZM2.08255 91.2956L17.6953 75.7963L17.9244 75.5689L16.7615 85.7529L16.7421 85.7721L3.77248 98.5959L0.876973 101.459L2.08255 91.2956ZM1.08889 114.642L17.1994 98.7944L17.2581 99.1763L19.071 110.976L19.0542 110.992L2.9067 126.781L1.08889 114.642ZM10.8938 160.473L7.60844 145.664L8.00338 146.733L10.9858 154.807L10.9705 154.822L11.0545 154.999L12.1936 160.764L13.5612 167.686L10.8938 160.473ZM15.0017 171.574L12.2091 157.441L17.1916 167.977L17.6164 168.875L17.6013 168.889L17.699 169.059L19.3613 180.811L15.0017 171.574ZM26.752 193.992L26.4391 184.062L31.1969 191.038L34.9867 196.595L34.971 196.61L35.0672 196.731L34.437 200.171L33.7 204.192L26.752 193.992ZM34.2308 204.954L35.612 197.417L45.4554 209.806L45.4386 209.821L45.4892 209.876L44.2765 211.777L42.2163 215.008L34.2308 204.954ZM55.7413 223.571L57.2983 222.734L57.348 222.788L57.3646 222.773L65.6272 230.564L68.8783 233.629L61.2938 234.416L51.9555 225.607L55.7413 223.571ZM69.5134 234.228L69.6255 234.334L69.6414 234.319L75.9953 239.493L81.4044 243.897L71.5768 242.794L62.0042 235.007L69.5134 234.228ZM72.7066 243.586L82.3521 244.668L82.4959 244.785L82.5117 244.771L92.7098 251.855L94.155 252.859L82.1687 250.154L72.7066 243.586ZM84.0686 251.261L95.6004 253.863L95.7608 253.975L95.7763 253.961L106.721 260.318L92.9094 256.387L84.0686 251.261ZM96.6251 258.131L105.608 260.685L109.035 261.662L109.211 261.764L109.227 261.75L118.087 265.904L103.656 261.425L96.6251 258.131ZM136.433 272.142L145.509 264.222L153.47 257.275L157.001 258.125L165.436 260.157L165.352 260.23L148.367 274.966L136.433 272.142ZM149.243 275.079L156.346 268.917L166.244 260.331L166.924 260.408L177.464 261.597L160.434 276.293L149.243 275.079ZM172.985 275.667L178.498 270.929L189.689 261.313L196.669 259.931L198.668 259.536L181.956 273.857L172.985 275.667ZM196.61 262.169L199.988 259.274L200.013 259.253L207.271 256.34L191.106 270.167L183.854 273.1L196.61 262.169ZM234.7 234.403L231.278 236.669L244.059 225.736L245.359 224.626L245.51 224.566L245.512 224.52L248.808 222.344L234.7 234.403ZM253.414 218.309L253.695 183.652L253.865 183.543L253.816 183.486L254.772 182.521L258.356 178.906L259.257 212.291L253.414 218.309ZM264.083 188.587L263.123 171.733L263.217 171.586L263.178 171.551L265.47 165.599L267.864 194.952L264.891 202.774L264.083 188.587ZM267.648 155.725L267.681 155.556L267.652 155.537L267.654 155.506L267.84 150.877L270.312 173.153L270.054 179.79L267.648 155.725Z" fill="black"/>
</g>
<defs>
<clipPath id="clip0_1_14395">
<rect width="271" height="277" fill="white"/>
</clipPath>
</defs>
</svg>
